<?xml version="1.0" encoding="utf-8"?>
<!-- Generator: Adobe Illustrator 27.9.0, SVG Export Plug-In . SVG Version: 6.00 Build 0)  -->
<svg version="1.1" id="Layer_1" xmlns="http://www.w3.org/2000/svg" xmlns:xlink="http://www.w3.org/1999/xlink" x="0px" y="0px"
	 viewBox="0 0 400 450" style="enable-background:new 0 0 400 450;" xml:space="preserve">
<style type="text/css">
	<!-- .st0{fill-rule:evenodd;clip-rule:evenodd;fill:#FF0000;} -->
	.st1{fill:#FFFFFF;}
	.st2{fill-rule:evenodd;clip-rule:evenodd;fill:#6C87B4;}
	.st3{fill:#808080;}
</style>
<!-- <rect x="-1" y="1" class="st0" width="400" height="450"/> -->
<g>
	<path class="st1" d="M24.6,94.2c0.1,0.1,0.1,0.2,0.1,0.3c0,0.1,0,0.2-0.1,0.3s-0.2,0.1-0.3,0.1h-7.8v4.7h6.8c0.1,0,0.2,0,0.3,0.1
		c0.1,0.1,0.1,0.2,0.1,0.3c0,0.1,0,0.2-0.1,0.3c-0.1,0.1-0.2,0.1-0.3,0.1h-6.8v5.1c0,0.1,0,0.2-0.1,0.3c-0.1,0.1-0.2,0.1-0.3,0.1
		s-0.2,0-0.3-0.1c-0.1-0.1-0.1-0.2-0.1-0.3V94.5c0-0.1,0-0.2,0.1-0.3c0.1-0.1,0.2-0.1,0.3-0.1h8.3C24.4,94.1,24.5,94.1,24.6,94.2z"
		/>
	<path class="st1" d="M27.3,94.2c0.1-0.1,0.2-0.1,0.3-0.1s0.2,0,0.3,0.1c0.1,0.1,0.1,0.2,0.1,0.3v11.1c0,0.1,0,0.2-0.1,0.3
		c-0.1,0.1-0.2,0.1-0.3,0.1s-0.2,0-0.3-0.1c-0.1-0.1-0.1-0.2-0.1-0.3V94.5C27.2,94.4,27.2,94.3,27.3,94.2z"/>
	<path class="st1" d="M32.2,94.1c0.2-0.1,0.4,0,0.5,0.1c1.4,1.6,2.8,3.2,4,4.6c0.5,0.6,1,1.2,1.6,1.8c0.5,0.6,1,1.2,1.5,1.7
		c0.5,0.5,0.9,1,1.2,1.4c0.3,0.4,0.6,0.7,0.8,0.9v-9.9c0-0.1,0-0.2,0.1-0.3c0.1-0.1,0.2-0.1,0.3-0.1s0.2,0,0.3,0.1
		c0.1,0.1,0.1,0.2,0.1,0.3v11.1c0,0.2-0.1,0.3-0.3,0.4c-0.2,0.1-0.4,0-0.5-0.1c-1.4-1.6-2.8-3.2-4-4.6c-0.5-0.6-1-1.2-1.6-1.8
		s-1-1.1-1.5-1.7c-0.5-0.5-0.9-1-1.2-1.4s-0.6-0.7-0.8-0.9v9.9c0,0.1,0,0.2-0.1,0.3c-0.1,0.1-0.2,0.1-0.3,0.1c-0.1,0-0.2,0-0.3-0.1
		c-0.1-0.1-0.1-0.2-0.1-0.3V94.5C31.9,94.3,32,94.2,32.2,94.1z"/>
	<path class="st1" d="M57.7,105.4c0.1,0.1,0.1,0.2,0,0.3c0,0.1-0.1,0.2-0.2,0.2c-0.1,0.1-0.2,0.1-0.3,0c-0.1,0-0.2-0.1-0.3-0.2
		c-0.1-0.2-0.3-0.5-0.4-0.8c-0.1-0.3-0.3-0.5-0.5-0.9s-0.4-0.7-0.6-1.1h-8.2c-0.2,0.4-0.4,0.8-0.6,1.1s-0.3,0.6-0.5,0.9
		c-0.2,0.3-0.3,0.6-0.4,0.8c-0.1,0.1-0.1,0.2-0.3,0.2c-0.1,0-0.2,0-0.3,0c-0.1-0.1-0.2-0.1-0.2-0.2c0-0.1,0-0.2,0-0.3l6-11.1
		c0.1-0.2,0.2-0.2,0.4-0.2c0.2,0,0.3,0.1,0.4,0.2L57.7,105.4z M54.9,102.2c-0.4-0.7-0.7-1.4-1.1-2.1c-0.4-0.7-0.7-1.4-1.1-2
		c-0.3-0.6-0.6-1.2-0.9-1.6s-0.4-0.8-0.5-1c-0.1,0.2-0.3,0.5-0.5,1s-0.6,1-0.9,1.6c-0.3,0.6-0.7,1.3-1.1,2c-0.4,0.7-0.8,1.4-1.1,2.1
		H54.9z"/>
	<path class="st1" d="M60.3,94.1c0.2-0.1,0.4,0,0.5,0.1c1.4,1.6,2.8,3.2,4,4.6c0.5,0.6,1,1.2,1.6,1.8c0.5,0.6,1,1.2,1.5,1.7
		c0.5,0.5,0.9,1,1.2,1.4c0.3,0.4,0.6,0.7,0.8,0.9v-9.9c0-0.1,0-0.2,0.1-0.3c0.1-0.1,0.2-0.1,0.3-0.1s0.2,0,0.3,0.1
		c0.1,0.1,0.1,0.2,0.1,0.3v11.1c0,0.2-0.1,0.3-0.3,0.4c-0.2,0.1-0.4,0-0.5-0.1c-1.4-1.6-2.8-3.2-4-4.6c-0.5-0.6-1-1.2-1.6-1.8
		s-1-1.1-1.5-1.7c-0.5-0.5-0.9-1-1.2-1.4s-0.6-0.7-0.8-0.9v9.9c0,0.1,0,0.2-0.1,0.3c-0.1,0.1-0.2,0.1-0.3,0.1c-0.1,0-0.2,0-0.3-0.1
		c-0.1-0.1-0.1-0.2-0.1-0.3V94.5C60,94.3,60.1,94.2,60.3,94.1z"/>
	<path class="st1" d="M75.7,95.7c0.6-0.6,1.3-1,2.1-1.3c0.8-0.3,1.6-0.5,2.5-0.5s1.7,0.2,2.5,0.5c0.8,0.3,1.5,0.8,2.1,1.3
		c0.1,0.1,0.1,0.2,0.1,0.3c0,0.1,0,0.2-0.1,0.3c-0.1,0.1-0.2,0.1-0.3,0.1s-0.2,0-0.3-0.1c-0.5-0.5-1.1-0.9-1.8-1.2
		c-0.7-0.3-1.4-0.4-2.1-0.4s-1.4,0.1-2.1,0.4c-0.7,0.3-1.3,0.7-1.8,1.2c-0.5,0.5-0.9,1.1-1.2,1.7c-0.3,0.6-0.4,1.3-0.4,2
		s0.1,1.4,0.4,2c0.3,0.6,0.7,1.2,1.2,1.7c0.5,0.5,1.1,0.9,1.8,1.2s1.4,0.4,2.1,0.4s1.5-0.1,2.1-0.4c0.7-0.3,1.3-0.6,1.8-1.2
		c0.1-0.1,0.2-0.1,0.3-0.1s0.2,0,0.3,0.1c0.1,0.1,0.1,0.2,0.1,0.3c0,0.1,0,0.2-0.1,0.3c-0.6,0.6-1.3,1-2.1,1.3
		c-0.8,0.3-1.6,0.5-2.5,0.5s-1.7-0.2-2.5-0.5c-0.8-0.3-1.5-0.8-2.1-1.3c-0.6-0.6-1.1-1.3-1.4-2c-0.3-0.8-0.5-1.5-0.5-2.4
		c0-0.8,0.2-1.6,0.5-2.4C74.7,96.9,75.1,96.3,75.7,95.7z"/>
	<path class="st1" d="M88.3,94.2c0.1-0.1,0.2-0.1,0.3-0.1s0.2,0,0.3,0.1c0.1,0.1,0.1,0.2,0.1,0.3v11.1c0,0.1,0,0.2-0.1,0.3
		c-0.1,0.1-0.2,0.1-0.3,0.1s-0.2,0-0.3-0.1c-0.1-0.1-0.1-0.2-0.1-0.3V94.5C88.2,94.4,88.2,94.3,88.3,94.2z"/>
	<path class="st1" d="M104.2,105.4c0.1,0.1,0.1,0.2,0,0.3c0,0.1-0.1,0.2-0.2,0.2c-0.1,0.1-0.2,0.1-0.3,0c-0.1,0-0.2-0.1-0.3-0.2
		c-0.1-0.2-0.3-0.5-0.4-0.8c-0.1-0.3-0.3-0.5-0.5-0.9s-0.4-0.7-0.6-1.1h-8.2c-0.2,0.4-0.4,0.8-0.6,1.1s-0.3,0.6-0.5,0.9
		c-0.2,0.3-0.3,0.6-0.4,0.8c-0.1,0.1-0.1,0.2-0.3,0.2c-0.1,0-0.2,0-0.3,0c-0.1-0.1-0.2-0.1-0.2-0.2c0-0.1,0-0.2,0-0.3l6-11.1
		c0.1-0.2,0.2-0.2,0.4-0.2c0.2,0,0.3,0.1,0.4,0.2L104.2,105.4z M101.4,102.2c-0.4-0.7-0.7-1.4-1.1-2.1c-0.4-0.7-0.7-1.4-1.1-2
		c-0.3-0.6-0.6-1.2-0.9-1.6s-0.4-0.8-0.5-1c-0.1,0.2-0.3,0.5-0.5,1s-0.6,1-0.9,1.6c-0.3,0.6-0.7,1.3-1.1,2c-0.4,0.7-0.8,1.4-1.1,2.1
		H101.4z"/>
	<path class="st1" d="M107.7,95.7c0.6-0.6,1.3-1,2.1-1.3c0.8-0.3,1.6-0.5,2.5-0.5s1.7,0.2,2.5,0.5c0.8,0.3,1.5,0.8,2.1,1.3
		c0.1,0.1,0.1,0.2,0.1,0.3c0,0.1,0,0.2-0.1,0.3c-0.1,0.1-0.2,0.1-0.3,0.1s-0.2,0-0.3-0.1c-0.5-0.5-1.1-0.9-1.8-1.2
		c-0.7-0.3-1.4-0.4-2.1-0.4s-1.4,0.1-2.1,0.4c-0.7,0.3-1.3,0.7-1.8,1.2c-0.5,0.5-0.9,1.1-1.2,1.7c-0.3,0.6-0.4,1.3-0.4,2
		s0.1,1.4,0.4,2c0.3,0.6,0.7,1.2,1.2,1.7c0.5,0.5,1.1,0.9,1.8,1.2s1.4,0.4,2.1,0.4s1.5-0.1,2.1-0.4c0.7-0.3,1.3-0.6,1.8-1.2
		c0.1-0.1,0.2-0.1,0.3-0.1s0.2,0,0.3,0.1c0.1,0.1,0.1,0.2,0.1,0.3c0,0.1,0,0.2-0.1,0.3c-0.6,0.6-1.3,1-2.1,1.3
		c-0.8,0.3-1.6,0.5-2.5,0.5s-1.7-0.2-2.5-0.5c-0.8-0.3-1.5-0.8-2.1-1.3c-0.6-0.6-1.1-1.3-1.4-2c-0.3-0.8-0.5-1.5-0.5-2.4
		c0-0.8,0.2-1.6,0.5-2.4C106.6,96.9,107.1,96.3,107.7,95.7z"/>
	<path class="st1" d="M120.2,94.2c0.1-0.1,0.2-0.1,0.3-0.1s0.2,0,0.3,0.1c0.1,0.1,0.1,0.2,0.1,0.3v11.1c0,0.1,0,0.2-0.1,0.3
		c-0.1,0.1-0.2,0.1-0.3,0.1s-0.2,0-0.3-0.1c-0.1-0.1-0.1-0.2-0.1-0.3V94.5C120.1,94.4,120.2,94.3,120.2,94.2z"/>
	<path class="st1" d="M126.1,95.7c0.6-0.6,1.3-1,2.1-1.3c0.8-0.3,1.6-0.5,2.5-0.5s1.7,0.2,2.5,0.5c0.8,0.3,1.5,0.8,2.1,1.3
		c0.6,0.6,1.1,1.3,1.4,2c0.3,0.8,0.5,1.5,0.5,2.4c0,0.8-0.2,1.6-0.5,2.4c-0.3,0.8-0.8,1.4-1.4,2c-0.6,0.6-1.3,1-2.1,1.3
		c-0.8,0.3-1.6,0.5-2.5,0.5s-1.7-0.2-2.5-0.5c-0.8-0.3-1.5-0.8-2.1-1.3c-0.6-0.6-1.1-1.3-1.4-2s-0.5-1.5-0.5-2.4
		c0-0.8,0.2-1.6,0.5-2.4S125.5,96.3,126.1,95.7z M126.7,103.9c0.5,0.5,1.1,0.9,1.8,1.2c0.7,0.3,1.4,0.4,2.1,0.4s1.4-0.1,2.1-0.4
		c0.7-0.3,1.3-0.6,1.8-1.2c0.5-0.5,0.9-1.1,1.2-1.7c0.3-0.6,0.4-1.3,0.4-2s-0.1-1.4-0.4-2c-0.3-0.6-0.7-1.2-1.2-1.7
		c-0.5-0.5-1.1-0.9-1.8-1.2c-0.7-0.3-1.4-0.4-2.1-0.4s-1.5,0.1-2.1,0.4c-0.7,0.3-1.3,0.7-1.8,1.2c-0.5,0.5-0.9,1.1-1.2,1.7
		c-0.3,0.6-0.4,1.3-0.4,2s0.1,1.4,0.4,2C125.8,102.8,126.2,103.3,126.7,103.9z M132.5,90.3c0.1-0.1,0.2-0.1,0.3-0.1
		c0.1,0,0.2,0.1,0.3,0.2c0.1,0.1,0.1,0.2,0.1,0.3c0,0.1-0.1,0.2-0.2,0.3l-2.3,1.9c-0.1,0.1-0.2,0.1-0.3,0.1c-0.1,0-0.3-0.1-0.3-0.2
		c-0.1-0.1-0.1-0.2-0.1-0.3c0-0.1,0.1-0.2,0.2-0.3L132.5,90.3z"/>
	<path class="st1" d="M140.5,94.1c0.2-0.1,0.4,0,0.5,0.1c1.4,1.6,2.8,3.2,4,4.6c0.5,0.6,1,1.2,1.6,1.8c0.5,0.6,1,1.2,1.5,1.7
		c0.5,0.5,0.9,1,1.2,1.4c0.3,0.4,0.6,0.7,0.8,0.9v-9.9c0-0.1,0-0.2,0.1-0.3c0.1-0.1,0.2-0.1,0.3-0.1s0.2,0,0.3,0.1
		c0.1,0.1,0.1,0.2,0.1,0.3v11.1c0,0.2-0.1,0.3-0.3,0.4c-0.2,0.1-0.4,0-0.5-0.1c-1.4-1.6-2.8-3.2-4-4.6c-0.5-0.6-1-1.2-1.6-1.8
		s-1-1.1-1.5-1.7c-0.5-0.5-0.9-1-1.2-1.4s-0.6-0.7-0.8-0.9v9.9c0,0.1,0,0.2-0.1,0.3c-0.1,0.1-0.2,0.1-0.3,0.1c-0.1,0-0.2,0-0.3-0.1
		c-0.1-0.1-0.1-0.2-0.1-0.3V94.5C140.2,94.3,140.3,94.2,140.5,94.1z"/>
	<path class="st1" d="M167,94.1c0.6,0,1.1,0.1,1.6,0.3c0.5,0.2,0.9,0.5,1.3,0.8c0.4,0.3,0.7,0.8,0.9,1.2c0.2,0.5,0.3,1,0.3,1.5
		c0,0.5-0.1,1-0.3,1.5c-0.2,0.5-0.5,0.9-0.9,1.2c-0.4,0.3-0.8,0.6-1.3,0.8c-0.5,0.2-1,0.3-1.6,0.3h-5v3.8c0,0.1,0,0.2-0.1,0.3
		c-0.1,0.1-0.2,0.1-0.3,0.1s-0.2,0-0.3-0.1c-0.1-0.1-0.1-0.2-0.1-0.3V94.5c0-0.1,0-0.2,0.1-0.3c0.1-0.1,0.2-0.1,0.3-0.1H167z
		 M162,94.9v6h5c0.4,0,0.8-0.1,1.2-0.2c0.4-0.2,0.7-0.4,1-0.6s0.5-0.6,0.7-1c0.2-0.4,0.2-0.8,0.2-1.2s-0.1-0.8-0.2-1.2
		c-0.2-0.4-0.4-0.7-0.7-1s-0.6-0.5-1-0.6c-0.4-0.2-0.8-0.2-1.2-0.2H162z"/>
	<path class="st1" d="M183.8,105.4c0.1,0.1,0.1,0.2,0.1,0.3s-0.1,0.2-0.2,0.3c-0.1,0.1-0.2,0.1-0.3,0.1c-0.1,0-0.2-0.1-0.3-0.1
		l-3.9-4.1h-4.5v3.8c0,0.1,0,0.2-0.1,0.3c-0.1,0.1-0.2,0.1-0.3,0.1s-0.2,0-0.3-0.1c-0.1-0.1-0.1-0.2-0.1-0.3V94.5
		c0-0.1,0-0.2,0.1-0.3c0.1-0.1,0.2-0.1,0.3-0.1h5.4c0.6,0,1.1,0.1,1.6,0.3c0.5,0.2,0.9,0.5,1.3,0.8s0.6,0.8,0.9,1.2s0.3,1,0.3,1.5
		c0,0.5-0.1,0.9-0.3,1.4s-0.4,0.8-0.7,1.1c-0.3,0.3-0.7,0.6-1.1,0.8c-0.4,0.2-0.8,0.4-1.3,0.5L183.8,105.4z M174.7,101h5
		c0.4,0,0.8-0.1,1.2-0.2c0.4-0.2,0.7-0.4,1-0.6s0.5-0.6,0.7-1c0.2-0.4,0.2-0.8,0.2-1.2s-0.1-0.8-0.2-1.2c-0.2-0.4-0.4-0.7-0.7-1
		s-0.6-0.5-1-0.6c-0.4-0.2-0.8-0.2-1.2-0.2h-5V101z"/>
	<path class="st1" d="M188.3,95.7c0.6-0.6,1.3-1,2.1-1.3c0.8-0.3,1.6-0.5,2.5-0.5c0.9,0,1.7,0.2,2.5,0.5c0.8,0.3,1.5,0.8,2.1,1.3
		c0.6,0.6,1.1,1.3,1.4,2c0.3,0.8,0.5,1.5,0.5,2.4c0,0.8-0.2,1.6-0.5,2.4c-0.3,0.8-0.8,1.4-1.4,2c-0.6,0.6-1.3,1-2.1,1.3
		c-0.8,0.3-1.6,0.5-2.5,0.5c-0.9,0-1.7-0.2-2.5-0.5c-0.8-0.3-1.5-0.8-2.1-1.3c-0.6-0.6-1.1-1.3-1.4-2s-0.5-1.5-0.5-2.4
		c0-0.8,0.2-1.6,0.5-2.4S187.6,96.3,188.3,95.7z M188.9,103.9c0.5,0.5,1.1,0.9,1.8,1.2c0.7,0.3,1.4,0.4,2.1,0.4s1.4-0.1,2.1-0.4
		c0.7-0.3,1.3-0.6,1.8-1.2s0.9-1.1,1.2-1.7c0.3-0.6,0.4-1.3,0.4-2s-0.1-1.4-0.4-2c-0.3-0.6-0.7-1.2-1.2-1.7
		c-0.5-0.5-1.1-0.9-1.8-1.2c-0.7-0.3-1.4-0.4-2.1-0.4s-1.5,0.1-2.1,0.4c-0.7,0.3-1.3,0.7-1.8,1.2c-0.5,0.5-0.9,1.1-1.2,1.7
		c-0.3,0.6-0.4,1.3-0.4,2s0.1,1.4,0.4,2C187.9,102.8,188.3,103.3,188.9,103.9z"/>
	<path class="st1" d="M208.3,94.1c0.6,0,1.1,0.1,1.6,0.3c0.5,0.2,0.9,0.5,1.3,0.8c0.4,0.3,0.7,0.8,0.9,1.2c0.2,0.5,0.3,1,0.3,1.5
		c0,0.5-0.1,1-0.3,1.5c-0.2,0.5-0.5,0.9-0.9,1.2c-0.4,0.3-0.8,0.6-1.3,0.8c-0.5,0.2-1,0.3-1.6,0.3h-5v3.8c0,0.1,0,0.2-0.1,0.3
		c-0.1,0.1-0.2,0.1-0.3,0.1c-0.1,0-0.2,0-0.3-0.1c-0.1-0.1-0.1-0.2-0.1-0.3V94.5c0-0.1,0-0.2,0.1-0.3c0.1-0.1,0.2-0.1,0.3-0.1H208.3
		z M203.3,94.9v6h5c0.4,0,0.8-0.1,1.2-0.2c0.4-0.2,0.7-0.4,1-0.6s0.5-0.6,0.7-1c0.2-0.4,0.2-0.8,0.2-1.2s-0.1-0.8-0.2-1.2
		c-0.2-0.4-0.4-0.7-0.7-1s-0.6-0.5-1-0.6c-0.4-0.2-0.8-0.2-1.2-0.2H203.3z"/>
	<path class="st1" d="M215.2,94.2c0.1-0.1,0.2-0.1,0.3-0.1c0.1,0,0.2,0,0.3,0.1c0.1,0.1,0.1,0.2,0.1,0.3v11.1c0,0.1,0,0.2-0.1,0.3
		c-0.1,0.1-0.2,0.1-0.3,0.1c-0.1,0-0.2,0-0.3-0.1c-0.1-0.1-0.1-0.2-0.1-0.3V94.5C215.1,94.4,215.1,94.3,215.2,94.2z"/>
	<path class="st1" d="M231.1,105.4c0.1,0.1,0.1,0.2,0,0.3c0,0.1-0.1,0.2-0.2,0.2c-0.1,0.1-0.2,0.1-0.3,0s-0.2-0.1-0.3-0.2
		c-0.1-0.2-0.3-0.5-0.4-0.8c-0.1-0.3-0.3-0.5-0.5-0.9s-0.4-0.7-0.6-1.1h-8.2c-0.2,0.4-0.4,0.8-0.6,1.1c-0.2,0.3-0.3,0.6-0.5,0.9
		c-0.2,0.3-0.3,0.6-0.4,0.8c-0.1,0.1-0.1,0.2-0.3,0.2c-0.1,0-0.2,0-0.3,0s-0.2-0.1-0.2-0.2c0-0.1,0-0.2,0-0.3l6-11.1
		c0.1-0.2,0.2-0.2,0.4-0.2c0.2,0,0.3,0.1,0.4,0.2L231.1,105.4z M228.4,102.2c-0.4-0.7-0.7-1.4-1.1-2.1c-0.4-0.7-0.7-1.4-1.1-2
		c-0.3-0.6-0.6-1.2-0.9-1.6s-0.4-0.8-0.5-1c-0.1,0.2-0.3,0.5-0.5,1c-0.3,0.5-0.6,1-0.9,1.6c-0.3,0.6-0.7,1.3-1.1,2
		c-0.4,0.7-0.8,1.4-1.1,2.1H228.4z"/>
	<path class="st1" d="M248.9,105.3c0.1,0.1,0.1,0.2,0.1,0.3c0,0.1,0,0.2-0.1,0.3c-0.1,0.1-0.2,0.1-0.3,0.1h-8.3
		c-0.1,0-0.2,0-0.3-0.1c-0.1-0.1-0.1-0.2-0.1-0.3V94.5c0-0.1,0-0.2,0.1-0.3c0.1-0.1,0.2-0.1,0.3-0.1h8.3c0.1,0,0.2,0,0.3,0.1
		c0.1,0.1,0.1,0.2,0.1,0.3c0,0.1,0,0.2-0.1,0.3c-0.1,0.1-0.2,0.1-0.3,0.1h-7.8v4.7h6.8c0.1,0,0.2,0,0.3,0.1c0.1,0.1,0.1,0.2,0.1,0.3
		c0,0.1,0,0.2-0.1,0.3c-0.1,0.1-0.2,0.1-0.3,0.1h-6.8v4.7h7.8C248.7,105.2,248.8,105.2,248.9,105.3z"/>
	<path class="st1" d="M252.5,94.1c0.2-0.1,0.4,0,0.5,0.1c1.4,1.6,2.8,3.2,4,4.6c0.5,0.6,1,1.2,1.6,1.8c0.5,0.6,1,1.2,1.5,1.7
		c0.5,0.5,0.9,1,1.2,1.4c0.3,0.4,0.6,0.7,0.8,0.9v-9.9c0-0.1,0-0.2,0.1-0.3c0.1-0.1,0.2-0.1,0.3-0.1c0.1,0,0.2,0,0.3,0.1
		c0.1,0.1,0.1,0.2,0.1,0.3v11.1c0,0.2-0.1,0.3-0.3,0.4c-0.2,0.1-0.4,0-0.5-0.1c-1.4-1.6-2.8-3.2-4-4.6c-0.5-0.6-1-1.2-1.6-1.8
		c-0.5-0.6-1-1.1-1.5-1.7c-0.5-0.5-0.9-1-1.2-1.4s-0.6-0.7-0.8-0.9v9.9c0,0.1,0,0.2-0.1,0.3c-0.1,0.1-0.2,0.1-0.3,0.1
		c-0.1,0-0.2,0-0.3-0.1c-0.1-0.1-0.1-0.2-0.1-0.3V94.5C252.2,94.3,252.3,94.2,252.5,94.1z"/>
	<path class="st1" d="M274.2,95.7c0.6-0.6,1.3-1,2.1-1.3c0.8-0.3,1.6-0.5,2.5-0.5c0.9,0,1.7,0.2,2.5,0.5c0.8,0.3,1.5,0.8,2.1,1.3
		c0.1,0.1,0.1,0.2,0.1,0.3c0,0.1,0,0.2-0.1,0.3c-0.1,0.1-0.2,0.1-0.3,0.1s-0.2,0-0.3-0.1c-0.5-0.5-1.1-0.9-1.8-1.2
		c-0.7-0.3-1.4-0.4-2.1-0.4c-0.7,0-1.4,0.1-2.1,0.4c-0.7,0.3-1.3,0.7-1.8,1.2c-0.5,0.5-0.9,1.1-1.2,1.7c-0.3,0.6-0.4,1.3-0.4,2
		s0.1,1.4,0.4,2c0.3,0.6,0.7,1.2,1.2,1.7s1.1,0.9,1.8,1.2c0.7,0.3,1.4,0.4,2.1,0.4c0.7,0,1.4-0.1,2-0.4c0.6-0.2,1.2-0.6,1.7-1.1
		v-3.5c0-0.1,0-0.2,0.1-0.3s0.2-0.1,0.3-0.1c0.1,0,0.2,0,0.3,0.1c0.1,0.1,0.1,0.2,0.1,0.3v3.7c0,0.1,0,0.2-0.1,0.3
		c-0.6,0.6-1.3,1-2.1,1.3c-0.8,0.3-1.6,0.5-2.5,0.5c-0.9,0-1.7-0.2-2.5-0.5c-0.8-0.3-1.5-0.8-2.1-1.3c-0.6-0.6-1.1-1.3-1.4-2
		s-0.5-1.5-0.5-2.4c0-0.8,0.2-1.6,0.5-2.4S273.6,96.3,274.2,95.7z"/>
	<path class="st1" d="M297.6,94.2c0.1-0.1,0.2-0.1,0.3-0.1c0.1,0,0.2,0,0.3,0.1c0.1,0.1,0.1,0.2,0.1,0.3v6.1c0,0.8-0.1,1.5-0.4,2.2
		s-0.7,1.3-1.3,1.8c-0.6,0.5-1.2,0.9-1.9,1.2s-1.5,0.4-2.2,0.4c-0.8,0-1.5-0.1-2.2-0.4s-1.3-0.7-1.9-1.2c-0.6-0.5-1-1.2-1.3-1.8
		s-0.4-1.4-0.4-2.2v-6.1c0-0.1,0-0.2,0.1-0.3c0.1-0.1,0.2-0.1,0.3-0.1s0.2,0,0.3,0.1c0.1,0.1,0.1,0.2,0.1,0.3v6.1
		c0,0.6,0.1,1.3,0.4,1.8c0.2,0.6,0.6,1.1,1.1,1.5c0.5,0.5,1,0.8,1.6,1c0.6,0.2,1.2,0.4,1.9,0.4c0.7,0,1.3-0.1,1.9-0.4
		c0.6-0.2,1.1-0.6,1.6-1c0.5-0.5,0.8-1,1.1-1.5c0.3-0.6,0.4-1.2,0.4-1.8v-6.1C297.5,94.4,297.5,94.3,297.6,94.2z"/>
	<path class="st1" d="M313.3,105.4c0.1,0.1,0.1,0.2,0,0.3c0,0.1-0.1,0.2-0.2,0.2c-0.1,0.1-0.2,0.1-0.3,0s-0.2-0.1-0.3-0.2
		c-0.1-0.2-0.3-0.5-0.4-0.8c-0.1-0.3-0.3-0.5-0.5-0.9s-0.4-0.7-0.6-1.1h-8.2c-0.2,0.4-0.4,0.8-0.6,1.1c-0.2,0.3-0.3,0.6-0.5,0.9
		c-0.2,0.3-0.3,0.6-0.4,0.8c-0.1,0.1-0.1,0.2-0.3,0.2c-0.1,0-0.2,0-0.3,0s-0.2-0.1-0.2-0.2c0-0.1,0-0.2,0-0.3l6-11.1
		c0.1-0.2,0.2-0.2,0.4-0.2c0.2,0,0.3,0.1,0.4,0.2L313.3,105.4z M310.6,102.2c-0.4-0.7-0.7-1.4-1.1-2.1c-0.4-0.7-0.7-1.4-1.1-2
		c-0.3-0.6-0.6-1.2-0.9-1.6s-0.4-0.8-0.5-1c-0.1,0.2-0.3,0.5-0.5,1c-0.3,0.5-0.6,1-0.9,1.6c-0.3,0.6-0.7,1.3-1.1,2
		c-0.4,0.7-0.8,1.4-1.1,2.1H310.6z"/>
	<path class="st1" d="M325.7,105.4c0.1,0.1,0.1,0.2,0.1,0.3s-0.1,0.2-0.2,0.3c-0.1,0.1-0.2,0.1-0.3,0.1c-0.1,0-0.2-0.1-0.3-0.1
		l-3.9-4.1h-4.5v3.8c0,0.1,0,0.2-0.1,0.3c-0.1,0.1-0.2,0.1-0.3,0.1c-0.1,0-0.2,0-0.3-0.1c-0.1-0.1-0.1-0.2-0.1-0.3V94.5
		c0-0.1,0-0.2,0.1-0.3c0.1-0.1,0.2-0.1,0.3-0.1h5.4c0.6,0,1.1,0.1,1.6,0.3c0.5,0.2,0.9,0.5,1.3,0.8c0.4,0.3,0.6,0.8,0.9,1.2
		c0.2,0.5,0.3,1,0.3,1.5c0,0.5-0.1,0.9-0.3,1.4c-0.2,0.4-0.4,0.8-0.7,1.1s-0.7,0.6-1.1,0.8s-0.8,0.4-1.3,0.5L325.7,105.4z
		 M316.6,101h5c0.4,0,0.8-0.1,1.2-0.2c0.4-0.2,0.7-0.4,1-0.6s0.5-0.6,0.7-1c0.2-0.4,0.2-0.8,0.2-1.2s-0.1-0.8-0.2-1.2
		c-0.2-0.4-0.4-0.7-0.7-1s-0.6-0.5-1-0.6c-0.4-0.2-0.8-0.2-1.2-0.2h-5V101z"/>
	<path class="st1" d="M340.2,105.4c0.1,0.1,0.1,0.2,0,0.3c0,0.1-0.1,0.2-0.2,0.2c-0.1,0.1-0.2,0.1-0.3,0s-0.2-0.1-0.3-0.2
		c-0.1-0.2-0.3-0.5-0.4-0.8c-0.1-0.3-0.3-0.5-0.5-0.9s-0.4-0.7-0.6-1.1h-8.2c-0.2,0.4-0.4,0.8-0.6,1.1c-0.2,0.3-0.3,0.6-0.5,0.9
		c-0.2,0.3-0.3,0.6-0.4,0.8c-0.1,0.1-0.1,0.2-0.3,0.2c-0.1,0-0.2,0-0.3,0s-0.2-0.1-0.2-0.2c0-0.1,0-0.2,0-0.3l6-11.1
		c0.1-0.2,0.2-0.2,0.4-0.2c0.2,0,0.3,0.1,0.4,0.2L340.2,105.4z M337.5,102.2c-0.4-0.7-0.7-1.4-1.1-2.1c-0.4-0.7-0.7-1.4-1.1-2
		c-0.3-0.6-0.6-1.2-0.9-1.6s-0.4-0.8-0.5-1c-0.1,0.2-0.3,0.5-0.5,1c-0.3,0.5-0.6,1-0.9,1.6c-0.3,0.6-0.7,1.3-1.1,2
		c-0.4,0.7-0.8,1.4-1.1,2.1H337.5z"/>
	<path class="st1" d="M342.9,94.1c0.2-0.1,0.4,0,0.5,0.1c1.4,1.6,2.8,3.2,4,4.6c0.5,0.6,1,1.2,1.6,1.8c0.5,0.6,1,1.2,1.5,1.7
		c0.5,0.5,0.9,1,1.2,1.4c0.3,0.4,0.6,0.7,0.8,0.9v-9.9c0-0.1,0-0.2,0.1-0.3c0.1-0.1,0.2-0.1,0.3-0.1c0.1,0,0.2,0,0.3,0.1
		c0.1,0.1,0.1,0.2,0.1,0.3v11.1c0,0.2-0.1,0.3-0.3,0.4c-0.2,0.1-0.4,0-0.5-0.1c-1.4-1.6-2.8-3.2-4-4.6c-0.5-0.6-1-1.2-1.6-1.8
		c-0.5-0.6-1-1.1-1.5-1.7c-0.5-0.5-0.9-1-1.2-1.4s-0.6-0.7-0.8-0.9v9.9c0,0.1,0,0.2-0.1,0.3c-0.1,0.1-0.2,0.1-0.3,0.1
		c-0.1,0-0.2,0-0.3-0.1c-0.1-0.1-0.1-0.2-0.1-0.3V94.5C342.6,94.3,342.7,94.2,342.9,94.1z"/>
	<path class="st1" d="M359.4,90.3c0.1-0.1,0.2-0.1,0.3-0.1c0.1,0,0.2,0.1,0.3,0.2c0.1,0.1,0.1,0.2,0.1,0.3c0,0.1-0.1,0.2-0.2,0.3
		l-2.3,1.9c-0.1,0.1-0.2,0.1-0.3,0.1c-0.1,0-0.3-0.1-0.3-0.2c-0.1-0.1-0.1-0.2-0.1-0.3c0-0.1,0.1-0.2,0.2-0.3L359.4,90.3z
		 M357.1,94.5c0-0.1,0-0.2,0.1-0.3c0.1-0.1,0.2-0.1,0.3-0.1c0.1,0,0.2,0,0.3,0.1c0.1,0.1,0.1,0.2,0.1,0.3v11.1c0,0.1,0,0.2-0.1,0.3
		c-0.1,0.1-0.2,0.1-0.3,0.1c-0.1,0-0.2,0-0.3-0.1c-0.1-0.1-0.1-0.2-0.1-0.3V94.5z"/>
	<path class="st1" d="M370.9,105.3c0.1,0.1,0.1,0.2,0.1,0.3c0,0.1,0,0.2-0.1,0.3c-0.1,0.1-0.2,0.1-0.3,0.1h-8.3
		c-0.1,0-0.2,0-0.3-0.1c-0.1-0.1-0.1-0.2-0.1-0.3V94.5c0-0.1,0-0.2,0.1-0.3c0.1-0.1,0.2-0.1,0.3-0.1h8.3c0.1,0,0.2,0,0.3,0.1
		c0.1,0.1,0.1,0.2,0.1,0.3c0,0.1,0,0.2-0.1,0.3c-0.1,0.1-0.2,0.1-0.3,0.1h-7.8v4.7h6.8c0.1,0,0.2,0,0.3,0.1c0.1,0.1,0.1,0.2,0.1,0.3
		c0,0.1,0,0.2-0.1,0.3c-0.1,0.1-0.2,0.1-0.3,0.1h-6.8v4.7h7.8C370.7,105.2,370.8,105.2,370.9,105.3z"/>
	<path class="st1" d="M375.3,94.6c0.8-0.5,1.7-0.8,2.9-0.8c0.6,0,1.3,0.1,2,0.2c0.7,0.1,1.2,0.3,1.7,0.5c0.1,0,0.2,0.1,0.2,0.2
		c0,0.1,0,0.2,0,0.3c-0.1,0.1-0.1,0.2-0.3,0.2s-0.2,0-0.3,0c-0.4-0.2-0.9-0.3-1.5-0.4c-0.6-0.1-1.2-0.2-1.8-0.2
		c-0.5,0-1,0.1-1.4,0.2c-0.4,0.1-0.8,0.3-1.1,0.4c-0.6,0.4-0.9,1-0.9,1.7c0,0.6,0.3,1.1,0.9,1.5c0.6,0.4,1.4,0.6,2.5,0.8
		c1.5,0.2,2.7,0.6,3.5,1.2c0.8,0.6,1.2,1.4,1.2,2.3c0,1.1-0.5,2-1.5,2.6c-0.9,0.6-2,0.9-3.3,0.9c-1.7,0-3.2-0.4-4.4-1.3
		c-0.1-0.1-0.2-0.2-0.2-0.3c0-0.1,0-0.2,0.1-0.3c0.1-0.1,0.2-0.1,0.3-0.2c0.1,0,0.2,0,0.3,0.1c1,0.8,2.3,1.1,3.8,1.1
		c0.6,0,1.1-0.1,1.6-0.2c0.5-0.1,0.9-0.3,1.3-0.5c0.7-0.5,1.1-1.1,1.1-1.9c0-0.7-0.4-1.3-1.1-1.7c-0.3-0.2-0.8-0.4-1.2-0.6
		c-0.5-0.1-1-0.3-1.7-0.4c-1.2-0.2-2.2-0.5-2.8-0.9c-0.4-0.3-0.7-0.6-1-0.9c-0.2-0.4-0.4-0.8-0.4-1.3C374,96,374.4,95.2,375.3,94.6z
		"/>
</g>
<g>
	<path class="st1" d="M15.4,247.1c0.1-0.1,0.2-0.1,0.3-0.1c0.1,0,0.2,0,0.3,0.1c0.1,0.1,0.1,0.2,0.1,0.3v10h7.3c0.1,0,0.2,0,0.3,0.1
		c0.1,0.1,0.1,0.2,0.1,0.3c0,0.1,0,0.2-0.1,0.3c-0.1,0.1-0.2,0.1-0.3,0.1h-7.8c-0.1,0-0.2,0-0.3-0.1c-0.1-0.1-0.1-0.2-0.1-0.3v-10.4
		C15.3,247.3,15.3,247.2,15.4,247.1z"/>
	<path class="st1" d="M36.4,257.6c0.1,0.1,0.1,0.2,0,0.3s-0.1,0.2-0.2,0.2c-0.1,0.1-0.2,0.1-0.3,0c-0.1,0-0.2-0.1-0.2-0.2
		c-0.1-0.2-0.3-0.5-0.4-0.8c-0.1-0.2-0.3-0.5-0.4-0.8c-0.2-0.3-0.4-0.7-0.6-1h-7.7c-0.2,0.4-0.4,0.7-0.6,1c-0.2,0.3-0.3,0.6-0.4,0.8
		c-0.1,0.3-0.3,0.5-0.4,0.8c-0.1,0.1-0.1,0.2-0.2,0.2c-0.1,0-0.2,0-0.3,0c-0.1-0.1-0.2-0.1-0.2-0.2c0-0.1,0-0.2,0-0.3l5.6-10.4
		c0.1-0.1,0.2-0.2,0.4-0.2c0.2,0,0.3,0.1,0.4,0.2L36.4,257.6z M33.8,254.6c-0.3-0.6-0.7-1.3-1.1-2c-0.4-0.7-0.7-1.3-1-1.9
		c-0.3-0.6-0.6-1.1-0.8-1.5s-0.4-0.8-0.5-0.9c-0.1,0.2-0.3,0.5-0.5,0.9s-0.5,1-0.8,1.5c-0.3,0.6-0.7,1.2-1,1.9
		c-0.4,0.7-0.7,1.3-1.1,2H33.8z"/>
	<path class="st1" d="M55.8,247.2c0.1-0.1,0.3-0.2,0.4-0.1c0.1,0,0.2,0.1,0.2,0.1c0,0.1,0.1,0.1,0.1,0.2v10.4c0,0.1,0,0.2-0.1,0.3
		c-0.1,0.1-0.2,0.1-0.3,0.1c-0.1,0-0.2,0-0.3-0.1c-0.1-0.1-0.1-0.2-0.1-0.3v-9.3c-0.1,0.2-0.3,0.4-0.5,0.6c-0.2,0.3-0.4,0.5-0.7,0.8
		c-0.2,0.3-0.5,0.6-0.8,1c-0.3,0.3-0.5,0.7-0.8,1c-0.6,0.8-1.3,1.6-2,2.4c-0.1,0.1-0.2,0.1-0.3,0.1s-0.3,0-0.3-0.1
		c-0.7-0.9-1.4-1.7-2-2.4c-0.3-0.3-0.5-0.6-0.8-1c-0.3-0.3-0.5-0.7-0.8-1c-0.2-0.3-0.5-0.6-0.7-0.8c-0.2-0.3-0.4-0.5-0.5-0.6v9.3
		c0,0.1,0,0.2-0.1,0.3c-0.1,0.1-0.2,0.1-0.3,0.1c-0.1,0-0.2,0-0.3-0.1c-0.1-0.1-0.1-0.2-0.1-0.3v-10.4c0-0.1,0-0.2,0.1-0.2
		c0-0.1,0.1-0.1,0.2-0.1c0.2-0.1,0.3,0,0.5,0.1c0.9,1.1,1.7,2,2.4,2.9c0.3,0.4,0.6,0.7,0.9,1.1s0.6,0.7,0.8,1
		c0.3,0.3,0.5,0.6,0.7,0.8c0.2,0.2,0.3,0.4,0.4,0.5c0.1-0.1,0.2-0.2,0.4-0.5c0.2-0.2,0.4-0.5,0.7-0.8c0.3-0.3,0.5-0.7,0.8-1
		c0.3-0.4,0.6-0.7,0.9-1.1C54.2,249.2,55,248.2,55.8,247.2z"/>
	<path class="st1" d="M68.7,257.5c0.1,0.1,0.1,0.2,0.1,0.3c0,0.1,0,0.2-0.1,0.3c-0.1,0.1-0.2,0.1-0.3,0.1h-7.8c-0.1,0-0.2,0-0.3-0.1
		c-0.1-0.1-0.1-0.2-0.1-0.3v-10.4c0-0.1,0-0.2,0.1-0.3s0.2-0.1,0.3-0.1h7.8c0.1,0,0.2,0,0.3,0.1c0.1,0.1,0.1,0.2,0.1,0.3
		c0,0.1,0,0.2-0.1,0.3c-0.1,0.1-0.2,0.1-0.3,0.1h-7.3v4.4h6.4c0.1,0,0.2,0,0.3,0.1c0.1,0.1,0.1,0.2,0.1,0.3c0,0.1,0,0.2-0.1,0.3
		c-0.1,0.1-0.2,0.1-0.3,0.1h-6.4v4.4h7.3C68.5,257.4,68.6,257.4,68.7,257.5z"/>
	<path class="st1" d="M76.6,247.1c0.1-0.1,0.2-0.1,0.3-0.1c0.1,0,0.2,0,0.3,0.1s0.1,0.2,0.1,0.3v7.4c0,0.5-0.1,1-0.3,1.4
		c-0.2,0.4-0.5,0.8-0.8,1.2s-0.8,0.6-1.2,0.8s-1,0.3-1.5,0.3c-0.5,0-1-0.1-1.5-0.3c-0.5-0.2-0.9-0.4-1.2-0.8
		c-0.1-0.1-0.1-0.2-0.1-0.3s0-0.2,0.1-0.3c0.1-0.1,0.2-0.1,0.3-0.1s0.2,0,0.3,0.1c0.3,0.3,0.6,0.5,1,0.6c0.4,0.1,0.7,0.2,1.1,0.2
		c0.4,0,0.8-0.1,1.2-0.2c0.4-0.1,0.7-0.4,1-0.6c0.3-0.3,0.5-0.6,0.6-0.9c0.2-0.3,0.2-0.7,0.2-1.1v-7.4
		C76.5,247.3,76.5,247.2,76.6,247.1z"/>
	<path class="st1" d="M82.1,248.5c0.6-0.5,1.2-1,2-1.3s1.5-0.4,2.3-0.4c0.8,0,1.6,0.1,2.3,0.4c0.7,0.3,1.4,0.7,2,1.3
		c0.6,0.6,1,1.2,1.3,1.9c0.3,0.7,0.5,1.4,0.5,2.2c0,0.8-0.2,1.5-0.5,2.2c-0.3,0.7-0.7,1.3-1.3,1.9c-0.6,0.6-1.2,1-2,1.3
		c-0.7,0.3-1.5,0.4-2.3,0.4c-0.8,0-1.6-0.1-2.3-0.4c-0.7-0.3-1.4-0.7-2-1.3c-0.6-0.6-1-1.2-1.3-1.9c-0.3-0.7-0.4-1.4-0.4-2.2
		c0-0.8,0.1-1.5,0.4-2.2C81,249.7,81.5,249,82.1,248.5z M82.6,256.2c0.5,0.5,1.1,0.8,1.7,1.1c0.6,0.2,1.3,0.4,2,0.4
		c0.7,0,1.4-0.1,2-0.4c0.6-0.2,1.2-0.6,1.7-1.1c0.5-0.5,0.9-1,1.1-1.6c0.3-0.6,0.4-1.2,0.4-1.9s-0.1-1.3-0.4-1.9
		c-0.3-0.6-0.6-1.1-1.1-1.6c-0.5-0.5-1.1-0.8-1.7-1.1s-1.3-0.4-2-0.4c-0.7,0-1.4,0.1-2,0.4c-0.6,0.3-1.2,0.6-1.7,1.1
		c-0.5,0.5-0.9,1-1.1,1.6s-0.4,1.2-0.4,1.9s0.1,1.3,0.4,1.9C81.8,255.1,82.1,255.7,82.6,256.2z"/>
	<path class="st1" d="M104.7,257.6c0.1,0.1,0.1,0.2,0.1,0.3s-0.1,0.2-0.1,0.3c-0.1,0.1-0.2,0.1-0.3,0.1c-0.1,0-0.2-0.1-0.3-0.1
		l-3.7-3.9h-4.2v3.5c0,0.1,0,0.2-0.1,0.3c-0.1,0.1-0.2,0.1-0.3,0.1c-0.1,0-0.2,0-0.3-0.1c-0.1-0.1-0.1-0.2-0.1-0.3v-10.4
		c0-0.1,0-0.2,0.1-0.3s0.2-0.1,0.3-0.1h5.1c0.5,0,1,0.1,1.5,0.3c0.5,0.2,0.9,0.5,1.2,0.8c0.3,0.3,0.6,0.7,0.8,1.2
		c0.2,0.4,0.3,0.9,0.3,1.4c0,0.4-0.1,0.9-0.2,1.3s-0.4,0.8-0.7,1.1c-0.3,0.3-0.6,0.6-1,0.8c-0.4,0.2-0.8,0.4-1.2,0.4L104.7,257.6z
		 M96.2,253.5h4.7c0.4,0,0.8-0.1,1.1-0.2c0.4-0.2,0.7-0.4,0.9-0.6c0.3-0.3,0.5-0.6,0.6-0.9c0.2-0.3,0.2-0.7,0.2-1.1
		c0-0.4-0.1-0.8-0.2-1.1c-0.2-0.3-0.4-0.6-0.6-0.9c-0.3-0.3-0.6-0.5-0.9-0.6c-0.4-0.1-0.7-0.2-1.1-0.2h-4.7V253.5z"/>
	<path class="st1" d="M122.3,247.1c0.1,0.1,0.1,0.2,0.1,0.3c0,0.1,0,0.2-0.1,0.3c-0.1,0.1-0.2,0.1-0.3,0.1h-7.3v4.4h6.4
		c0.1,0,0.2,0,0.3,0.1c0.1,0.1,0.1,0.2,0.1,0.3c0,0.1,0,0.2-0.1,0.3c-0.1,0.1-0.2,0.1-0.3,0.1h-6.4v4.8c0,0.1,0,0.2-0.1,0.3
		c-0.1,0.1-0.2,0.1-0.3,0.1c-0.1,0-0.2,0-0.3-0.1c-0.1-0.1-0.1-0.2-0.1-0.3v-10.4c0-0.1,0-0.2,0.1-0.3s0.2-0.1,0.3-0.1h7.8
		C122.1,247,122.2,247,122.3,247.1z"/>
	<path class="st1" d="M124.9,247.1c0.1-0.1,0.2-0.1,0.3-0.1c0.1,0,0.2,0,0.3,0.1c0.1,0.1,0.1,0.2,0.1,0.3v10.4c0,0.1,0,0.2-0.1,0.3
		c-0.1,0.1-0.2,0.1-0.3,0.1c-0.1,0-0.2,0-0.3-0.1c-0.1-0.1-0.1-0.2-0.1-0.3v-10.4C124.7,247.3,124.8,247.2,124.9,247.1z"/>
	<path class="st1" d="M129.5,247c0.2-0.1,0.3,0,0.4,0.1c1.4,1.5,2.6,3,3.8,4.3c0.5,0.6,1,1.1,1.5,1.7c0.5,0.6,0.9,1.1,1.4,1.6
		c0.4,0.5,0.8,0.9,1.1,1.3c0.3,0.4,0.6,0.6,0.7,0.8v-9.3c0-0.1,0-0.2,0.1-0.3c0.1-0.1,0.2-0.1,0.3-0.1s0.2,0,0.3,0.1
		s0.1,0.2,0.1,0.3v10.4c0,0.2-0.1,0.3-0.3,0.4c-0.2,0.1-0.3,0-0.5-0.1c-1.4-1.5-2.6-3-3.7-4.3c-0.5-0.6-1-1.1-1.5-1.7
		c-0.5-0.6-0.9-1.1-1.4-1.6c-0.4-0.5-0.8-0.9-1.1-1.3c-0.3-0.4-0.6-0.6-0.7-0.8v9.3c0,0.1,0,0.2-0.1,0.3c-0.1,0.1-0.2,0.1-0.3,0.1
		c-0.1,0-0.2,0-0.3-0.1c-0.1-0.1-0.1-0.2-0.1-0.3v-10.4C129.2,247.2,129.3,247.1,129.5,247z"/>
	<path class="st1" d="M153.4,257.6c0.1,0.1,0.1,0.2,0,0.3s-0.1,0.2-0.2,0.2c-0.1,0.1-0.2,0.1-0.3,0c-0.1,0-0.2-0.1-0.2-0.2
		c-0.1-0.2-0.3-0.5-0.4-0.8c-0.1-0.2-0.3-0.5-0.4-0.8c-0.2-0.3-0.4-0.7-0.6-1h-7.7c-0.2,0.4-0.4,0.7-0.6,1c-0.2,0.3-0.3,0.6-0.4,0.8
		c-0.1,0.3-0.3,0.5-0.4,0.8c-0.1,0.1-0.1,0.2-0.2,0.2c-0.1,0-0.2,0-0.3,0c-0.1-0.1-0.2-0.1-0.2-0.2c0-0.1,0-0.2,0-0.3l5.6-10.4
		c0.1-0.1,0.2-0.2,0.4-0.2c0.2,0,0.3,0.1,0.4,0.2L153.4,257.6z M150.8,254.6c-0.3-0.6-0.7-1.3-1.1-2c-0.4-0.7-0.7-1.3-1-1.9
		c-0.3-0.6-0.6-1.1-0.8-1.5s-0.4-0.8-0.5-0.9c-0.1,0.2-0.3,0.5-0.5,0.9s-0.5,1-0.8,1.5c-0.3,0.6-0.7,1.2-1,1.9
		c-0.4,0.7-0.7,1.3-1.1,2H150.8z"/>
	<path class="st1" d="M155.9,247c0.2-0.1,0.3,0,0.4,0.1c1.4,1.5,2.6,3,3.8,4.3c0.5,0.6,1,1.1,1.5,1.7c0.5,0.6,0.9,1.1,1.4,1.6
		c0.4,0.5,0.8,0.9,1.1,1.3c0.3,0.4,0.6,0.6,0.7,0.8v-9.3c0-0.1,0-0.2,0.1-0.3c0.1-0.1,0.2-0.1,0.3-0.1s0.2,0,0.3,0.1
		s0.1,0.2,0.1,0.3v10.4c0,0.2-0.1,0.3-0.3,0.4c-0.2,0.1-0.3,0-0.5-0.1c-1.4-1.5-2.6-3-3.7-4.3c-0.5-0.6-1-1.1-1.5-1.7
		c-0.5-0.6-0.9-1.1-1.4-1.6c-0.4-0.5-0.8-0.9-1.1-1.3c-0.3-0.4-0.6-0.6-0.7-0.8v9.3c0,0.1,0,0.2-0.1,0.3c-0.1,0.1-0.2,0.1-0.3,0.1
		c-0.1,0-0.2,0-0.3-0.1c-0.1-0.1-0.1-0.2-0.1-0.3v-10.4C155.6,247.2,155.7,247.1,155.9,247z"/>
	<path class="st1" d="M170.3,248.5c0.6-0.5,1.2-1,2-1.3s1.5-0.4,2.3-0.4c0.8,0,1.6,0.1,2.3,0.4s1.4,0.7,2,1.3
		c0.1,0.1,0.1,0.2,0.1,0.3s0,0.2-0.1,0.3c-0.1,0.1-0.2,0.1-0.3,0.1c-0.1,0-0.2,0-0.3-0.1c-0.5-0.5-1.1-0.8-1.7-1.1
		c-0.6-0.3-1.3-0.4-2-0.4c-0.7,0-1.4,0.1-2,0.4c-0.6,0.3-1.2,0.6-1.7,1.1c-0.5,0.5-0.9,1-1.1,1.6s-0.4,1.2-0.4,1.9s0.1,1.3,0.4,1.9
		c0.3,0.6,0.6,1.2,1.1,1.6c0.5,0.5,1.1,0.8,1.7,1.1c0.6,0.2,1.3,0.4,2,0.4c0.7,0,1.4-0.1,2-0.4c0.6-0.2,1.2-0.6,1.7-1.1
		c0.1-0.1,0.2-0.1,0.3-0.1c0.1,0,0.2,0,0.3,0.1c0.1,0.1,0.1,0.2,0.1,0.3s0,0.2-0.1,0.3c-0.6,0.6-1.2,1-2,1.3
		c-0.7,0.3-1.5,0.4-2.3,0.4c-0.8,0-1.6-0.1-2.3-0.4c-0.7-0.3-1.4-0.7-2-1.3c-0.6-0.6-1-1.2-1.3-1.9c-0.3-0.7-0.5-1.4-0.5-2.2
		c0-0.8,0.2-1.5,0.5-2.2C169.3,249.7,169.8,249,170.3,248.5z"/>
	<path class="st1" d="M182.1,247.1c0.1-0.1,0.2-0.1,0.3-0.1c0.1,0,0.2,0,0.3,0.1c0.1,0.1,0.1,0.2,0.1,0.3v10.4c0,0.1,0,0.2-0.1,0.3
		c-0.1,0.1-0.2,0.1-0.3,0.1c-0.1,0-0.2,0-0.3-0.1c-0.1-0.1-0.1-0.2-0.1-0.3v-10.4C182,247.3,182,247.2,182.1,247.1z"/>
	<path class="st1" d="M197,257.6c0.1,0.1,0.1,0.2,0,0.3s-0.1,0.2-0.2,0.2c-0.1,0.1-0.2,0.1-0.3,0c-0.1,0-0.2-0.1-0.2-0.2
		c-0.1-0.2-0.3-0.5-0.4-0.8c-0.1-0.2-0.3-0.5-0.4-0.8c-0.2-0.3-0.4-0.7-0.6-1h-7.7c-0.2,0.4-0.4,0.7-0.6,1c-0.2,0.3-0.3,0.6-0.4,0.8
		c-0.1,0.3-0.3,0.5-0.4,0.8c-0.1,0.1-0.1,0.2-0.2,0.2c-0.1,0-0.2,0-0.3,0c-0.1-0.1-0.2-0.1-0.2-0.2c0-0.1,0-0.2,0-0.3l5.6-10.4
		c0.1-0.1,0.2-0.2,0.4-0.2s0.3,0.1,0.4,0.2L197,257.6z M194.5,254.6c-0.3-0.6-0.7-1.3-1.1-2c-0.4-0.7-0.7-1.3-1-1.9
		c-0.3-0.6-0.6-1.1-0.8-1.5s-0.4-0.8-0.5-0.9c-0.1,0.2-0.3,0.5-0.5,0.9s-0.5,1-0.8,1.5c-0.3,0.6-0.7,1.2-1,1.9
		c-0.4,0.7-0.7,1.3-1.1,2H194.5z"/>
	<path class="st1" d="M200.4,248.5c0.6-0.5,1.2-1,2-1.3c0.7-0.3,1.5-0.4,2.3-0.4s1.6,0.1,2.3,0.4s1.4,0.7,2,1.3
		c0.1,0.1,0.1,0.2,0.1,0.3s0,0.2-0.1,0.3c-0.1,0.1-0.2,0.1-0.3,0.1s-0.2,0-0.3-0.1c-0.5-0.5-1.1-0.8-1.7-1.1c-0.6-0.3-1.3-0.4-2-0.4
		s-1.4,0.1-2,0.4s-1.2,0.6-1.7,1.1c-0.5,0.5-0.9,1-1.1,1.6s-0.4,1.2-0.4,1.9s0.1,1.3,0.4,1.9c0.3,0.6,0.6,1.2,1.1,1.6
		c0.5,0.5,1.1,0.8,1.7,1.1c0.6,0.2,1.3,0.4,2,0.4s1.4-0.1,2-0.4c0.6-0.2,1.2-0.6,1.7-1.1c0.1-0.1,0.2-0.1,0.3-0.1s0.2,0,0.3,0.1
		c0.1,0.1,0.1,0.2,0.1,0.3s0,0.2-0.1,0.3c-0.6,0.6-1.2,1-2,1.3c-0.7,0.3-1.5,0.4-2.3,0.4s-1.6-0.1-2.3-0.4c-0.7-0.3-1.4-0.7-2-1.3
		c-0.6-0.6-1-1.2-1.3-1.9s-0.5-1.4-0.5-2.2c0-0.8,0.2-1.5,0.5-2.2S199.8,249,200.4,248.5z"/>
	<path class="st1" d="M212.1,247.1c0.1-0.1,0.2-0.1,0.3-0.1c0.1,0,0.2,0,0.3,0.1c0.1,0.1,0.1,0.2,0.1,0.3v10.4c0,0.1,0,0.2-0.1,0.3
		c-0.1,0.1-0.2,0.1-0.3,0.1c-0.1,0-0.2,0-0.3-0.1c-0.1-0.1-0.1-0.2-0.1-0.3v-10.4C212,247.3,212.1,247.2,212.1,247.1z"/>
	<path class="st1" d="M217.6,248.5c0.6-0.5,1.2-1,2-1.3c0.7-0.3,1.5-0.4,2.3-0.4s1.6,0.1,2.3,0.4c0.7,0.3,1.4,0.7,2,1.3
		c0.6,0.6,1,1.2,1.3,1.9s0.5,1.4,0.5,2.2c0,0.8-0.2,1.5-0.5,2.2s-0.7,1.3-1.3,1.9c-0.6,0.6-1.2,1-2,1.3c-0.7,0.3-1.5,0.4-2.3,0.4
		s-1.6-0.1-2.3-0.4c-0.7-0.3-1.4-0.7-2-1.3s-1-1.2-1.3-1.9c-0.3-0.7-0.4-1.4-0.4-2.2c0-0.8,0.1-1.5,0.4-2.2
		C216.6,249.7,217,249,217.6,248.5z M218.2,256.2c0.5,0.5,1.1,0.8,1.7,1.1c0.6,0.2,1.3,0.4,2,0.4s1.4-0.1,2-0.4
		c0.6-0.2,1.2-0.6,1.7-1.1c0.5-0.5,0.9-1,1.1-1.6c0.3-0.6,0.4-1.2,0.4-1.9s-0.1-1.3-0.4-1.9c-0.3-0.6-0.6-1.1-1.1-1.6
		c-0.5-0.5-1.1-0.8-1.7-1.1s-1.3-0.4-2-0.4s-1.4,0.1-2,0.4s-1.2,0.6-1.7,1.1c-0.5,0.5-0.9,1-1.1,1.6s-0.4,1.2-0.4,1.9
		s0.1,1.3,0.4,1.9C217.3,255.1,217.7,255.7,218.2,256.2z M223.7,243.4c0.1-0.1,0.2-0.1,0.3-0.1c0.1,0,0.2,0,0.3,0.1
		c0.1,0.1,0.1,0.2,0.1,0.3c0,0.1,0,0.2-0.1,0.3l-2.2,1.7c-0.1,0.1-0.2,0.1-0.3,0.1c-0.1,0-0.2,0-0.3-0.1c-0.1-0.1-0.1-0.2-0.1-0.2
		c0-0.1,0.1-0.2,0.2-0.3L223.7,243.4z"/>
	<path class="st1" d="M231.2,247c0.2-0.1,0.3,0,0.4,0.1c1.4,1.5,2.6,3,3.8,4.3c0.5,0.6,1,1.1,1.5,1.7c0.5,0.6,0.9,1.1,1.4,1.6
		c0.4,0.5,0.8,0.9,1.1,1.3c0.3,0.4,0.6,0.6,0.7,0.8v-9.3c0-0.1,0-0.2,0.1-0.3c0.1-0.1,0.2-0.1,0.3-0.1c0.1,0,0.2,0,0.3,0.1
		s0.1,0.2,0.1,0.3v10.4c0,0.2-0.1,0.3-0.3,0.4c-0.2,0.1-0.3,0-0.5-0.1c-1.4-1.5-2.6-3-3.7-4.3c-0.5-0.6-1-1.1-1.5-1.7
		c-0.5-0.6-0.9-1.1-1.4-1.6c-0.4-0.5-0.8-0.9-1.1-1.3c-0.3-0.4-0.6-0.6-0.7-0.8v9.3c0,0.1,0,0.2-0.1,0.3c-0.1,0.1-0.2,0.1-0.3,0.1
		c-0.1,0-0.2,0-0.3-0.1c-0.1-0.1-0.1-0.2-0.1-0.3v-10.4C230.9,247.2,231,247.1,231.2,247z"/>
	<path class="st1" d="M255.8,247c0.8,0,1.5,0.1,2.2,0.4c0.7,0.3,1.3,0.7,1.9,1.2c0.6,0.5,1,1.1,1.3,1.8c0.3,0.7,0.4,1.4,0.4,2.1
		c0,0.8-0.1,1.5-0.4,2.2c-0.3,0.7-0.7,1.3-1.3,1.8c-0.6,0.5-1.2,0.9-1.9,1.2c-0.7,0.3-1.4,0.4-2.2,0.4h-4.8c-0.1,0-0.2,0-0.3-0.1
		c-0.1-0.1-0.1-0.2-0.1-0.3v-10.4c0-0.1,0-0.2,0.1-0.3s0.2-0.1,0.3-0.1H255.8z M251.3,247.8v9.6h4.4c0.7,0,1.3-0.1,1.9-0.4
		s1.1-0.6,1.6-1c0.5-0.4,0.8-1,1.1-1.6c0.2-0.6,0.4-1.2,0.4-1.8c0-0.6-0.1-1.3-0.4-1.8c-0.2-0.6-0.6-1.1-1.1-1.6
		c-0.5-0.4-1-0.8-1.6-1c-0.6-0.2-1.2-0.4-1.9-0.4H251.3z"/>
	<path class="st1" d="M273,257.5c0.1,0.1,0.1,0.2,0.1,0.3c0,0.1,0,0.2-0.1,0.3c-0.1,0.1-0.2,0.1-0.3,0.1H265c-0.1,0-0.2,0-0.3-0.1
		c-0.1-0.1-0.1-0.2-0.1-0.3v-10.4c0-0.1,0-0.2,0.1-0.3s0.2-0.1,0.3-0.1h7.8c0.1,0,0.2,0,0.3,0.1c0.1,0.1,0.1,0.2,0.1,0.3
		c0,0.1,0,0.2-0.1,0.3c-0.1,0.1-0.2,0.1-0.3,0.1h-7.3v4.4h6.4c0.1,0,0.2,0,0.3,0.1c0.1,0.1,0.1,0.2,0.1,0.3c0,0.1,0,0.2-0.1,0.3
		c-0.1,0.1-0.2,0.1-0.3,0.1h-6.4v4.4h7.3C272.9,257.4,273,257.4,273,257.5z"/>
	<path class="st1" d="M276.3,247.1c0.1-0.1,0.2-0.1,0.3-0.1c0.1,0,0.2,0,0.3,0.1c0.1,0.1,0.1,0.2,0.1,0.3v10h7.3
		c0.1,0,0.2,0,0.3,0.1c0.1,0.1,0.1,0.2,0.1,0.3c0,0.1,0,0.2-0.1,0.3c-0.1,0.1-0.2,0.1-0.3,0.1h-7.8c-0.1,0-0.2,0-0.3-0.1
		c-0.1-0.1-0.1-0.2-0.1-0.3v-10.4C276.2,247.3,276.2,247.2,276.3,247.1z"/>
	<path class="st1" d="M303.9,247.2c0.1-0.1,0.3-0.2,0.4-0.1c0.1,0,0.2,0.1,0.2,0.1c0,0.1,0.1,0.1,0.1,0.2v10.4c0,0.1,0,0.2-0.1,0.3
		c-0.1,0.1-0.2,0.1-0.3,0.1s-0.2,0-0.3-0.1c-0.1-0.1-0.1-0.2-0.1-0.3v-9.3c-0.1,0.2-0.3,0.4-0.5,0.6c-0.2,0.3-0.4,0.5-0.7,0.8
		c-0.2,0.3-0.5,0.6-0.8,1c-0.3,0.3-0.5,0.7-0.8,1c-0.6,0.8-1.3,1.6-2,2.4c-0.1,0.1-0.2,0.1-0.3,0.1c-0.1,0-0.3,0-0.3-0.1
		c-0.7-0.9-1.4-1.7-2-2.4c-0.3-0.3-0.5-0.6-0.8-1c-0.3-0.3-0.5-0.7-0.8-1c-0.2-0.3-0.5-0.6-0.7-0.8s-0.4-0.5-0.5-0.6v9.3
		c0,0.1,0,0.2-0.1,0.3c-0.1,0.1-0.2,0.1-0.3,0.1c-0.1,0-0.2,0-0.3-0.1c-0.1-0.1-0.1-0.2-0.1-0.3v-10.4c0-0.1,0-0.2,0.1-0.2
		c0-0.1,0.1-0.1,0.2-0.1c0.2-0.1,0.3,0,0.5,0.1c0.9,1.1,1.7,2,2.4,2.9c0.3,0.4,0.6,0.7,0.9,1.1s0.6,0.7,0.8,1
		c0.3,0.3,0.5,0.6,0.7,0.8c0.2,0.2,0.3,0.4,0.4,0.5c0.1-0.1,0.2-0.2,0.4-0.5c0.2-0.2,0.4-0.5,0.7-0.8c0.3-0.3,0.5-0.7,0.8-1
		s0.6-0.7,0.9-1.1C302.3,249.2,303.1,248.2,303.9,247.2z"/>
	<path class="st1" d="M316.8,257.5c0.1,0.1,0.1,0.2,0.1,0.3c0,0.1,0,0.2-0.1,0.3c-0.1,0.1-0.2,0.1-0.3,0.1h-7.8
		c-0.1,0-0.2,0-0.3-0.1c-0.1-0.1-0.1-0.2-0.1-0.3v-10.4c0-0.1,0-0.2,0.1-0.3s0.2-0.1,0.3-0.1h7.8c0.1,0,0.2,0,0.3,0.1
		c0.1,0.1,0.1,0.2,0.1,0.3c0,0.1,0,0.2-0.1,0.3c-0.1,0.1-0.2,0.1-0.3,0.1h-7.3v4.4h6.4c0.1,0,0.2,0,0.3,0.1c0.1,0.1,0.1,0.2,0.1,0.3
		c0,0.1,0,0.2-0.1,0.3c-0.1,0.1-0.2,0.1-0.3,0.1h-6.4v4.4h7.3C316.6,257.4,316.7,257.4,316.8,257.5z"/>
	<path class="st1" d="M329.3,257.6c0.1,0.1,0.1,0.2,0.1,0.3s-0.1,0.2-0.1,0.3c-0.1,0.1-0.2,0.1-0.3,0.1c-0.1,0-0.2-0.1-0.3-0.1
		l-3.7-3.9h-4.2v3.5c0,0.1,0,0.2-0.1,0.3c-0.1,0.1-0.2,0.1-0.3,0.1c-0.1,0-0.2,0-0.3-0.1c-0.1-0.1-0.1-0.2-0.1-0.3v-10.4
		c0-0.1,0-0.2,0.1-0.3s0.2-0.1,0.3-0.1h5.1c0.5,0,1,0.1,1.5,0.3s0.9,0.5,1.2,0.8c0.3,0.3,0.6,0.7,0.8,1.2s0.3,0.9,0.3,1.4
		c0,0.4-0.1,0.9-0.2,1.3c-0.2,0.4-0.4,0.8-0.7,1.1s-0.6,0.6-1,0.8c-0.4,0.2-0.8,0.4-1.2,0.4L329.3,257.6z M320.7,253.5h4.7
		c0.4,0,0.8-0.1,1.1-0.2c0.4-0.2,0.7-0.4,0.9-0.6c0.3-0.3,0.5-0.6,0.6-0.9c0.2-0.3,0.2-0.7,0.2-1.1c0-0.4-0.1-0.8-0.2-1.1
		c-0.2-0.3-0.4-0.6-0.6-0.9c-0.3-0.3-0.6-0.5-0.9-0.6c-0.4-0.1-0.7-0.2-1.1-0.2h-4.7V253.5z"/>
	<path class="st1" d="M333.5,248.5c0.6-0.5,1.2-1,2-1.3c0.7-0.3,1.5-0.4,2.3-0.4s1.6,0.1,2.3,0.4s1.4,0.7,2,1.3
		c0.1,0.1,0.1,0.2,0.1,0.3s0,0.2-0.1,0.3c-0.1,0.1-0.2,0.1-0.3,0.1s-0.2,0-0.3-0.1c-0.5-0.5-1.1-0.8-1.7-1.1c-0.6-0.3-1.3-0.4-2-0.4
		s-1.4,0.1-2,0.4s-1.2,0.6-1.7,1.1c-0.5,0.5-0.9,1-1.1,1.6s-0.4,1.2-0.4,1.9s0.1,1.3,0.4,1.9c0.3,0.6,0.6,1.2,1.1,1.6
		c0.5,0.5,1.1,0.8,1.7,1.1c0.6,0.2,1.3,0.4,2,0.4s1.4-0.1,2-0.4c0.6-0.2,1.2-0.6,1.7-1.1c0.1-0.1,0.2-0.1,0.3-0.1s0.2,0,0.3,0.1
		c0.1,0.1,0.1,0.2,0.1,0.3s0,0.2-0.1,0.3c-0.6,0.6-1.2,1-2,1.3c-0.7,0.3-1.5,0.4-2.3,0.4s-1.6-0.1-2.3-0.4c-0.7-0.3-1.4-0.7-2-1.3
		c-0.6-0.6-1-1.2-1.3-1.9s-0.5-1.4-0.5-2.2c0-0.8,0.2-1.5,0.5-2.2S332.9,249,333.5,248.5z"/>
	<path class="st1" d="M355.7,257.6c0.1,0.1,0.1,0.2,0,0.3s-0.1,0.2-0.2,0.2c-0.1,0.1-0.2,0.1-0.3,0c-0.1,0-0.2-0.1-0.2-0.2
		c-0.1-0.2-0.3-0.5-0.4-0.8c-0.1-0.2-0.3-0.5-0.4-0.8c-0.2-0.3-0.4-0.7-0.6-1h-7.7c-0.2,0.4-0.4,0.7-0.6,1c-0.2,0.3-0.3,0.6-0.4,0.8
		c-0.1,0.3-0.3,0.5-0.4,0.8c-0.1,0.1-0.1,0.2-0.2,0.2c-0.1,0-0.2,0-0.3,0c-0.1-0.1-0.2-0.1-0.2-0.2s0-0.2,0-0.3l5.6-10.4
		c0.1-0.1,0.2-0.2,0.4-0.2s0.3,0.1,0.4,0.2L355.7,257.6z M353.1,254.6c-0.3-0.6-0.7-1.3-1.1-2s-0.7-1.3-1-1.9
		c-0.3-0.6-0.6-1.1-0.8-1.5s-0.4-0.8-0.5-0.9c-0.1,0.2-0.3,0.5-0.5,0.9s-0.5,1-0.8,1.5c-0.3,0.6-0.7,1.2-1,1.9s-0.7,1.3-1.1,2H353.1
		z"/>
	<path class="st1" d="M363.2,247c0.8,0,1.5,0.1,2.2,0.4c0.7,0.3,1.3,0.7,1.9,1.2c0.6,0.5,1,1.1,1.3,1.8c0.3,0.7,0.4,1.4,0.4,2.1
		c0,0.8-0.1,1.5-0.4,2.2c-0.3,0.7-0.7,1.3-1.3,1.8c-0.6,0.5-1.2,0.9-1.9,1.2c-0.7,0.3-1.4,0.4-2.2,0.4h-4.8c-0.1,0-0.2,0-0.3-0.1
		c-0.1-0.1-0.1-0.2-0.1-0.3v-10.4c0-0.1,0-0.2,0.1-0.3s0.2-0.1,0.3-0.1H363.2z M358.8,247.8v9.6h4.4c0.7,0,1.3-0.1,1.9-0.4
		s1.1-0.6,1.6-1c0.5-0.4,0.8-1,1.1-1.6c0.2-0.6,0.4-1.2,0.4-1.8c0-0.6-0.1-1.3-0.4-1.8c-0.2-0.6-0.6-1.1-1.1-1.6
		c-0.5-0.4-1-0.8-1.6-1c-0.6-0.2-1.2-0.4-1.9-0.4H358.8z"/>
	<path class="st1" d="M373.1,248.5c0.6-0.5,1.2-1,2-1.3c0.7-0.3,1.5-0.4,2.3-0.4s1.6,0.1,2.3,0.4c0.7,0.3,1.4,0.7,2,1.3
		c0.6,0.6,1,1.2,1.3,1.9s0.5,1.4,0.5,2.2c0,0.8-0.2,1.5-0.5,2.2s-0.7,1.3-1.3,1.9c-0.6,0.6-1.2,1-2,1.3c-0.7,0.3-1.5,0.4-2.3,0.4
		s-1.6-0.1-2.3-0.4c-0.7-0.3-1.4-0.7-2-1.3s-1-1.2-1.3-1.9c-0.3-0.7-0.4-1.4-0.4-2.2c0-0.8,0.1-1.5,0.4-2.2
		C372.1,249.7,372.5,249,373.1,248.5z M373.7,256.2c0.5,0.5,1.1,0.8,1.7,1.1c0.6,0.2,1.3,0.4,2,0.4s1.4-0.1,2-0.4
		c0.6-0.2,1.2-0.6,1.7-1.1c0.5-0.5,0.9-1,1.1-1.6c0.3-0.6,0.4-1.2,0.4-1.9s-0.1-1.3-0.4-1.9c-0.3-0.6-0.6-1.1-1.1-1.6
		c-0.5-0.5-1.1-0.8-1.7-1.1s-1.3-0.4-2-0.4s-1.4,0.1-2,0.4s-1.2,0.6-1.7,1.1c-0.5,0.5-0.9,1-1.1,1.6s-0.4,1.2-0.4,1.9
		s0.1,1.3,0.4,1.9C372.8,255.1,373.2,255.7,373.7,256.2z"/>
</g>
<g>
	<path class="st1" d="M96.6,270.9c0.1,0.1,0.1,0.2,0.1,0.3c0,0.1,0,0.2-0.1,0.3c-0.1,0.1-0.2,0.1-0.3,0.1h-4v10c0,0.1,0,0.2-0.1,0.3
		c-0.1,0.1-0.2,0.1-0.3,0.1c-0.1,0-0.2,0-0.3-0.1c-0.1-0.1-0.1-0.2-0.1-0.3v-10h-4c-0.1,0-0.2,0-0.3-0.1s-0.1-0.2-0.1-0.3
		c0-0.1,0-0.2,0.1-0.3s0.2-0.1,0.3-0.1h8.8C96.4,270.8,96.5,270.8,96.6,270.9z"/>
	<path class="st1" d="M109.4,281.4c0.1,0.1,0.1,0.2,0,0.3s-0.1,0.2-0.2,0.2c-0.1,0.1-0.2,0.1-0.3,0c-0.1,0-0.2-0.1-0.2-0.2
		c-0.1-0.2-0.3-0.5-0.4-0.8c-0.1-0.2-0.3-0.5-0.4-0.8c-0.2-0.3-0.4-0.7-0.6-1h-7.7c-0.2,0.4-0.4,0.7-0.6,1c-0.2,0.3-0.3,0.6-0.4,0.8
		c-0.1,0.3-0.3,0.5-0.4,0.8c-0.1,0.1-0.1,0.2-0.2,0.2c-0.1,0-0.2,0-0.3,0c-0.1-0.1-0.2-0.1-0.2-0.2c0-0.1,0-0.2,0-0.3l5.6-10.4
		c0.1-0.1,0.2-0.2,0.4-0.2c0.2,0,0.3,0.1,0.4,0.2L109.4,281.4z M106.9,278.4c-0.3-0.6-0.7-1.3-1.1-2c-0.4-0.7-0.7-1.3-1-1.9
		c-0.3-0.6-0.6-1.1-0.8-1.5s-0.4-0.8-0.5-0.9c-0.1,0.2-0.3,0.5-0.5,0.9s-0.5,1-0.8,1.5c-0.3,0.6-0.7,1.2-1,1.9
		c-0.4,0.7-0.7,1.3-1.1,2H106.9z"/>
	<path class="st1" d="M112.7,271.3c0.7-0.5,1.6-0.7,2.7-0.7c0.6,0,1.2,0.1,1.8,0.2c0.6,0.1,1.2,0.3,1.6,0.5c0.1,0,0.2,0.1,0.2,0.2
		c0,0.1,0,0.2,0,0.3c-0.1,0.1-0.1,0.2-0.2,0.2c-0.1,0-0.2,0-0.3,0c-0.4-0.2-0.9-0.3-1.5-0.4c-0.6-0.1-1.1-0.2-1.7-0.2
		c-0.5,0-0.9,0-1.3,0.1c-0.4,0.1-0.7,0.2-1,0.4c-0.6,0.4-0.9,0.9-0.9,1.6c0,0.6,0.3,1.1,0.9,1.4c0.5,0.3,1.3,0.6,2.3,0.7
		c1.4,0.2,2.5,0.6,3.3,1.1c0.8,0.6,1.1,1.3,1.1,2.1c0,1-0.5,1.9-1.4,2.5c-0.8,0.5-1.9,0.8-3.1,0.8c-1.6,0-3-0.4-4.1-1.2
		c-0.1-0.1-0.1-0.2-0.2-0.3c0-0.1,0-0.2,0.1-0.3c0.1-0.1,0.2-0.1,0.3-0.2c0.1,0,0.2,0,0.3,0.1c1,0.7,2.2,1.1,3.6,1.1
		c0.5,0,1-0.1,1.5-0.2c0.5-0.1,0.8-0.3,1.2-0.5c0.7-0.5,1-1.1,1-1.8c0-0.6-0.3-1.2-1-1.6c-0.3-0.2-0.7-0.4-1.2-0.5
		c-0.5-0.1-1-0.3-1.6-0.3c-1.1-0.2-2-0.4-2.7-0.8c-0.4-0.2-0.7-0.5-0.9-0.9c-0.2-0.4-0.3-0.8-0.3-1.2
		C111.5,272.6,111.9,271.8,112.7,271.3z"/>
	<path class="st1" d="M133.6,281.4c0.1,0.1,0.1,0.2,0,0.3s-0.1,0.2-0.2,0.2c-0.1,0.1-0.2,0.1-0.3,0c-0.1,0-0.2-0.1-0.2-0.2
		c-0.1-0.2-0.3-0.5-0.4-0.8c-0.1-0.2-0.3-0.5-0.4-0.8c-0.2-0.3-0.4-0.7-0.6-1h-7.7c-0.2,0.4-0.4,0.7-0.6,1c-0.2,0.3-0.3,0.6-0.4,0.8
		c-0.1,0.3-0.3,0.5-0.4,0.8c-0.1,0.1-0.1,0.2-0.2,0.2c-0.1,0-0.2,0-0.3,0c-0.1-0.1-0.2-0.1-0.2-0.2c0-0.1,0-0.2,0-0.3l5.6-10.4
		c0.1-0.1,0.2-0.2,0.4-0.2c0.2,0,0.3,0.1,0.4,0.2L133.6,281.4z M131.1,278.4c-0.3-0.6-0.7-1.3-1.1-2c-0.4-0.7-0.7-1.3-1-1.9
		c-0.3-0.6-0.6-1.1-0.8-1.5s-0.4-0.8-0.5-0.9c-0.1,0.2-0.3,0.5-0.5,0.9s-0.5,1-0.8,1.5c-0.3,0.6-0.7,1.2-1,1.9
		c-0.4,0.7-0.7,1.3-1.1,2H131.1z"/>
	<path class="st1" d="M136.9,271.3c0.7-0.5,1.6-0.7,2.7-0.7c0.6,0,1.2,0.1,1.8,0.2c0.6,0.1,1.2,0.3,1.6,0.5c0.1,0,0.2,0.1,0.2,0.2
		c0,0.1,0,0.2,0,0.3c-0.1,0.1-0.1,0.2-0.2,0.2c-0.1,0-0.2,0-0.3,0c-0.4-0.2-0.9-0.3-1.5-0.4c-0.6-0.1-1.1-0.2-1.7-0.2
		c-0.5,0-0.9,0-1.3,0.1c-0.4,0.1-0.7,0.2-1,0.4c-0.6,0.4-0.9,0.9-0.9,1.6c0,0.6,0.3,1.1,0.9,1.4c0.5,0.3,1.3,0.6,2.3,0.7
		c1.4,0.2,2.5,0.6,3.3,1.1c0.8,0.6,1.1,1.3,1.1,2.1c0,1-0.5,1.9-1.4,2.5c-0.8,0.5-1.9,0.8-3.1,0.8c-1.6,0-3-0.4-4.1-1.2
		c-0.1-0.1-0.1-0.2-0.2-0.3c0-0.1,0-0.2,0.1-0.3c0.1-0.1,0.2-0.1,0.3-0.2c0.1,0,0.2,0,0.3,0.1c1,0.7,2.2,1.1,3.6,1.1
		c0.5,0,1-0.1,1.5-0.2c0.5-0.1,0.8-0.3,1.2-0.5c0.7-0.5,1-1.1,1-1.8c0-0.6-0.3-1.2-1-1.6c-0.3-0.2-0.7-0.4-1.2-0.5
		c-0.5-0.1-1-0.3-1.6-0.3c-1.1-0.2-2-0.4-2.7-0.8c-0.4-0.2-0.7-0.5-0.9-0.9c-0.2-0.4-0.3-0.8-0.3-1.2
		C135.7,272.6,136.1,271.8,136.9,271.3z"/>
	<path class="st1" d="M158.8,270.8c0.5,0,1,0.1,1.5,0.3c0.5,0.2,0.9,0.5,1.2,0.8c0.3,0.3,0.6,0.7,0.8,1.2s0.3,0.9,0.3,1.4
		c0,0.5-0.1,1-0.3,1.4s-0.5,0.8-0.8,1.2c-0.3,0.3-0.7,0.6-1.2,0.8c-0.5,0.2-0.9,0.3-1.5,0.3h-4.7v3.5c0,0.1,0,0.2-0.1,0.3
		c-0.1,0.1-0.2,0.1-0.3,0.1c-0.1,0-0.2,0-0.3-0.1c-0.1-0.1-0.1-0.2-0.1-0.3v-10.4c0-0.1,0-0.2,0.1-0.3s0.2-0.1,0.3-0.1H158.8z
		 M154.1,271.6v5.7h4.7c0.4,0,0.8-0.1,1.1-0.2c0.4-0.2,0.7-0.4,0.9-0.6c0.3-0.3,0.5-0.6,0.6-0.9c0.2-0.3,0.2-0.7,0.2-1.1
		c0-0.4-0.1-0.8-0.2-1.1c-0.2-0.3-0.4-0.6-0.6-0.9c-0.3-0.3-0.6-0.5-0.9-0.6c-0.4-0.1-0.7-0.2-1.1-0.2H154.1z"/>
	<path class="st1" d="M174.5,281.4c0.1,0.1,0.1,0.2,0.1,0.3s-0.1,0.2-0.1,0.3c-0.1,0.1-0.2,0.1-0.3,0.1c-0.1,0-0.2-0.1-0.3-0.1
		l-3.7-3.9H166v3.5c0,0.1,0,0.2-0.1,0.3c-0.1,0.1-0.2,0.1-0.3,0.1c-0.1,0-0.2,0-0.3-0.1c-0.1-0.1-0.1-0.2-0.1-0.3v-10.4
		c0-0.1,0-0.2,0.1-0.3s0.2-0.1,0.3-0.1h5.1c0.5,0,1,0.1,1.5,0.3c0.5,0.2,0.9,0.5,1.2,0.8c0.3,0.3,0.6,0.7,0.8,1.2
		c0.2,0.4,0.3,0.9,0.3,1.4c0,0.4-0.1,0.9-0.2,1.3s-0.4,0.8-0.7,1.1c-0.3,0.3-0.6,0.6-1,0.8c-0.4,0.2-0.8,0.4-1.2,0.4L174.5,281.4z
		 M166,277.3h4.7c0.4,0,0.8-0.1,1.1-0.2c0.4-0.2,0.7-0.4,0.9-0.6c0.3-0.3,0.5-0.6,0.6-0.9c0.2-0.3,0.2-0.7,0.2-1.1
		c0-0.4-0.1-0.8-0.2-1.1c-0.2-0.3-0.4-0.6-0.6-0.9c-0.3-0.3-0.6-0.5-0.9-0.6c-0.4-0.1-0.7-0.2-1.1-0.2H166V277.3z"/>
	<path class="st1" d="M186.1,281.3c0.1,0.1,0.1,0.2,0.1,0.3c0,0.1,0,0.2-0.1,0.3c-0.1,0.1-0.2,0.1-0.3,0.1h-7.8
		c-0.1,0-0.2,0-0.3-0.1c-0.1-0.1-0.1-0.2-0.1-0.3v-10.4c0-0.1,0-0.2,0.1-0.3s0.2-0.1,0.3-0.1h7.8c0.1,0,0.2,0,0.3,0.1
		c0.1,0.1,0.1,0.2,0.1,0.3c0,0.1,0,0.2-0.1,0.3c-0.1,0.1-0.2,0.1-0.3,0.1h-7.3v4.4h6.4c0.1,0,0.2,0,0.3,0.1c0.1,0.1,0.1,0.2,0.1,0.3
		c0,0.1,0,0.2-0.1,0.3c-0.1,0.1-0.2,0.1-0.3,0.1h-6.4v4.4h7.3C186,281.2,186.1,281.3,186.1,281.3z"/>
	<path class="st1" d="M197.7,270.9c0.1,0.1,0.1,0.2,0.1,0.3c0,0.1,0,0.2-0.1,0.3s-0.2,0.1-0.3,0.1h-7.3v4.4h6.4c0.1,0,0.2,0,0.3,0.1
		c0.1,0.1,0.1,0.2,0.1,0.3c0,0.1,0,0.2-0.1,0.3c-0.1,0.1-0.2,0.1-0.3,0.1h-6.4v4.8c0,0.1,0,0.2-0.1,0.3c-0.1,0.1-0.2,0.1-0.3,0.1
		s-0.2,0-0.3-0.1c-0.1-0.1-0.1-0.2-0.1-0.3v-10.4c0-0.1,0-0.2,0.1-0.3c0.1-0.1,0.2-0.1,0.3-0.1h7.8
		C197.6,270.8,197.7,270.8,197.7,270.9z"/>
	<path class="st1" d="M208.6,281.3c0.1,0.1,0.1,0.2,0.1,0.3c0,0.1,0,0.2-0.1,0.3c-0.1,0.1-0.2,0.1-0.3,0.1h-7.8
		c-0.1,0-0.2,0-0.3-0.1c-0.1-0.1-0.1-0.2-0.1-0.3v-10.4c0-0.1,0-0.2,0.1-0.3s0.2-0.1,0.3-0.1h7.8c0.1,0,0.2,0,0.3,0.1
		c0.1,0.1,0.1,0.2,0.1,0.3c0,0.1,0,0.2-0.1,0.3c-0.1,0.1-0.2,0.1-0.3,0.1H201v4.4h6.4c0.1,0,0.2,0,0.3,0.1c0.1,0.1,0.1,0.2,0.1,0.3
		c0,0.1,0,0.2-0.1,0.3c-0.1,0.1-0.2,0.1-0.3,0.1H201v4.4h7.3C208.5,281.2,208.6,281.3,208.6,281.3z"/>
	<path class="st1" d="M221.1,281.4c0.1,0.1,0.1,0.2,0.1,0.3s-0.1,0.2-0.1,0.3c-0.1,0.1-0.2,0.1-0.3,0.1c-0.1,0-0.2-0.1-0.3-0.1
		l-3.7-3.9h-4.2v3.5c0,0.1,0,0.2-0.1,0.3c-0.1,0.1-0.2,0.1-0.3,0.1c-0.1,0-0.2,0-0.3-0.1c-0.1-0.1-0.1-0.2-0.1-0.3v-10.4
		c0-0.1,0-0.2,0.1-0.3s0.2-0.1,0.3-0.1h5.1c0.5,0,1,0.1,1.5,0.3s0.9,0.5,1.2,0.8c0.3,0.3,0.6,0.7,0.8,1.2s0.3,0.9,0.3,1.4
		c0,0.4-0.1,0.9-0.2,1.3c-0.2,0.4-0.4,0.8-0.7,1.1s-0.6,0.6-1,0.8c-0.4,0.2-0.8,0.4-1.2,0.4L221.1,281.4z M212.6,277.3h4.7
		c0.4,0,0.8-0.1,1.1-0.2c0.4-0.2,0.7-0.4,0.9-0.6c0.3-0.3,0.5-0.6,0.6-0.9c0.2-0.3,0.2-0.7,0.2-1.1c0-0.4-0.1-0.8-0.2-1.1
		c-0.2-0.3-0.4-0.6-0.6-0.9c-0.3-0.3-0.6-0.5-0.9-0.6c-0.4-0.1-0.7-0.2-1.1-0.2h-4.7V277.3z"/>
	<path class="st1" d="M232.7,281.3c0.1,0.1,0.1,0.2,0.1,0.3c0,0.1,0,0.2-0.1,0.3c-0.1,0.1-0.2,0.1-0.3,0.1h-7.8
		c-0.1,0-0.2,0-0.3-0.1c-0.1-0.1-0.1-0.2-0.1-0.3v-10.4c0-0.1,0-0.2,0.1-0.3s0.2-0.1,0.3-0.1h7.8c0.1,0,0.2,0,0.3,0.1
		c0.1,0.1,0.1,0.2,0.1,0.3c0,0.1,0,0.2-0.1,0.3c-0.1,0.1-0.2,0.1-0.3,0.1h-7.3v4.4h6.4c0.1,0,0.2,0,0.3,0.1c0.1,0.1,0.1,0.2,0.1,0.3
		c0,0.1,0,0.2-0.1,0.3c-0.1,0.1-0.2,0.1-0.3,0.1h-6.4v4.4h7.3C232.5,281.2,232.6,281.3,232.7,281.3z"/>
	<path class="st1" d="M236.1,270.8c0.2-0.1,0.3,0,0.4,0.1c1.4,1.5,2.6,3,3.8,4.3c0.5,0.6,1,1.1,1.5,1.7c0.5,0.6,0.9,1.1,1.4,1.6
		c0.4,0.5,0.8,0.9,1.1,1.3c0.3,0.4,0.6,0.6,0.7,0.8v-9.3c0-0.1,0-0.2,0.1-0.3c0.1-0.1,0.2-0.1,0.3-0.1c0.1,0,0.2,0,0.3,0.1
		s0.1,0.2,0.1,0.3v10.4c0,0.2-0.1,0.3-0.3,0.4c-0.2,0.1-0.3,0-0.5-0.1c-1.4-1.5-2.6-3-3.7-4.3c-0.5-0.6-1-1.1-1.5-1.7
		c-0.5-0.6-0.9-1.1-1.4-1.6c-0.4-0.5-0.8-0.9-1.1-1.3c-0.3-0.4-0.6-0.6-0.7-0.8v9.3c0,0.1,0,0.2-0.1,0.3c-0.1,0.1-0.2,0.1-0.3,0.1
		c-0.1,0-0.2,0-0.3-0.1c-0.1-0.1-0.1-0.2-0.1-0.3v-10.4C235.8,271,235.9,270.9,236.1,270.8z"/>
	<path class="st1" d="M250.5,272.3c0.6-0.5,1.2-1,2-1.3c0.7-0.3,1.5-0.4,2.3-0.4s1.6,0.1,2.3,0.4s1.4,0.7,2,1.3
		c0.1,0.1,0.1,0.2,0.1,0.3s0,0.2-0.1,0.3c-0.1,0.1-0.2,0.1-0.3,0.1s-0.2,0-0.3-0.1c-0.5-0.5-1.1-0.8-1.7-1.1c-0.6-0.3-1.3-0.4-2-0.4
		s-1.4,0.1-2,0.4s-1.2,0.6-1.7,1.1c-0.5,0.5-0.9,1-1.1,1.6s-0.4,1.2-0.4,1.9s0.1,1.3,0.4,1.9c0.3,0.6,0.6,1.2,1.1,1.6
		c0.5,0.5,1.1,0.8,1.7,1.1c0.6,0.2,1.3,0.4,2,0.4s1.4-0.1,2-0.4c0.6-0.2,1.2-0.6,1.7-1.1c0.1-0.1,0.2-0.1,0.3-0.1s0.2,0,0.3,0.1
		c0.1,0.1,0.1,0.2,0.1,0.3s0,0.2-0.1,0.3c-0.6,0.6-1.2,1-2,1.3c-0.7,0.3-1.5,0.4-2.3,0.4s-1.6-0.1-2.3-0.4c-0.7-0.3-1.4-0.7-2-1.3
		c-0.6-0.6-1-1.2-1.3-1.9s-0.5-1.4-0.5-2.2c0-0.8,0.2-1.5,0.5-2.2S250,272.8,250.5,272.3z"/>
	<path class="st1" d="M262.3,270.9c0.1-0.1,0.2-0.1,0.3-0.1c0.1,0,0.2,0,0.3,0.1c0.1,0.1,0.1,0.2,0.1,0.3v10.4c0,0.1,0,0.2-0.1,0.3
		c-0.1,0.1-0.2,0.1-0.3,0.1c-0.1,0-0.2,0-0.3-0.1c-0.1-0.1-0.1-0.2-0.1-0.3v-10.4C262.2,271.1,262.3,271,262.3,270.9z"/>
	<path class="st1" d="M277.2,281.4c0.1,0.1,0.1,0.2,0,0.3s-0.1,0.2-0.2,0.2c-0.1,0.1-0.2,0.1-0.3,0c-0.1,0-0.2-0.1-0.2-0.2
		c-0.1-0.2-0.3-0.5-0.4-0.8c-0.1-0.2-0.3-0.5-0.4-0.8c-0.2-0.3-0.4-0.7-0.6-1h-7.7c-0.2,0.4-0.4,0.7-0.6,1c-0.2,0.3-0.3,0.6-0.4,0.8
		c-0.1,0.3-0.3,0.5-0.4,0.8c-0.1,0.1-0.1,0.2-0.2,0.2c-0.1,0-0.2,0-0.3,0c-0.1-0.1-0.2-0.1-0.2-0.2s0-0.2,0-0.3l5.6-10.4
		c0.1-0.1,0.2-0.2,0.4-0.2s0.3,0.1,0.4,0.2L277.2,281.4z M274.7,278.4c-0.3-0.6-0.7-1.3-1.1-2s-0.7-1.3-1-1.9
		c-0.3-0.6-0.6-1.1-0.8-1.5s-0.4-0.8-0.5-0.9c-0.1,0.2-0.3,0.5-0.5,0.9s-0.5,1-0.8,1.5c-0.3,0.6-0.7,1.2-1,1.9s-0.7,1.3-1.1,2H274.7
		z"/>
	<path class="st1" d="M279.6,270.9c0.1-0.1,0.2-0.1,0.3-0.1c0.1,0,0.2,0,0.3,0.1c0.1,0.1,0.1,0.2,0.1,0.3v10h7.3
		c0.1,0,0.2,0,0.3,0.1c0.1,0.1,0.1,0.2,0.1,0.3c0,0.1,0,0.2-0.1,0.3c-0.1,0.1-0.2,0.1-0.3,0.1h-7.8c-0.1,0-0.2,0-0.3-0.1
		c-0.1-0.1-0.1-0.2-0.1-0.3v-10.4C279.5,271.1,279.5,271,279.6,270.9z"/>
	<path class="st1" d="M298.5,281.3c0.1,0.1,0.1,0.2,0.1,0.3c0,0.1,0,0.2-0.1,0.3c-0.1,0.1-0.2,0.1-0.3,0.1h-7.8
		c-0.1,0-0.2,0-0.3-0.1c-0.1-0.1-0.1-0.2-0.1-0.3v-10.4c0-0.1,0-0.2,0.1-0.3s0.2-0.1,0.3-0.1h7.8c0.1,0,0.2,0,0.3,0.1
		c0.1,0.1,0.1,0.2,0.1,0.3c0,0.1,0,0.2-0.1,0.3c-0.1,0.1-0.2,0.1-0.3,0.1h-7.3v4.4h6.4c0.1,0,0.2,0,0.3,0.1c0.1,0.1,0.1,0.2,0.1,0.3
		c0,0.1,0,0.2-0.1,0.3c-0.1,0.1-0.2,0.1-0.3,0.1h-6.4v4.4h7.3C298.3,281.2,298.4,281.3,298.5,281.3z"/>
	<path class="st1" d="M302.7,271.3c0.7-0.5,1.6-0.7,2.7-0.7c0.6,0,1.2,0.1,1.8,0.2c0.6,0.1,1.2,0.3,1.6,0.5c0.1,0,0.2,0.1,0.2,0.2
		c0,0.1,0,0.2,0,0.3c-0.1,0.1-0.1,0.2-0.2,0.2c-0.1,0-0.2,0-0.3,0c-0.4-0.2-0.9-0.3-1.5-0.4c-0.6-0.1-1.1-0.2-1.7-0.2
		c-0.5,0-0.9,0-1.3,0.1c-0.4,0.1-0.7,0.2-1,0.4c-0.6,0.4-0.9,0.9-0.9,1.6c0,0.6,0.3,1.1,0.9,1.4c0.5,0.3,1.3,0.6,2.3,0.7
		c1.4,0.2,2.5,0.6,3.3,1.1c0.8,0.6,1.1,1.3,1.1,2.1c0,1-0.5,1.9-1.4,2.5c-0.8,0.5-1.9,0.8-3.1,0.8c-1.6,0-3-0.4-4.1-1.2
		c-0.1-0.1-0.1-0.2-0.2-0.3c0-0.1,0-0.2,0.1-0.3c0.1-0.1,0.2-0.1,0.3-0.2c0.1,0,0.2,0,0.3,0.1c1,0.7,2.2,1.1,3.6,1.1
		c0.5,0,1-0.1,1.5-0.2c0.5-0.1,0.8-0.3,1.2-0.5c0.7-0.5,1-1.1,1-1.8c0-0.6-0.3-1.2-1-1.6c-0.3-0.2-0.7-0.4-1.2-0.5s-1-0.3-1.6-0.3
		c-1.1-0.2-2-0.4-2.7-0.8c-0.4-0.2-0.7-0.5-0.9-0.9c-0.2-0.4-0.3-0.8-0.3-1.2C301.4,272.6,301.8,271.8,302.7,271.3z"/>
</g>
<rect x="52.3" y="17.4" class="st2" width="293.4" height="46.7"/>
<g>
	<path class="st1" d="M91.4,55.8V36.9c0-1,0.2-1.9,0.5-2.6s0.7-1.2,1.3-1.6c0.5-0.4,1.1-0.7,1.8-0.8c0.6-0.2,1.3-0.2,1.9-0.2
		c0.9,0,1.9,0,3.1,0c1.2,0,2.5,0,3.8,0.1c1.3,0.1,2.6,0.1,3.8,0.2v3.4h-9.6c-0.7,0-1.3,0.2-1.7,0.6c-0.4,0.4-0.6,1-0.6,1.7v4.9
		l10.4,0.2v3.2l-10.4,0.2v9.7H91.4z"/>
	<path class="st1" d="M111,55.8V31.6h4.2v24.1H111z"/>
	<path class="st1" d="M120.1,55.8V31.6h3.4l11.4,17.2V31.6h4.2v24.1h-3.4l-11.4-17.2v17.2H120.1z"/>
	<path class="st1" d="M141.9,55.8l8.1-24.1h5.3l8.1,24.1h-4.4l-1.9-5.7h-9.1l-1.9,5.7H141.9z M149.1,46.4h7.1l-3.5-11.3L149.1,46.4z
		"/>
	<path class="st1" d="M166.9,55.8V31.6h3.4l11.4,17.2V31.6h4.2v24.1h-3.4l-11.4-17.2v17.2H166.9z"/>
	<path class="st1" d="M198.6,55.9c-1.5,0-2.8-0.2-3.9-0.5c-1.1-0.3-2.1-0.9-2.8-1.8c-0.8-0.9-1.3-2.1-1.7-3.7
		c-0.4-1.6-0.6-3.7-0.6-6.3c0-2.5,0.2-4.5,0.6-6.1c0.4-1.6,1-2.8,1.8-3.7c0.8-0.9,1.7-1.5,2.9-1.9c1.1-0.3,2.4-0.5,3.9-0.5
		c1,0,2,0.1,2.9,0.2c0.9,0.1,1.8,0.2,2.6,0.4c0.8,0.2,1.5,0.3,2.1,0.5v3.1c-0.4-0.1-0.9-0.2-1.6-0.2c-0.7-0.1-1.5-0.1-2.4-0.2
		c-0.9-0.1-1.8-0.1-2.7-0.1c-1,0-1.9,0.1-2.7,0.3c-0.7,0.2-1.3,0.6-1.8,1.3c-0.5,0.6-0.8,1.5-1,2.6c-0.2,1.1-0.3,2.6-0.3,4.4
		c0,1.8,0.1,3.3,0.3,4.4c0.2,1.1,0.5,2,0.9,2.6c0.4,0.6,1,1.1,1.7,1.3c0.7,0.2,1.7,0.4,2.8,0.4c1.7,0,3.1,0,4.2-0.1
		c1.1-0.1,2-0.2,2.6-0.2v3.1c-0.6,0.2-1.4,0.3-2.2,0.5s-1.7,0.2-2.6,0.3C200.6,55.9,199.7,55.9,198.6,55.9z"/>
	<path class="st1" d="M210.1,55.8V31.6h4.2v24.1H210.1z"/>
	<path class="st1" d="M217.4,55.8l8.1-24.1h5.3l8.1,24.1h-4.4l-1.9-5.7h-9.1l-1.9,5.7H217.4z M224.6,46.4h7.1l-3.5-11.3L224.6,46.4z
		"/>
	<path class="st1" d="M250.4,55.9c-1.5,0-2.8-0.2-3.9-0.5s-2.1-0.9-2.8-1.8s-1.3-2.1-1.7-3.7c-0.4-1.6-0.6-3.7-0.6-6.3
		c0-2.5,0.2-4.5,0.6-6.1c0.4-1.6,1-2.8,1.8-3.7c0.8-0.9,1.7-1.5,2.9-1.9c1.1-0.3,2.4-0.5,3.9-0.5c1,0,2,0.1,2.9,0.2
		c0.9,0.1,1.8,0.2,2.6,0.4c0.8,0.2,1.5,0.3,2.1,0.5v3.1c-0.4-0.1-0.9-0.2-1.6-0.2c-0.7-0.1-1.5-0.1-2.4-0.2
		c-0.9-0.1-1.8-0.1-2.7-0.1c-1,0-1.9,0.1-2.7,0.3c-0.7,0.2-1.3,0.6-1.8,1.3c-0.5,0.6-0.8,1.5-1,2.6c-0.2,1.1-0.3,2.6-0.3,4.4
		c0,1.8,0.1,3.3,0.3,4.4c0.2,1.1,0.5,2,0.9,2.6c0.4,0.6,1,1.1,1.7,1.3c0.7,0.2,1.7,0.4,2.8,0.4c1.7,0,3.1,0,4.2-0.1
		c1.1-0.1,2-0.2,2.6-0.2v3.1c-0.6,0.2-1.4,0.3-2.2,0.5c-0.8,0.1-1.7,0.2-2.6,0.3C252.4,55.9,251.4,55.9,250.4,55.9z"/>
	<path class="st1" d="M261.8,55.8V31.6h4.2v24.1H261.8z"/>
	<path class="st1" d="M280.1,55.9c-1.7,0-3.1-0.2-4.4-0.5s-2.3-0.9-3.2-1.7c-0.8-0.8-1.5-2.1-1.9-3.7c-0.4-1.6-0.6-3.7-0.6-6.3
		c0-2.6,0.2-4.7,0.6-6.4c0.4-1.6,1.1-2.9,1.9-3.7s1.9-1.5,3.2-1.8c1.3-0.3,2.7-0.5,4.4-0.5c1.7,0,3.2,0.2,4.4,0.5
		c1.3,0.3,2.3,0.9,3.2,1.8c0.8,0.9,1.5,2.1,1.9,3.7c0.4,1.6,0.6,3.7,0.6,6.4c0,2.6-0.2,4.7-0.6,6.3c-0.4,1.6-1.1,2.8-1.9,3.7
		c-0.8,0.8-1.9,1.4-3.2,1.7C283.3,55.8,281.8,55.9,280.1,55.9z M280.1,52.3c1.1,0,2-0.1,2.8-0.3c0.8-0.2,1.4-0.6,1.8-1.2
		c0.5-0.6,0.8-1.5,1-2.6c0.2-1.1,0.3-2.6,0.3-4.4c0-1.9-0.1-3.5-0.3-4.6c-0.2-1.1-0.5-2-1-2.6c-0.5-0.6-1.1-1-1.8-1.2
		c-0.7-0.2-1.7-0.3-2.8-0.3c-1,0-1.9,0.1-2.7,0.3c-0.7,0.2-1.4,0.6-1.8,1.2c-0.5,0.6-0.8,1.5-1,2.6c-0.2,1.1-0.3,2.7-0.3,4.6
		c0,1.8,0.1,3.3,0.3,4.4c0.2,1.1,0.5,2,1,2.6c0.5,0.6,1.1,1,1.8,1.2C278.1,52.2,279,52.3,280.1,52.3z M279.1,29.9l3-4.5h3.5l-4,4.5
		H279.1z"/>
	<path class="st1" d="M294.6,55.8V31.6h3.4l11.4,17.2V31.6h4.2v24.1h-3.4l-11.4-17.2v17.2H294.6z"/>
</g>
<path class="st3" d="M388.2,133.5H9.8v82.6h378.3V133.5z M8.7,131.2h381.9v87.3H7.5v-87.3H8.7z"/>
<g>
	<path class="st1" d="M51.6,149c0.1,0,0.2,0,0.3,0.1c0.1,0.1,0.1,0.2,0.1,0.3v11.1c0,0.1,0,0.2-0.1,0.3c-0.1,0.1-0.2,0.1-0.3,0.1
		s-0.2,0-0.3-0.1c-0.1-0.1-0.1-0.2-0.1-0.3v-5.1h-9.4v5.1c0,0.1,0,0.2-0.1,0.3c-0.1,0.1-0.2,0.1-0.3,0.1s-0.2,0-0.3-0.1
		c-0.1-0.1-0.1-0.2-0.1-0.3v-11.1c0-0.1,0-0.2,0.1-0.3c0.1-0.1,0.2-0.1,0.3-0.1s0.2,0,0.3,0.1c0.1,0.1,0.1,0.2,0.1,0.3v5.1h9.4v-5.1
		c0-0.1,0-0.2,0.1-0.3C51.3,149.1,51.5,149,51.6,149z"/>
	<path class="st1" d="M67.1,160.4c0.1,0.1,0.1,0.2,0,0.3c0,0.1-0.1,0.2-0.2,0.2c-0.1,0.1-0.2,0.1-0.3,0c-0.1,0-0.2-0.1-0.3-0.2
		c-0.1-0.2-0.3-0.5-0.4-0.8c-0.1-0.3-0.3-0.5-0.5-0.9s-0.4-0.7-0.6-1.1h-8.2c-0.2,0.4-0.4,0.8-0.6,1.1s-0.3,0.6-0.5,0.9
		c-0.2,0.3-0.3,0.6-0.4,0.8c-0.1,0.1-0.1,0.2-0.3,0.2c-0.1,0-0.2,0-0.3,0c-0.1-0.1-0.2-0.1-0.2-0.2c0-0.1,0-0.2,0-0.3l6-11.1
		c0.1-0.2,0.2-0.2,0.4-0.2c0.2,0,0.3,0.1,0.4,0.2L67.1,160.4z M64.4,157.1c-0.4-0.7-0.7-1.4-1.1-2.1c-0.4-0.7-0.7-1.4-1.1-2
		c-0.3-0.6-0.6-1.2-0.9-1.6s-0.4-0.8-0.5-1c-0.1,0.2-0.3,0.5-0.5,1s-0.6,1-0.9,1.6c-0.3,0.6-0.7,1.3-1.1,2c-0.4,0.7-0.8,1.4-1.1,2.1
		H64.4z"/>
	<path class="st1" d="M70.6,149.5c0.8-0.5,1.7-0.8,2.9-0.8c0.6,0,1.3,0.1,2,0.2c0.7,0.1,1.2,0.3,1.7,0.5c0.1,0,0.2,0.1,0.2,0.2
		c0,0.1,0,0.2,0,0.3c-0.1,0.1-0.1,0.2-0.3,0.2s-0.2,0-0.3,0c-0.4-0.2-0.9-0.3-1.5-0.4c-0.6-0.1-1.2-0.2-1.8-0.2
		c-0.5,0-0.9,0.1-1.4,0.2c-0.4,0.1-0.8,0.3-1.1,0.4c-0.6,0.4-0.9,1-0.9,1.7c0,0.6,0.3,1.1,0.9,1.5c0.6,0.4,1.4,0.6,2.5,0.8
		c1.5,0.2,2.7,0.6,3.5,1.2c0.8,0.6,1.2,1.4,1.2,2.3c0,1.1-0.5,2-1.5,2.6c-0.9,0.6-2,0.9-3.3,0.9c-1.7,0-3.2-0.4-4.4-1.3
		c-0.1-0.1-0.2-0.2-0.2-0.3c0-0.1,0-0.2,0.1-0.3c0.1-0.1,0.2-0.1,0.3-0.2c0.1,0,0.2,0,0.3,0.1c1,0.8,2.3,1.1,3.8,1.1
		c0.6,0,1.1-0.1,1.6-0.2c0.5-0.1,0.9-0.3,1.3-0.5c0.7-0.5,1.1-1.1,1.1-1.9c0-0.7-0.4-1.3-1.1-1.7c-0.3-0.2-0.8-0.4-1.2-0.6
		c-0.5-0.1-1-0.3-1.7-0.4c-1.2-0.2-2.2-0.5-2.8-0.9c-0.4-0.3-0.7-0.6-1-0.9c-0.2-0.4-0.4-0.8-0.4-1.3
		C69.3,150.9,69.7,150.1,70.6,149.5z"/>
	<path class="st1" d="M90.2,149.1c0.1,0.1,0.1,0.2,0.1,0.3c0,0.1,0,0.2-0.1,0.3s-0.2,0.1-0.3,0.1h-4.2v10.7c0,0.1,0,0.2-0.1,0.3
		c-0.1,0.1-0.2,0.1-0.3,0.1c-0.1,0-0.2,0-0.3-0.1c-0.1-0.1-0.1-0.2-0.1-0.3v-10.7h-4.2c-0.1,0-0.2,0-0.3-0.1s-0.1-0.2-0.1-0.3
		c0-0.1,0-0.2,0.1-0.3c0.1-0.1,0.2-0.1,0.3-0.1h9.4C90,149,90.1,149.1,90.2,149.1z"/>
	<path class="st1" d="M103.9,160.4c0.1,0.1,0.1,0.2,0,0.3c0,0.1-0.1,0.2-0.2,0.2c-0.1,0.1-0.2,0.1-0.3,0c-0.1,0-0.2-0.1-0.3-0.2
		c-0.1-0.2-0.3-0.5-0.4-0.8c-0.1-0.3-0.3-0.5-0.5-0.9s-0.4-0.7-0.6-1.1h-8.2c-0.2,0.4-0.4,0.8-0.6,1.1s-0.3,0.6-0.5,0.9
		c-0.2,0.3-0.3,0.6-0.4,0.8c-0.1,0.1-0.1,0.2-0.3,0.2c-0.1,0-0.2,0-0.3,0c-0.1-0.1-0.2-0.1-0.2-0.2c0-0.1,0-0.2,0-0.3l6-11.1
		c0.1-0.2,0.2-0.2,0.4-0.2c0.2,0,0.3,0.1,0.4,0.2L103.9,160.4z M101.1,157.1c-0.4-0.7-0.7-1.4-1.1-2.1c-0.4-0.7-0.7-1.4-1.1-2
		c-0.3-0.6-0.6-1.2-0.9-1.6s-0.4-0.8-0.5-1c-0.1,0.2-0.3,0.5-0.5,1s-0.6,1-0.9,1.6c-0.3,0.6-0.7,1.3-1.1,2c-0.4,0.7-0.8,1.4-1.1,2.1
		H101.1z"/>
	<path class="st1" d="M121.6,160.2c0.1,0.1,0.1,0.2,0.1,0.3c0,0.1,0,0.2-0.1,0.3c-0.1,0.1-0.2,0.1-0.3,0.1H113c-0.1,0-0.2,0-0.3-0.1
		c-0.1-0.1-0.1-0.2-0.1-0.3v-11.1c0-0.1,0-0.2,0.1-0.3c0.1-0.1,0.2-0.1,0.3-0.1h8.3c0.1,0,0.2,0,0.3,0.1c0.1,0.1,0.1,0.2,0.1,0.3
		c0,0.1,0,0.2-0.1,0.3s-0.2,0.1-0.3,0.1h-7.8v4.7h6.8c0.1,0,0.2,0,0.3,0.1c0.1,0.1,0.1,0.2,0.1,0.3c0,0.1,0,0.2-0.1,0.3
		c-0.1,0.1-0.2,0.1-0.3,0.1h-6.8v4.7h7.8C121.4,160.1,121.6,160.2,121.6,160.2z"/>
	<path class="st1" d="M125.2,149.1c0.2-0.1,0.4,0,0.5,0.1c1.4,1.6,2.8,3.2,4,4.6c0.5,0.6,1,1.2,1.6,1.8c0.5,0.6,1,1.2,1.5,1.7
		c0.5,0.5,0.9,1,1.2,1.4c0.3,0.4,0.6,0.7,0.8,0.9v-9.9c0-0.1,0-0.2,0.1-0.3c0.1-0.1,0.2-0.1,0.3-0.1s0.2,0,0.3,0.1
		c0.1,0.1,0.1,0.2,0.1,0.3v11.1c0,0.2-0.1,0.3-0.3,0.4c-0.2,0.1-0.4,0-0.5-0.1c-1.4-1.6-2.8-3.2-4-4.6c-0.5-0.6-1-1.2-1.6-1.8
		s-1-1.1-1.5-1.7c-0.5-0.5-0.9-1-1.2-1.4s-0.6-0.7-0.8-0.9v9.9c0,0.1,0,0.2-0.1,0.3c-0.1,0.1-0.2,0.1-0.3,0.1c-0.1,0-0.2,0-0.3-0.1
		c-0.1-0.1-0.1-0.2-0.1-0.3v-11.1C124.9,149.3,125,149.1,125.2,149.1z"/>
</g>
<g>
	<path class="st1" d="M157.5,165.8c0-2.3,0.4-4.4,1.3-6.3c0.9-2,2.1-3.7,3.6-5.1c1.5-1.5,3.3-2.6,5.3-3.5c2-0.9,4.2-1.3,6.5-1.3
		c2.3,0,4.5,0.4,6.6,1.3c2,0.9,3.8,2,5.3,3.5c1.5,1.5,2.7,3.2,3.6,5.1c0.9,2,1.3,4.1,1.3,6.3c0,2.2-0.4,4.2-1.2,6.2
		c-0.8,2-2.1,3.7-3.7,5.2l-9.7,9.3c-1.3,1.3-2.6,2.5-3.9,3.8s-2.6,2.5-3.8,3.7c-1.2,1.2-2.3,2.2-3.4,3.2c-1,1-1.8,1.7-2.5,2.3h26.1
		c0.6,0,1,0.2,1.4,0.5c0.4,0.4,0.5,0.8,0.5,1.4c0,0.6-0.2,1-0.5,1.4c-0.4,0.4-0.8,0.5-1.4,0.5h-30.7c-0.4,0-0.8-0.1-1.1-0.3
		c-0.3-0.2-0.6-0.5-0.7-0.8c-0.4-0.8-0.2-1.5,0.4-2.1l26.6-25.5c2.5-2.4,3.7-5.3,3.7-8.7c0-1.7-0.3-3.3-1-4.8
		c-0.7-1.5-1.6-2.8-2.8-3.9s-2.5-2-4.1-2.7c-1.6-0.7-3.2-1-5-1c-1.8,0-3.4,0.3-5,1c-1.6,0.7-2.9,1.5-4.1,2.7
		c-1.1,1.1-2.1,2.4-2.7,3.9c-0.7,1.5-1,3.1-1,4.8c0,0.5-0.2,0.9-0.6,1.3s-0.8,0.6-1.4,0.6c-0.6,0-1-0.2-1.4-0.6
		C157.7,166.7,157.5,166.3,157.5,165.8z"/>
	<path class="st1" d="M207.7,155.2c1.9-1.8,4.1-3.2,6.5-4.2s5-1.5,7.7-1.5c2.7,0,5.2,0.5,7.6,1.5s4.6,2.4,6.6,4.2
		c1.9,1.9,3.3,3.9,4.3,6.3c1,2.3,1.5,4.8,1.5,7.4v15.9c0,2.6-0.5,5.1-1.5,7.4c-1,2.4-2.5,4.4-4.3,6.2c-1.9,1.9-4.1,3.3-6.6,4.2
		c-2.4,1-5,1.4-7.6,1.4c-2.7,0-5.3-0.5-7.7-1.4c-2.4-1-4.6-2.4-6.5-4.2c-1.9-1.8-3.4-3.9-4.4-6.2c-1-2.4-1.5-4.8-1.5-7.4v-15.9
		c0-2.6,0.5-5.1,1.5-7.4C204.3,159.2,205.8,157.1,207.7,155.2z M205.8,184.9c0,2.2,0.4,4.2,1.3,6.1c0.9,1.9,2,3.6,3.5,5
		c1.5,1.4,3.2,2.5,5.1,3.3c2,0.8,4,1.2,6.3,1.2c2.2,0,4.3-0.4,6.3-1.2c2-0.8,3.7-1.9,5.1-3.3c1.5-1.4,2.6-3.1,3.5-5
		c0.9-1.9,1.3-3.9,1.3-6.1v-15.9c0-2.2-0.4-4.2-1.3-6.1c-0.9-1.9-2-3.5-3.5-4.9c-1.5-1.4-3.2-2.5-5.1-3.3c-2-0.8-4-1.2-6.3-1.2
		c-2.2,0-4.3,0.4-6.3,1.2c-2,0.8-3.7,1.9-5.1,3.3c-1.5,1.4-2.6,3-3.5,4.9c-0.9,1.9-1.3,3.9-1.3,6.1V184.9z"/>
</g>
<path class="st1" d="M108.7,421.6h2.4v10.5h-2.4V421.6z M113.4,421.6h4.3c1,0,1.7,0.1,2.2,0.2c0.7,0.2,1.3,0.5,1.8,1
	c0.5,0.5,0.9,1,1.1,1.7c0.3,0.7,0.4,1.5,0.4,2.5c0,0.9-0.1,1.6-0.4,2.2c-0.3,0.8-0.7,1.4-1.3,1.9c-0.4,0.4-1,0.6-1.7,0.8
	c-0.5,0.1-1.2,0.2-2.1,0.2h-4.5V421.6z M115.7,423.4v7h1.8c0.7,0,1.1,0,1.4-0.1c0.4-0.1,0.7-0.2,1-0.4c0.3-0.2,0.5-0.5,0.6-1
	c0.2-0.5,0.2-1.1,0.2-1.9c0-0.8-0.1-1.4-0.2-1.9c-0.2-0.4-0.4-0.8-0.7-1c-0.3-0.2-0.7-0.4-1.1-0.5c-0.3-0.1-1-0.1-2-0.1H115.7z
	 M125.3,432.1v-10.5h8.7v1.8h-6.4v2.3h5.9v1.8h-5.9v2.9h6.6v1.8H125.3z M136.2,432.1v-10.5h5c1.3,0,2.2,0.1,2.7,0.3
	c0.6,0.2,1,0.5,1.4,1c0.3,0.5,0.5,1,0.5,1.7c0,0.8-0.3,1.4-0.8,2c-0.5,0.5-1.3,0.8-2.3,1c0.5,0.3,0.9,0.6,1.3,0.9
	c0.3,0.3,0.8,0.9,1.4,1.7l1.4,2.1H144l-1.7-2.3c-0.6-0.8-1-1.3-1.2-1.5c-0.2-0.2-0.5-0.4-0.7-0.4c-0.3-0.1-0.7-0.1-1.2-0.1h-0.5v4.4
	H136.2z M138.6,426.1h1.8c1.1,0,1.9,0,2.1-0.1c0.3-0.1,0.5-0.2,0.7-0.4c0.1-0.2,0.2-0.5,0.2-0.8c0-0.3-0.1-0.6-0.3-0.8
	c-0.2-0.2-0.5-0.4-0.9-0.4c-0.2,0-0.8,0-1.7,0h-1.9V426.1z M152.7,432.1v-10.5h8.7v1.8h-6.4v2.3h5.9v1.8h-5.9v2.9h6.6v1.8H152.7z
	 M163.7,432.1v-10.5h2.3l4.8,7v-7h2.2v10.5h-2.4l-4.8-6.9v6.9H163.7z M184.4,421.6h2.4v6.7c0,0.9-0.1,1.5-0.3,2
	c-0.2,0.6-0.7,1.1-1.3,1.5c-0.6,0.4-1.4,0.6-2.4,0.6c-1.2,0-2.1-0.3-2.7-0.9c-0.6-0.6-0.9-1.4-0.9-2.6l2.2-0.2c0,0.6,0.1,1,0.3,1.3
	c0.3,0.4,0.6,0.6,1.2,0.6c0.5,0,0.9-0.1,1.1-0.4c0.2-0.3,0.3-0.8,0.3-1.7V421.6z M189.3,421.6h2.4v5.7c0,0.9,0,1.5,0.1,1.7
	c0.1,0.4,0.3,0.8,0.7,1c0.4,0.3,0.9,0.4,1.6,0.4c0.7,0,1.2-0.1,1.5-0.4c0.3-0.2,0.5-0.6,0.6-0.9c0.1-0.4,0.1-1,0.1-1.8v-5.8h2.4v5.5
	c0,1.3-0.1,2.2-0.2,2.7c-0.1,0.5-0.4,1-0.7,1.3c-0.3,0.4-0.8,0.6-1.4,0.9c-0.6,0.2-1.3,0.3-2.3,0.3c-1.1,0-2-0.1-2.6-0.4
	c-0.6-0.2-1-0.5-1.4-0.9c-0.3-0.4-0.6-0.8-0.7-1.2c-0.2-0.6-0.2-1.5-0.2-2.7V421.6z M201.2,421.6h4.7c0.9,0,1.6,0,2.1,0.1
	c0.5,0.1,0.9,0.2,1.2,0.4c0.4,0.2,0.7,0.5,0.9,0.9c0.2,0.4,0.4,0.8,0.4,1.2c0,0.5-0.1,0.9-0.4,1.4c-0.3,0.4-0.7,0.7-1.2,0.9
	c0.7,0.2,1.3,0.5,1.7,1c0.4,0.4,0.6,1,0.6,1.6c0,0.5-0.1,1-0.4,1.4c-0.3,0.4-0.6,0.8-1,1.1c-0.4,0.3-1,0.4-1.6,0.5
	c-0.4,0-1.3,0.1-2.9,0.1h-4V421.6z M203.6,423.4v2.4h1.6c0.9,0,1.5,0,1.7,0c0.4,0,0.7-0.2,1-0.4c0.2-0.2,0.4-0.5,0.4-0.8
	c0-0.3-0.1-0.6-0.3-0.8c-0.2-0.2-0.5-0.3-0.9-0.4c-0.2,0-0.9,0-2,0H203.6z M203.6,427.6v2.8h2.2c0.9,0,1.4,0,1.6-0.1
	c0.4-0.1,0.6-0.2,0.9-0.4c0.2-0.2,0.3-0.5,0.3-0.9c0-0.3-0.1-0.6-0.3-0.8c-0.2-0.2-0.4-0.4-0.7-0.5c-0.3-0.1-1-0.1-2.1-0.1H203.6z
	 M213,421.6h2.4v10.5H213V421.6z M217.7,432.1v-10.4h2.4v8.7h5.9v1.8H217.7z M238.3,432.1h-2.6l-1-2.4H230l-1,2.4h-2.5l4.6-10.5h2.5
	L238.3,432.1z M233.9,428l-1.6-3.9l-1.6,3.9H233.9z M247.1,428.3l2.3,0.7c-0.4,1.1-0.9,2-1.8,2.6c-0.8,0.6-1.9,0.8-3.1,0.8
	c-1.6,0-2.8-0.5-3.9-1.4c-1-0.9-1.5-2.3-1.5-3.9c0-1.8,0.5-3.1,1.5-4.1c1-1,2.3-1.5,4-1.5c1.4,0,2.6,0.4,3.5,1.1
	c0.5,0.5,0.9,1.1,1.2,1.9L247,425c-0.1-0.5-0.4-1-0.9-1.3c-0.4-0.3-1-0.5-1.6-0.5c-0.9,0-1.6,0.3-2.1,0.9c-0.5,0.6-0.8,1.5-0.8,2.7
	c0,1.3,0.3,2.3,0.8,2.8c0.5,0.6,1.2,0.8,2.1,0.8c0.6,0,1.2-0.2,1.6-0.5C246.6,429.6,246.9,429,247.1,428.3z M251.4,421.6h2.4v10.5
	h-2.4V421.6z M255.6,427c0-1.1,0.2-2,0.5-2.7c0.3-0.5,0.6-1,1.1-1.4c0.5-0.4,1-0.7,1.5-0.9c0.7-0.3,1.6-0.4,2.5-0.4
	c1.7,0,3.1,0.5,4.2,1.4c1,1,1.6,2.3,1.6,4c0,1.7-0.5,3-1.5,4c-1,1-2.4,1.4-4.1,1.4c-1.7,0-3.2-0.5-4.2-1.4
	C256.1,429.9,255.6,428.6,255.6,427z M258,426.9c0,1.2,0.3,2.1,0.9,2.7c0.6,0.6,1.4,0.9,2.3,0.9c1,0,1.7-0.3,2.3-0.9
	c0.6-0.6,0.9-1.5,0.9-2.7c0-1.2-0.3-2.1-0.9-2.7c-0.6-0.6-1.4-0.9-2.4-0.9c-1,0-1.8,0.3-2.4,0.9C258.3,424.8,258,425.7,258,426.9z
	 M268.9,432.1v-10.5h2.3l4.8,7v-7h2.2v10.5h-2.4l-4.8-6.9v6.9H268.9z M288.3,432.1l-4.2-10.5h2.6l3,7.8l2.9-7.8h2.5l-4.2,10.5H288.3
	z M295.8,427c0-1.1,0.2-2,0.5-2.7c0.3-0.5,0.6-1,1.1-1.4c0.5-0.4,1-0.7,1.5-0.9c0.7-0.3,1.6-0.4,2.5-0.4c1.7,0,3.1,0.5,4.2,1.4
	c1,1,1.6,2.3,1.6,4c0,1.7-0.5,3-1.6,4c-1,1-2.4,1.4-4.1,1.4c-1.8,0-3.1-0.5-4.2-1.4C296.3,429.9,295.8,428.6,295.8,427z
	 M298.3,426.9c0,1.2,0.3,2.1,0.9,2.7c0.6,0.6,1.4,0.9,2.3,0.9s1.7-0.3,2.3-0.9c0.6-0.6,0.9-1.5,0.9-2.7c0-1.2-0.3-2.1-0.9-2.7
	c-0.6-0.6-1.4-0.9-2.4-0.9c-1,0-1.8,0.3-2.4,0.9C298.6,424.8,298.3,425.7,298.3,426.9z M309.1,432.1v-10.4h2.4v8.7h5.9v1.8H309.1z
	 M319.1,421.6h2.4v5.7c0,0.9,0,1.5,0.1,1.7c0.1,0.4,0.3,0.8,0.7,1c0.4,0.3,0.9,0.4,1.6,0.4c0.7,0,1.2-0.1,1.5-0.4
	c0.3-0.2,0.5-0.6,0.6-0.9c0.1-0.4,0.1-1,0.1-1.8v-5.8h2.4v5.5c0,1.3-0.1,2.2-0.2,2.7c-0.1,0.5-0.4,1-0.7,1.3
	c-0.3,0.4-0.8,0.6-1.4,0.9c-0.6,0.2-1.3,0.3-2.3,0.3c-1.1,0-2-0.1-2.6-0.4c-0.6-0.2-1-0.5-1.4-0.9c-0.3-0.4-0.6-0.8-0.7-1.2
	c-0.2-0.6-0.2-1.5-0.2-2.7V421.6z M331.1,432.1v-10.5h2.3l4.8,7v-7h2.2v10.5H338l-4.8-6.9v6.9H331.1z M345.6,432.1v-8.7h-3.5v-1.8
	h9.4v1.8H348v8.7H345.6z M362.4,432.1h-2.6l-1-2.4H354l-1,2.4h-2.5l4.6-10.5h2.5L362.4,432.1z M358,428l-1.6-3.9l-1.6,3.9H358z
	 M363.6,432.1v-10.5h5c1.3,0,2.2,0.1,2.8,0.3c0.6,0.2,1,0.5,1.4,1c0.3,0.5,0.5,1,0.5,1.7c0,0.8-0.3,1.4-0.8,2
	c-0.5,0.5-1.3,0.8-2.3,1c0.5,0.3,0.9,0.6,1.3,0.9c0.3,0.3,0.8,0.9,1.3,1.7l1.4,2.1h-2.8l-1.7-2.3c-0.6-0.8-1-1.3-1.3-1.5
	c-0.2-0.2-0.5-0.4-0.7-0.4c-0.3-0.1-0.7-0.1-1.2-0.1H366v4.4H363.6z M366,426.1h1.8c1.1,0,1.9,0,2.1-0.1c0.3-0.1,0.5-0.2,0.7-0.4
	c0.2-0.2,0.2-0.5,0.2-0.8c0-0.3-0.1-0.6-0.3-0.8c-0.2-0.2-0.5-0.4-0.9-0.4c-0.2,0-0.8,0-1.7,0H366V426.1z M375.5,421.6h2.4v10.5
	h-2.4V421.6z M390.7,432.1h-2.6l-1-2.4h-4.7l-1,2.4h-2.5l4.6-10.5h2.5L390.7,432.1z M386.3,428l-1.6-3.9l-1.6,3.9H386.3z M72,362.7
	v8.2h-6c0,0-9.9,0.8-9.9,10.3c0,0-2.5,10.1,15.9,10.1v8.2c0,0-26,1.7-26-19.1C45.9,380.5,45.5,362.7,72,362.7z M76.6,374.9v24.5h9.5
	v-21.7c0-6.4,5.8-7.1,5.8-7.1c6.4,0,5.6,7.1,5.6,7.1h-8.9v7.9h9.1v13.9h9.3V376c0-12.2-14.8-13.7-14.8-13.7
	C78,362.3,76.6,374.9,76.6,374.9z M122.3,386.7c0,4.5-4.1,4.5-4.1,4.5h-7.4v8.2h7.6c12.6,0,13.6-10.5,13.6-10.5v-26.2h-9.9
	L122.3,386.7z M138.2,376.9v22.5h9.1v-22.1c0-6.6,6-7.1,6-7.1c6,0,5.6,7.5,5.6,7.5h-8.7v8.1h8.6V400h9.9v-22.9
	c0-14.8-15.7-15.2-15.7-15.2C138.6,361.9,138.2,376.9,138.2,376.9z M330.6,376.9v22.5h9.1v-22.1c0-6.6,6-7.1,6-7.1
	c6,0,5.6,7.5,5.6,7.5h-8.8v8.1h8.6V400h9.9v-22.9c0-14.8-15.7-15.2-15.7-15.2C331,361.9,330.6,376.9,330.6,376.9z M181.9,369.4
	l-4.7,29.8h8.9l3.3-28.7l5.6,23.8c0.6,4.7,5.6,5.4,5.6,5.4c4.1,0.2,5.6-6.9,5.6-6.9l5.1-22.5l3.3,29.2h9.5l-4.5-30.9
	c-0.8-6.6-6.8-6.9-6.8-6.9c-6.6,0.2-8.7,7.9-8.7,7.9l-3.9,16.7l-3.9-16.9c-1.4-7.7-7.2-7.1-7.2-7.1
	C182.9,362.3,181.9,369.4,181.9,369.4z M228,387c0,12.2,15.2,13.1,15.2,13.1c14.6-0.2,15.5-13.5,15.5-13.5v-24.4h-10.1v24
	c0.2,4.7-4.8,5.1-4.8,5.1c-6.2,0-6-4.7-6-4.7v-24.2H228V387z M293.9,387c0,12.2,15.2,13.1,15.2,13.1c14.6-0.2,15.5-13.5,15.5-13.5
	v-24.4h-10.1v24c0.2,4.7-4.9,5.1-4.9,5.1c-6.2,0-6-4.7-6-4.7v-24.2h-9.7V387z M262.4,370.9h9.1v28.5h9.7v-28.3h8.6v-8.8h-27.4V370.9
	z M366.7,389.3c0,9.6,11.9,10.1,11.9,10.1h10.5V391h-8.6c-4.1-0.4-4.1-3.7-4.1-3.7v-24.7h-10.1L366.7,389.3z M88.7,338.4l11.2-1.6
	l-12.3,7.1l0.4,9l-6.7-4.7l-11.9,7.9l7.3-10.1l-6.7-3.5l12.1-2.6l7.4-8.9L88.7,338.4z M50.3,349.4L38.9,352l6.6,2.7l-7.7,9l11.3-7.1
	l6.4,4.6l0.7-8.3l11.3-5.6l-10.6,1.3l1.3-7.5L50.3,349.4z M17.3,368.9l-10.6,5l7.1,0.8l-2.9,8.1l9.5-7.9h9.1l-3.5-5.5l8.5-7.9
	l-11.3,5.1l-2.5-6.2L17.3,368.9z M11,400.7l-9.9,5.3l7.3,0.3c0,0-2.8,7.5-2.8,8.1c0,0.5,8.8-8.7,8.8-8.7l8.5,0.7l-3.2-5.2l6.6-7.3
	l-9.3,4.4l-3.6-5.8L11,400.7z M19.9,424.6c0,0-5.6,4.6-6,4.8c-0.4,0.3,6.4-0.5,6.4-0.5s0.3,4.8,0.3,5.2c0,0.4,5.3-7.7,5.3-7.7
	l8.1-1.9l-3.8-2.8l3.3-6.1l-7.5,4.4l-6.3-1.5L19.9,424.6z M45.3,426.2l-6.7,1.7l3.3,0.9c0,0-1.5,5.2-1.4,5.6
	c0.1,0.4,5.7-4.4,5.7-4.4l3.1,1.6l0.4-4.4l5.3-4l-5.7,1.5l-1.3-3.4L45.3,426.2z M65.1,420.6l-5.4,3.2l3.6,0.4l0.1,3.9l4.2-4.7
	l3.9,0.9l-1.3-3.4l3.3-4.6l-4.9,2.3l-2.4-3L65.1,420.6z M103.2,407.4v8.2h-3.5v-11.5h4.6c2,0,3.6,0.4,4.8,1.3c1.4,1.1,2,2.5,2,4.3
	c0,1.7-0.6,3.2-1.8,4.3c-1.2,1.1-2.7,1.6-4.5,1.6c-0.2,0-0.6,0-1.1,0v-3.4h0.6c2.1,0,3.1-0.8,3.1-2.5c0-1.6-1-2.3-3.1-2.3H103.2z
	 M119.1,408.6v2.6h-2.3c-0.3,0-0.5,0-0.7,0.1c-0.1,0.1-0.2,0.2-0.2,0.5c0,0.2,0.1,0.4,0.2,0.5c0.1,0.1,0.4,0.1,0.8,0.1h2.4v3.3h-2.8
	c-1.3,0-2.3-0.3-3-0.9c-0.7-0.6-1-1.5-1-2.6v-4.5c0-1.1,0.3-1.9,1-2.6c0.7-0.6,1.6-0.9,2.8-0.9h3.1v3.3h-2.3c-0.6,0-0.9,0.2-0.9,0.6
	c0,0.2,0.1,0.4,0.2,0.5c0.1,0.1,0.4,0.1,0.8,0.1H119.1z M133.9,410l3.7,0.1c-0.2,1.9-0.9,3.3-2,4.3c-1.1,1-2.5,1.5-4.3,1.5
	c-1.8,0-3.3-0.6-4.5-1.7c-1.2-1.1-1.8-2.6-1.8-4.3c0-1.7,0.6-3.2,1.8-4.3c1.2-1.2,2.7-1.8,4.5-1.8c1.8,0,3.2,0.6,4.4,1.7
	c0.8,0.8,1.4,1.9,1.7,3.3l-3.8,0.2c-0.4-1.3-1.2-1.9-2.4-1.9c-0.8,0-1.4,0.3-1.9,0.8c-0.5,0.5-0.7,1.1-0.7,1.9
	c0,0.7,0.2,1.4,0.7,1.9c0.5,0.5,1.1,0.7,1.8,0.7c0.8,0,1.3-0.2,1.8-0.6C133.6,411.4,133.8,410.8,133.9,410z M144.9,403.9
	c1.7,0,3.1,0.6,4.3,1.8c1.2,1.2,1.8,2.6,1.8,4.3c0,1.7-0.6,3.1-1.8,4.3c-1.2,1.2-2.7,1.8-4.4,1.8c-1.7,0-3.2-0.6-4.4-1.8
	c-1.2-1.2-1.8-2.6-1.8-4.3c0-1.7,0.6-3.1,1.8-4.3C141.7,404.4,143.2,403.9,144.9,403.9z M144.9,407.2c-0.7,0-1.3,0.3-1.9,0.8
	c-0.5,0.5-0.8,1.1-0.8,1.9c0,0.7,0.3,1.3,0.8,1.9c0.5,0.5,1.1,0.8,1.9,0.8c0.7,0,1.4-0.3,1.9-0.8c0.5-0.5,0.8-1.1,0.8-1.9
	c0-0.7-0.3-1.4-0.8-1.9C146.2,407.5,145.6,407.2,144.9,407.2z M158.4,403.9c1.7,0,3.1,0.6,4.3,1.8c1.2,1.2,1.8,2.6,1.8,4.3
	c0,1.7-0.6,3.1-1.8,4.3c-1.2,1.2-2.7,1.8-4.4,1.8c-1.7,0-3.2-0.6-4.4-1.8c-1.2-1.2-1.8-2.6-1.8-4.3c0-1.7,0.6-3.1,1.8-4.3
	C155.1,404.4,156.6,403.9,158.4,403.9z M158.3,407.2c-0.7,0-1.3,0.3-1.9,0.8c-0.5,0.5-0.8,1.1-0.8,1.9c0,0.7,0.3,1.3,0.8,1.9
	c0.5,0.5,1.1,0.8,1.9,0.8c0.7,0,1.4-0.3,1.9-0.8c0.5-0.5,0.8-1.1,0.8-1.9c0-0.7-0.3-1.4-0.8-1.9
	C159.7,407.5,159.1,407.2,158.3,407.2z M170.1,411.7v-3c0.7,0,1.1-0.3,1.1-0.8c0-0.5-0.3-0.7-0.8-0.7c-0.5,0-0.8,0.3-0.8,1v7.5H166
	v-7.2c0-0.7,0.1-1.3,0.2-1.8c0.2-0.5,0.4-0.9,0.8-1.3c0.4-0.4,0.9-0.8,1.6-1.1c0.6-0.3,1.3-0.4,1.9-0.4c1.2,0,2.2,0.4,3,1.2
	c0.8,0.8,1.2,1.8,1.2,2.9c0,1.1-0.4,2-1.1,2.7c-0.7,0.6-1.7,1-3,1L170.1,411.7z M182.6,408.6v2.6h-2.3c-0.3,0-0.5,0-0.7,0.1
	c-0.1,0.1-0.2,0.2-0.2,0.5c0,0.2,0.1,0.4,0.2,0.5c0.1,0.1,0.4,0.1,0.8,0.1h2.4v3.3h-2.8c-1.3,0-2.3-0.3-3-0.9c-0.7-0.6-1-1.5-1-2.6
	v-4.5c0-1.1,0.3-1.9,1-2.6c0.6-0.6,1.6-0.9,2.8-0.9h3.1v3.3h-2.3c-0.6,0-0.9,0.2-0.9,0.6c0,0.2,0.1,0.4,0.2,0.5
	c0.1,0.1,0.4,0.1,0.8,0.1H182.6z M188.4,407.2v8.4h-3.5v-11.5h4.6c1.4,0,2.5,0.3,3.2,1c0.8,0.7,1.3,1.7,1.3,2.8
	c0,1.2-0.5,2.1-1.6,2.9l2,4.7h-3.7l-1.7-3.7v-3h0.3c0.8,0,1.1-0.3,1.1-0.9c0-0.5-0.4-0.8-1.3-0.8H188.4z M199.9,409.9v3h-1v2.7h-3.5
	v-7.3c0-1.4,0.4-2.5,1.2-3.3c0.8-0.8,1.9-1.2,3.4-1.2c1.4,0,2.4,0.4,3.1,1.1c0.7,0.7,1,1.8,1,3.3v7.4h-3.6v-7.2c0-0.4,0-0.8-0.2-0.9
	c-0.1-0.2-0.3-0.3-0.6-0.3c-0.6,0-0.8,0.4-0.8,1.2v1.4H199.9z M211.4,407.4v8.2h-3.6v-8.2h-2.7v-3.3h9v3.3H211.4z M218.9,415.6h-3.5
	v-11.5h3.5V415.6z M229.9,404.1l-5.2,12.1l-5.2-12.1h4.1l1.1,3.6l1.2-3.6H229.9z M234.2,415.6h-3.5v-11.5h3.5V415.6z M242.2,404.1
	v3.3c-0.3-0.1-0.5-0.1-0.6-0.1c-0.3,0-0.5,0.1-0.7,0.3c-0.2,0.2-0.3,0.4-0.3,0.7c0,0.2,0.1,0.5,0.3,0.9l0.3,0.5
	c0.5,0.8,0.7,1.6,0.7,2.4c0,1.1-0.4,2.1-1.2,2.8c-0.8,0.8-1.8,1.2-3,1.2c-0.6,0-1.1-0.1-1.7-0.4v-3.3c0.3,0.2,0.6,0.3,0.9,0.3
	c0.3,0,0.6-0.1,0.8-0.3c0.2-0.2,0.3-0.4,0.3-0.6c0-0.2-0.2-0.5-0.5-1.1c-0.5-0.9-0.8-1.8-0.8-2.7c0-1.1,0.4-2,1.2-2.8
	c0.8-0.8,1.8-1.2,2.9-1.2C241.2,403.9,241.7,403.9,242.2,404.1z M249.1,407.4v8.2h-3.6v-8.2h-2.7v-3.3h9v3.3H249.1z M257.5,409.9v3
	h-1v2.7h-3.5v-7.3c0-1.4,0.4-2.5,1.2-3.3c0.8-0.8,1.9-1.2,3.4-1.2c1.4,0,2.4,0.4,3.1,1.1c0.7,0.7,1,1.8,1,3.3v7.4H258v-7.2
	c0-0.4-0.1-0.8-0.2-0.9c-0.1-0.2-0.3-0.3-0.6-0.3c-0.5,0-0.8,0.4-0.8,1.2v1.4H257.5z M269.3,404.1v3.3c-0.3-0.1-0.5-0.1-0.6-0.1
	c-0.3,0-0.5,0.1-0.7,0.3c-0.2,0.2-0.3,0.4-0.3,0.7c0,0.2,0.1,0.5,0.3,0.9l0.3,0.5c0.5,0.8,0.7,1.6,0.7,2.4c0,1.1-0.4,2.1-1.2,2.8
	c-0.8,0.8-1.8,1.2-3,1.2c-0.6,0-1.1-0.1-1.7-0.4v-3.3c0.3,0.2,0.6,0.3,0.9,0.3c0.3,0,0.6-0.1,0.8-0.3c0.2-0.2,0.3-0.4,0.3-0.6
	c0-0.2-0.2-0.5-0.5-1.1c-0.5-0.9-0.8-1.8-0.8-2.7c0-1.1,0.4-2,1.2-2.8c0.8-0.8,1.8-1.2,2.9-1.2C268.4,403.9,268.9,403.9,269.3,404.1
	z M279.1,407.4v8.2h-3.5v-11.5h4.6c2,0,3.6,0.4,4.8,1.3c1.4,1.1,2,2.5,2,4.3c0,1.7-0.6,3.2-1.7,4.3c-1.2,1.1-2.7,1.6-4.5,1.6
	c-0.2,0-0.6,0-1.1,0v-3.4h0.6c2.1,0,3.1-0.8,3.1-2.5c0-1.6-1-2.3-3-2.3H279.1z M295,408.6v2.6h-2.3c-0.3,0-0.5,0-0.7,0.1
	c-0.1,0.1-0.2,0.2-0.2,0.5c0,0.2,0.1,0.4,0.2,0.5c0.1,0.1,0.4,0.1,0.8,0.1h2.4v3.3h-2.8c-1.3,0-2.3-0.3-3-0.9c-0.7-0.6-1-1.5-1-2.6
	v-4.5c0-1.1,0.3-1.9,1-2.6c0.7-0.6,1.6-0.9,2.8-0.9h3.1v3.3H293c-0.6,0-0.9,0.2-0.9,0.6c0,0.2,0.1,0.4,0.2,0.5
	c0.1,0.1,0.4,0.1,0.8,0.1H295z M297.1,404.1h3.5v6.8c0,0.5,0.1,0.9,0.3,1.1c0.2,0.2,0.5,0.3,1,0.3h0.2v3.3h-0.9
	c-1.3,0-2.3-0.4-3-1.1c-0.7-0.7-1.1-1.7-1.1-3V404.1z M311.6,411.7v-3c0.7,0,1.1-0.3,1.1-0.8c0-0.5-0.3-0.7-0.8-0.7
	c-0.5,0-0.8,0.3-0.8,1v7.5h-3.5v-7.2c0-0.7,0.1-1.3,0.2-1.8c0.2-0.5,0.4-0.9,0.8-1.3c0.4-0.4,0.9-0.8,1.6-1.1c0.6-0.3,1.3-0.4,2-0.4
	c1.2,0,2.2,0.4,3,1.2c0.8,0.8,1.2,1.8,1.2,2.9c0,1.1-0.4,2-1.1,2.7c-0.7,0.6-1.7,1-3.1,1L311.6,411.7z M322.1,409.9v3h-1v2.7h-3.5
	v-7.3c0-1.4,0.4-2.5,1.2-3.3c0.8-0.8,1.9-1.2,3.4-1.2c1.4,0,2.4,0.4,3.1,1.1c0.7,0.7,1,1.8,1,3.3v7.4h-3.5v-7.2
	c0-0.4-0.1-0.8-0.2-0.9c-0.1-0.2-0.3-0.3-0.6-0.3c-0.6,0-0.8,0.4-0.8,1.2v1.4H322.1z M331.9,407.2v8.4h-3.5v-11.5h4.5
	c1.4,0,2.5,0.3,3.2,1c0.9,0.7,1.3,1.7,1.3,2.8c0,1.2-0.5,2.1-1.6,2.9l2,4.7h-3.7l-1.7-3.7v-3h0.3c0.7,0,1.1-0.3,1.1-0.9
	c0-0.5-0.4-0.8-1.3-0.8H331.9z M343.4,409.9v3h-1v2.7h-3.5v-7.3c0-1.4,0.4-2.5,1.2-3.3c0.8-0.8,1.9-1.2,3.4-1.2
	c1.4,0,2.4,0.4,3.1,1.1c0.7,0.7,1,1.8,1,3.3v7.4H344v-7.2c0-0.4-0.1-0.8-0.2-0.9c-0.1-0.2-0.3-0.3-0.6-0.3c-0.6,0-0.8,0.4-0.8,1.2
	v1.4H343.4z M354.7,409.2h3.4c0.7,0.9,1.1,1.8,1.1,2.8c0,1.1-0.4,2.1-1.3,2.8c-0.9,0.8-1.9,1.1-3.1,1.1c-1.6,0-3-0.6-4.1-1.8
	c-1.1-1.2-1.7-2.6-1.7-4.3c0-1.7,0.6-3.1,1.7-4.3c1.1-1.1,2.6-1.7,4.3-1.7c0.6,0,1.2,0.1,2,0.3v3.4c-0.6-0.3-1.1-0.4-1.5-0.4
	c-0.8,0-1.5,0.3-2,0.7c-0.5,0.5-0.8,1.2-0.8,1.9c0,0.8,0.2,1.5,0.7,1.9c0.5,0.5,1.2,0.7,2,0.7c0.5,0,0.8-0.1,0.8-0.4
	c0-0.2-0.2-0.3-0.5-0.3h-0.8V409.2z M369,404.1v7.5c0,1.3-0.4,2.4-1.2,3.1c-0.8,0.8-1.9,1.2-3.2,1.2c-1.4,0-2.4-0.4-3.1-1.1
	c-0.7-0.8-1.1-1.9-1.1-3.3v-7.3h3.5v7.3c0,0.7,0.3,1.1,0.8,1.1c0.5,0,0.7-0.4,0.7-1.1v-7.3H369z M375.4,409.9v3h-1v2.7h-3.5v-7.3
	c0-1.4,0.4-2.5,1.2-3.3c0.8-0.8,1.9-1.2,3.4-1.2c1.4,0,2.4,0.4,3.1,1.1c0.7,0.7,1,1.8,1,3.3v7.4H376v-7.2c0-0.4-0.1-0.8-0.2-0.9
	c-0.1-0.2-0.3-0.3-0.6-0.3c-0.6,0-0.8,0.4-0.8,1.2v1.4H375.4z M390.1,404.1l-3.4,5.1v6.4h-3.5v-6.4l-3.4-5.1h3.6l1.5,2.4l1.7-2.4
	H390.1z M98.8,432.1v-10.4h2.4v8.7h5.9v1.8H98.8z"/>
<g>
	<path class="st1" d="M121.1,333c1,0,1.9,0.2,2.8,0.5c0.9,0.4,1.7,0.9,2.4,1.5c0.7,0.7,1.2,1.4,1.6,2.3c0.4,0.8,0.5,1.7,0.5,2.7
		c0,0.9-0.2,1.8-0.5,2.7c-0.4,0.8-0.9,1.6-1.6,2.3c-0.7,0.7-1.5,1.2-2.4,1.5c-0.9,0.3-1.8,0.5-2.8,0.5h-6c-0.2,0-0.3,0-0.4-0.1
		c-0.1-0.1-0.1-0.2-0.1-0.4v-13c0-0.1,0-0.2,0.1-0.3c0.1-0.1,0.2-0.2,0.4-0.2H121.1z M115.6,334v12h5.5c0.8,0,1.6-0.2,2.4-0.5
		s1.4-0.7,2-1.3c0.6-0.6,1-1.2,1.4-1.9s0.5-1.5,0.5-2.3s-0.2-1.6-0.5-2.3s-0.8-1.4-1.4-2c-0.6-0.6-1.3-1-2-1.3s-1.6-0.5-2.4-0.5
		H115.6z"/>
	<path class="st1" d="M142.7,346.2c0.1,0.1,0.1,0.2,0.1,0.4s0,0.3-0.1,0.4c-0.1,0.1-0.2,0.1-0.4,0.1h-9.7c-0.2,0-0.3,0-0.4-0.1
		c-0.1-0.1-0.1-0.2-0.1-0.4v-13c0-0.1,0-0.2,0.1-0.3c0.1-0.1,0.2-0.2,0.4-0.2h9.7c0.2,0,0.3,0,0.4,0.2c0.1,0.1,0.1,0.2,0.1,0.3
		c0,0.1,0,0.3-0.1,0.4c-0.1,0.1-0.2,0.1-0.4,0.1h-9.2v5.5h8c0.1,0,0.3,0,0.4,0.1c0.1,0.1,0.2,0.2,0.2,0.4s-0.1,0.3-0.2,0.4
		c-0.1,0.1-0.2,0.1-0.4,0.1h-8v5.5h9.2C142.5,346,142.6,346.1,142.7,346.2z"/>
	<path class="st1" d="M147.9,333.6c0.9-0.6,2-0.9,3.4-0.9c0.7,0,1.5,0.1,2.3,0.2s1.5,0.3,2,0.6c0.1,0.1,0.2,0.1,0.3,0.3
		c0,0.1,0,0.3,0,0.4c-0.1,0.1-0.2,0.2-0.3,0.3c-0.1,0.1-0.3,0-0.4,0c-0.5-0.2-1.1-0.4-1.8-0.5c-0.7-0.1-1.4-0.2-2.1-0.2
		c-0.6,0-1.1,0.1-1.6,0.2c-0.5,0.1-0.9,0.3-1.2,0.5c-0.7,0.5-1.1,1.1-1.1,2c0,0.7,0.4,1.3,1.1,1.8c0.7,0.4,1.6,0.7,2.9,0.9
		c1.8,0.3,3.2,0.7,4.1,1.4c0.9,0.7,1.4,1.6,1.4,2.7c0,1.3-0.6,2.3-1.7,3.1c-1,0.7-2.3,1-3.9,1c-2,0-3.8-0.5-5.1-1.6
		c-0.1-0.1-0.2-0.2-0.2-0.3c0-0.1,0-0.3,0.1-0.4c0.1-0.1,0.2-0.2,0.4-0.2c0.1,0,0.3,0,0.4,0.1c1.2,0.9,2.7,1.3,4.5,1.3
		c0.7,0,1.3-0.1,1.8-0.2c0.6-0.1,1.1-0.3,1.5-0.6c0.8-0.6,1.3-1.3,1.3-2.3c0-0.8-0.4-1.5-1.2-2c-0.4-0.3-0.9-0.5-1.5-0.7
		c-0.6-0.2-1.2-0.3-1.9-0.4c-1.4-0.2-2.5-0.5-3.3-1c-0.5-0.3-0.9-0.7-1.1-1.1c-0.3-0.5-0.4-1-0.4-1.5
		C146.3,335.2,146.9,334.3,147.9,333.6z"/>
	<path class="st1" d="M174,346.3c0.1,0.1,0.1,0.2,0,0.4s-0.1,0.2-0.2,0.3c-0.1,0.1-0.3,0.1-0.4,0c-0.1,0-0.2-0.1-0.3-0.2
		c-0.2-0.3-0.3-0.6-0.5-0.9c-0.2-0.3-0.3-0.6-0.5-1c-0.2-0.4-0.4-0.8-0.7-1.3h-9.6c-0.2,0.5-0.5,0.9-0.7,1.3c-0.2,0.4-0.4,0.7-0.5,1
		c-0.2,0.3-0.3,0.7-0.5,0.9c-0.1,0.1-0.2,0.2-0.3,0.2c-0.1,0-0.3,0-0.4,0c-0.1-0.1-0.2-0.2-0.3-0.3s0-0.2,0-0.4l7-13
		c0.1-0.2,0.2-0.3,0.5-0.3s0.4,0.1,0.5,0.3L174,346.3z M170.8,342.5c-0.4-0.8-0.9-1.6-1.3-2.4s-0.9-1.6-1.3-2.4
		c-0.4-0.7-0.8-1.4-1-1.9c-0.3-0.6-0.5-0.9-0.6-1.2c-0.1,0.2-0.3,0.6-0.6,1.2c-0.3,0.6-0.6,1.2-1,1.9c-0.4,0.7-0.8,1.5-1.3,2.4
		c-0.4,0.8-0.9,1.7-1.3,2.4H170.8z"/>
	<path class="st1" d="M188.5,346.3c0.1,0.1,0.2,0.2,0.2,0.4c0,0.1-0.1,0.3-0.2,0.4c-0.1,0.1-0.2,0.1-0.4,0.1s-0.3-0.1-0.4-0.2
		l-4.6-4.8h-5.2v4.4c0,0.1,0,0.3-0.1,0.4c-0.1,0.1-0.2,0.1-0.4,0.1s-0.3,0-0.4-0.1c-0.1-0.1-0.1-0.2-0.1-0.4v-13
		c0-0.1,0-0.2,0.1-0.3c0.1-0.1,0.2-0.2,0.4-0.2h6.3c0.6,0,1.3,0.1,1.8,0.4c0.6,0.2,1.1,0.6,1.5,1c0.4,0.4,0.8,0.9,1,1.4
		c0.2,0.6,0.4,1.1,0.4,1.8c0,0.6-0.1,1.1-0.3,1.6c-0.2,0.5-0.5,0.9-0.8,1.3c-0.4,0.4-0.8,0.7-1.2,1s-1,0.4-1.5,0.5L188.5,346.3z
		 M177.8,341.1h5.8c0.5,0,1-0.1,1.4-0.3c0.4-0.2,0.8-0.4,1.2-0.8c0.3-0.3,0.6-0.7,0.8-1.1c0.2-0.4,0.3-0.9,0.3-1.4
		c0-0.5-0.1-0.9-0.3-1.4c-0.2-0.4-0.5-0.8-0.8-1.1c-0.3-0.3-0.7-0.6-1.2-0.8s-0.9-0.3-1.4-0.3h-5.8V341.1z"/>
	<path class="st1" d="M204,346.3c0.1,0.1,0.2,0.2,0.2,0.4c0,0.1-0.1,0.3-0.2,0.4c-0.1,0.1-0.2,0.1-0.4,0.1c-0.1,0-0.3-0.1-0.4-0.2
		l-4.6-4.8h-5.2v4.4c0,0.1,0,0.3-0.1,0.4c-0.1,0.1-0.2,0.1-0.4,0.1s-0.3,0-0.4-0.1c-0.1-0.1-0.1-0.2-0.1-0.4v-13
		c0-0.1,0-0.2,0.1-0.3c0.1-0.1,0.2-0.2,0.4-0.2h6.3c0.7,0,1.3,0.1,1.8,0.4c0.6,0.2,1.1,0.6,1.5,1c0.4,0.4,0.8,0.9,1,1.4
		c0.2,0.6,0.4,1.1,0.4,1.8c0,0.6-0.1,1.1-0.3,1.6c-0.2,0.5-0.5,0.9-0.8,1.3c-0.4,0.4-0.8,0.7-1.2,1c-0.5,0.3-1,0.4-1.5,0.5
		L204,346.3z M193.4,341.1h5.8c0.5,0,1-0.1,1.4-0.3c0.4-0.2,0.8-0.4,1.2-0.8c0.3-0.3,0.6-0.7,0.8-1.1s0.3-0.9,0.3-1.4
		c0-0.5-0.1-0.9-0.3-1.4c-0.2-0.4-0.5-0.8-0.8-1.1c-0.3-0.3-0.7-0.6-1.2-0.8c-0.4-0.2-0.9-0.3-1.4-0.3h-5.8V341.1z"/>
	<path class="st1" d="M209.3,334.9c0.7-0.7,1.5-1.2,2.4-1.6c0.9-0.4,1.9-0.5,2.9-0.5c1,0,2,0.2,2.9,0.5c0.9,0.4,1.7,0.9,2.4,1.6
		c0.7,0.7,1.2,1.5,1.6,2.4c0.4,0.9,0.6,1.8,0.6,2.8c0,1-0.2,1.9-0.6,2.8c-0.4,0.9-0.9,1.7-1.6,2.4c-0.7,0.7-1.5,1.2-2.4,1.6
		c-0.9,0.4-1.9,0.5-2.9,0.5c-1,0-2-0.2-2.9-0.5c-0.9-0.4-1.7-0.9-2.4-1.6c-0.7-0.7-1.3-1.5-1.6-2.4s-0.6-1.8-0.6-2.8
		c0-1,0.2-1.9,0.6-2.8S208.6,335.6,209.3,334.9z M210,344.5c0.6,0.6,1.3,1.1,2.1,1.4c0.8,0.3,1.6,0.5,2.5,0.5s1.7-0.2,2.5-0.5
		s1.5-0.8,2.1-1.4c0.6-0.6,1.1-1.3,1.4-2c0.3-0.8,0.5-1.6,0.5-2.4s-0.2-1.6-0.5-2.4c-0.3-0.8-0.8-1.4-1.4-2
		c-0.6-0.6-1.3-1.1-2.1-1.4s-1.6-0.5-2.5-0.5s-1.7,0.2-2.5,0.5c-0.8,0.3-1.5,0.8-2.1,1.4s-1.1,1.3-1.4,2c-0.3,0.8-0.5,1.5-0.5,2.4
		s0.2,1.6,0.5,2.4C208.9,343.2,209.4,343.9,210,344.5z"/>
	<path class="st1" d="M226,333.2c0.1-0.1,0.2-0.2,0.4-0.2s0.3,0,0.4,0.2c0.1,0.1,0.1,0.2,0.1,0.3V346h9.2c0.2,0,0.3,0,0.4,0.1
		c0.1,0.1,0.1,0.2,0.1,0.4s0,0.3-0.1,0.4c-0.1,0.1-0.2,0.1-0.4,0.1h-9.7c-0.2,0-0.3,0-0.4-0.1c-0.1-0.1-0.1-0.2-0.1-0.4v-13
		C225.9,333.4,226,333.3,226,333.2z"/>
	<path class="st1" d="M239.3,333.2c0.1-0.1,0.2-0.2,0.4-0.2s0.3,0,0.4,0.2c0.1,0.1,0.1,0.2,0.1,0.3V346h9.2c0.2,0,0.3,0,0.4,0.1
		c0.1,0.1,0.1,0.2,0.1,0.4s0,0.3-0.1,0.4c-0.1,0.1-0.2,0.1-0.4,0.1h-9.7c-0.2,0-0.3,0-0.4-0.1c-0.1-0.1-0.1-0.2-0.1-0.4v-13
		C239.1,333.4,239.2,333.3,239.3,333.2z"/>
	<path class="st1" d="M265.5,346.3c0.1,0.1,0.1,0.2,0,0.4c0,0.1-0.1,0.2-0.2,0.3c-0.1,0.1-0.3,0.1-0.4,0c-0.1,0-0.2-0.1-0.3-0.2
		c-0.2-0.3-0.3-0.6-0.5-0.9c-0.2-0.3-0.3-0.6-0.5-1c-0.2-0.4-0.4-0.8-0.7-1.3h-9.6c-0.2,0.5-0.5,0.9-0.7,1.3c-0.2,0.4-0.4,0.7-0.5,1
		c-0.2,0.3-0.3,0.7-0.5,0.9c-0.1,0.1-0.2,0.2-0.3,0.2c-0.1,0-0.3,0-0.4,0c-0.1-0.1-0.2-0.2-0.3-0.3c0-0.1,0-0.2,0-0.4l7-13
		c0.1-0.2,0.2-0.3,0.5-0.3c0.2,0,0.4,0.1,0.5,0.3L265.5,346.3z M262.3,342.5c-0.4-0.8-0.9-1.6-1.3-2.4c-0.5-0.8-0.9-1.6-1.3-2.4
		c-0.4-0.7-0.8-1.4-1-1.9c-0.3-0.6-0.5-0.9-0.6-1.2c-0.1,0.2-0.3,0.6-0.6,1.2c-0.3,0.6-0.6,1.2-1,1.9c-0.4,0.7-0.8,1.5-1.3,2.4
		s-0.9,1.7-1.3,2.4H262.3z"/>
	<path class="st1" d="M286.3,333.2c0.1,0.1,0.1,0.2,0.1,0.3c0,0.1,0,0.3-0.1,0.4c-0.1,0.1-0.2,0.1-0.4,0.1h-9.2v5.5h8
		c0.1,0,0.3,0,0.4,0.1c0.1,0.1,0.2,0.2,0.2,0.4s-0.1,0.3-0.2,0.4c-0.1,0.1-0.2,0.1-0.4,0.1h-8v6c0,0.1,0,0.3-0.1,0.4
		c-0.1,0.1-0.2,0.1-0.4,0.1s-0.3,0-0.4-0.1c-0.1-0.1-0.1-0.2-0.1-0.4v-13c0-0.1,0-0.2,0.1-0.3c0.1-0.1,0.2-0.2,0.4-0.2h9.7
		C286.1,333,286.2,333.1,286.3,333.2z"/>
	<path class="st1" d="M289.5,333.2c0.1-0.1,0.2-0.2,0.4-0.2s0.3,0,0.4,0.2c0.1,0.1,0.1,0.2,0.1,0.3v13c0,0.1,0,0.3-0.1,0.4
		c-0.1,0.1-0.2,0.1-0.4,0.1s-0.3,0-0.4-0.1c-0.1-0.1-0.1-0.2-0.1-0.4v-13C289.3,333.4,289.4,333.3,289.5,333.2z"/>
	<path class="st1" d="M295.3,333.1c0.2-0.1,0.4,0,0.6,0.1c1.7,1.9,3.2,3.7,4.7,5.3c0.6,0.7,1.2,1.4,1.8,2.1c0.6,0.7,1.2,1.3,1.7,1.9
		c0.5,0.6,1,1.1,1.4,1.6c0.4,0.5,0.7,0.8,0.9,1v-11.6c0-0.1,0-0.2,0.1-0.3c0.1-0.1,0.2-0.2,0.4-0.2s0.3,0.1,0.4,0.2s0.1,0.2,0.1,0.3
		v13c0,0.2-0.1,0.4-0.3,0.4c-0.2,0.1-0.4,0.1-0.6-0.1c-1.7-1.9-3.2-3.7-4.7-5.3c-0.6-0.7-1.2-1.4-1.8-2.1s-1.2-1.3-1.7-1.9
		s-1-1.1-1.4-1.6s-0.7-0.8-0.9-1v11.6c0,0.1-0.1,0.3-0.2,0.4c-0.1,0.1-0.2,0.1-0.4,0.1c-0.2,0-0.3,0-0.4-0.1
		c-0.1-0.1-0.1-0.2-0.1-0.4v-13C294.9,333.3,295.1,333.1,295.3,333.1z"/>
	<path class="st1" d="M325.1,346.3c0.1,0.1,0.1,0.2,0,0.4c0,0.1-0.1,0.2-0.2,0.3c-0.1,0.1-0.3,0.1-0.4,0c-0.1,0-0.2-0.1-0.3-0.2
		c-0.2-0.3-0.3-0.6-0.5-0.9c-0.2-0.3-0.3-0.6-0.5-1c-0.2-0.4-0.4-0.8-0.7-1.3h-9.6c-0.2,0.5-0.5,0.9-0.7,1.3c-0.2,0.4-0.4,0.7-0.5,1
		c-0.2,0.3-0.3,0.7-0.5,0.9c-0.1,0.1-0.2,0.2-0.3,0.2c-0.1,0-0.3,0-0.4,0c-0.1-0.1-0.2-0.2-0.3-0.3c0-0.1,0-0.2,0-0.4l7-13
		c0.1-0.2,0.2-0.3,0.5-0.3c0.2,0,0.4,0.1,0.5,0.3L325.1,346.3z M321.9,342.5c-0.4-0.8-0.9-1.6-1.3-2.4c-0.5-0.8-0.9-1.6-1.3-2.4
		c-0.4-0.7-0.8-1.4-1-1.9c-0.3-0.6-0.5-0.9-0.6-1.2c-0.1,0.2-0.3,0.6-0.6,1.2c-0.3,0.6-0.6,1.2-1,1.9c-0.4,0.7-0.8,1.5-1.3,2.4
		s-0.9,1.7-1.3,2.4H321.9z"/>
	<path class="st1" d="M328.2,333.1c0.2-0.1,0.4,0,0.6,0.1c1.7,1.9,3.2,3.7,4.7,5.3c0.6,0.7,1.2,1.4,1.8,2.1c0.6,0.7,1.2,1.3,1.7,1.9
		c0.5,0.6,1,1.1,1.4,1.6c0.4,0.5,0.7,0.8,0.9,1v-11.6c0-0.1,0-0.2,0.1-0.3c0.1-0.1,0.2-0.2,0.4-0.2s0.3,0.1,0.4,0.2s0.1,0.2,0.1,0.3
		v13c0,0.2-0.1,0.4-0.3,0.4c-0.2,0.1-0.4,0.1-0.6-0.1c-1.7-1.9-3.2-3.7-4.7-5.3c-0.6-0.7-1.2-1.4-1.8-2.1s-1.2-1.3-1.7-1.9
		s-1-1.1-1.4-1.6s-0.7-0.8-0.9-1v11.6c0,0.1-0.1,0.3-0.2,0.4c-0.1,0.1-0.2,0.1-0.4,0.1c-0.2,0-0.3,0-0.4-0.1
		c-0.1-0.1-0.1-0.2-0.1-0.4v-13C327.9,333.3,328,333.1,328.2,333.1z"/>
	<path class="st1" d="M346.3,334.9c0.7-0.7,1.5-1.2,2.4-1.6c0.9-0.4,1.9-0.5,2.9-0.5c1,0,2,0.2,2.9,0.5c0.9,0.4,1.7,0.9,2.4,1.6
		c0.1,0.1,0.2,0.2,0.2,0.4c0,0.1-0.1,0.3-0.2,0.4s-0.2,0.2-0.4,0.2c-0.1,0-0.3-0.1-0.4-0.2c-0.6-0.6-1.3-1.1-2.1-1.4
		s-1.6-0.5-2.5-0.5s-1.7,0.2-2.5,0.5s-1.5,0.8-2.1,1.4c-0.6,0.6-1.1,1.3-1.4,2c-0.3,0.8-0.5,1.5-0.5,2.4s0.2,1.6,0.5,2.4
		c0.3,0.8,0.8,1.4,1.4,2c0.6,0.6,1.3,1.1,2.1,1.4s1.6,0.5,2.5,0.5s1.7-0.2,2.5-0.5s1.5-0.8,2.1-1.4c0.1-0.1,0.2-0.2,0.4-0.2
		c0.1,0,0.3,0.1,0.4,0.2c0.1,0.1,0.2,0.2,0.2,0.3s-0.1,0.2-0.2,0.3c-0.7,0.7-1.5,1.2-2.4,1.6c-0.9,0.4-1.9,0.5-2.9,0.5
		c-1,0-2-0.2-2.9-0.5c-0.9-0.4-1.7-0.9-2.4-1.6c-0.7-0.7-1.2-1.5-1.6-2.4c-0.4-0.9-0.6-1.8-0.6-2.8c0-1,0.2-1.9,0.6-2.8
		C345,336.4,345.5,335.6,346.3,334.9z"/>
	<path class="st1" d="M361,333.2c0.1-0.1,0.2-0.2,0.4-0.2s0.3,0,0.4,0.2c0.1,0.1,0.1,0.2,0.1,0.3v13c0,0.1,0,0.3-0.1,0.4
		c-0.1,0.1-0.2,0.1-0.4,0.1s-0.3,0-0.4-0.1c-0.1-0.1-0.1-0.2-0.1-0.4v-13C360.8,333.4,360.9,333.3,361,333.2z"/>
	<path class="st1" d="M379.6,346.3c0.1,0.1,0.1,0.2,0,0.4c0,0.1-0.1,0.2-0.2,0.3c-0.1,0.1-0.3,0.1-0.4,0c-0.1,0-0.2-0.1-0.3-0.2
		c-0.2-0.3-0.3-0.6-0.5-0.9c-0.2-0.3-0.3-0.6-0.5-1c-0.2-0.4-0.4-0.8-0.7-1.3h-9.6c-0.2,0.5-0.5,0.9-0.7,1.3c-0.2,0.4-0.4,0.7-0.5,1
		c-0.2,0.3-0.3,0.7-0.5,0.9c-0.1,0.1-0.2,0.2-0.3,0.2c-0.1,0-0.3,0-0.4,0c-0.1-0.1-0.2-0.2-0.3-0.3c0-0.1,0-0.2,0-0.4l7-13
		c0.1-0.2,0.2-0.3,0.5-0.3c0.2,0,0.4,0.1,0.5,0.3L379.6,346.3z M376.3,342.5c-0.4-0.8-0.9-1.6-1.3-2.4c-0.5-0.8-0.9-1.6-1.3-2.4
		c-0.4-0.7-0.8-1.4-1-1.9c-0.3-0.6-0.5-0.9-0.6-1.2c-0.1,0.2-0.3,0.6-0.6,1.2c-0.3,0.6-0.6,1.2-1,1.9c-0.4,0.7-0.8,1.5-1.3,2.4
		s-0.9,1.7-1.3,2.4H376.3z"/>
	<path class="st1" d="M383.4,340.8c0,0.2-0.1,0.4-0.2,0.6c-0.2,0.2-0.4,0.2-0.6,0.2c-0.2,0-0.4-0.1-0.6-0.2s-0.2-0.3-0.2-0.6
		c0-0.2,0.1-0.4,0.2-0.6s0.4-0.2,0.6-0.2c0.2,0,0.4,0.1,0.6,0.2C383.3,340.4,383.4,340.6,383.4,340.8z M383.4,346.2
		c0,0.2-0.1,0.4-0.2,0.6c-0.2,0.2-0.4,0.2-0.6,0.2c-0.2,0-0.4-0.1-0.6-0.2c-0.2-0.2-0.2-0.3-0.2-0.6s0.1-0.4,0.2-0.6
		s0.4-0.2,0.6-0.2c0.2,0,0.4,0.1,0.6,0.2C383.3,345.8,383.4,346,383.4,346.2z"/>
</g>
<g>
	<path class="st1" d="M277.5,203.9c0.1,0.1,0.1,0.2,0,0.3c0,0.1-0.1,0.2-0.2,0.2c-0.1,0.1-0.2,0.1-0.3,0s-0.2-0.1-0.3-0.2
		c-0.1-0.2-0.3-0.5-0.4-0.8c-0.1-0.3-0.3-0.5-0.5-0.9s-0.4-0.7-0.6-1.1H267c-0.2,0.4-0.4,0.8-0.6,1.1c-0.2,0.3-0.3,0.6-0.5,0.9
		c-0.2,0.3-0.3,0.6-0.4,0.8c-0.1,0.1-0.1,0.2-0.3,0.2c-0.1,0-0.2,0-0.3,0s-0.2-0.1-0.2-0.2c0-0.1,0-0.2,0-0.3l6-11.1
		c0.1-0.2,0.2-0.2,0.4-0.2c0.2,0,0.3,0.1,0.4,0.2L277.5,203.9z M274.7,200.6c-0.4-0.7-0.7-1.4-1.1-2.1c-0.4-0.7-0.7-1.4-1.1-2
		c-0.3-0.6-0.6-1.2-0.9-1.6s-0.4-0.8-0.5-1c-0.1,0.2-0.3,0.5-0.5,1c-0.3,0.5-0.6,1-0.9,1.6c-0.3,0.6-0.7,1.3-1.1,2
		c-0.4,0.7-0.8,1.4-1.1,2.1H274.7z"/>
	<path class="st1" d="M280.1,192.6c0.2-0.1,0.4,0,0.5,0.1c1.4,1.6,2.8,3.2,4,4.6c0.5,0.6,1,1.2,1.6,1.8c0.5,0.6,1,1.2,1.5,1.7
		c0.5,0.5,0.9,1,1.2,1.4c0.3,0.4,0.6,0.7,0.8,0.9V193c0-0.1,0-0.2,0.1-0.3c0.1-0.1,0.2-0.1,0.3-0.1c0.1,0,0.2,0,0.3,0.1
		c0.1,0.1,0.1,0.2,0.1,0.3v11.1c0,0.2-0.1,0.3-0.3,0.4c-0.2,0.1-0.4,0-0.5-0.1c-1.4-1.6-2.8-3.2-4-4.6c-0.5-0.6-1-1.2-1.6-1.8
		c-0.5-0.6-1-1.1-1.5-1.7c-0.5-0.5-0.9-1-1.2-1.4s-0.6-0.7-0.8-0.9v9.9c0,0.1,0,0.2-0.1,0.3c-0.1,0.1-0.2,0.1-0.3,0.1
		c-0.1,0-0.2,0-0.3-0.1c-0.1-0.1-0.1-0.2-0.1-0.3V193C279.8,192.8,279.9,192.6,280.1,192.6z M285,189.7c0.6-0.5,1.4-0.7,2.1-0.5
		c0.3,0.1,0.5,0.2,0.7,0.3c0.2,0.1,0.3,0.2,0.3,0.2c0.1,0.1,0.1,0.2,0.2,0.3s0,0.2-0.1,0.3c-0.1,0.1-0.2,0.1-0.3,0.2
		c-0.1,0-0.2,0-0.3-0.1c-0.1,0-0.1-0.1-0.2-0.1c-0.1,0-0.1-0.1-0.2-0.1c-0.1,0-0.2-0.1-0.3-0.1c-0.5-0.1-0.9,0-1.3,0.3
		c-0.6,0.5-1.3,0.7-2.1,0.5c-0.3-0.1-0.5-0.2-0.7-0.3c-0.2-0.1-0.3-0.2-0.3-0.2c-0.1-0.1-0.1-0.2-0.2-0.3c0-0.1,0-0.2,0.1-0.3
		c0.1-0.1,0.2-0.1,0.3-0.2c0.1,0,0.2,0,0.3,0.1c0.1,0,0.1,0.1,0.2,0.1c0.1,0,0.1,0.1,0.2,0.1c0.1,0,0.2,0.1,0.3,0.1
		C284.1,190.1,284.6,190,285,189.7z"/>
	<path class="st1" d="M295.5,194.1c0.6-0.6,1.3-1,2.1-1.3c0.8-0.3,1.6-0.5,2.5-0.5c0.9,0,1.7,0.2,2.5,0.5c0.8,0.3,1.5,0.8,2.1,1.3
		c0.6,0.6,1.1,1.3,1.4,2s0.5,1.5,0.5,2.4c0,0.8-0.2,1.6-0.5,2.4s-0.8,1.4-1.4,2c-0.6,0.6-1.3,1-2.1,1.3c-0.8,0.3-1.6,0.5-2.5,0.5
		c-0.9,0-1.7-0.2-2.5-0.5c-0.8-0.3-1.5-0.8-2.1-1.3c-0.6-0.6-1.1-1.3-1.4-2s-0.5-1.5-0.5-2.4c0-0.8,0.2-1.6,0.5-2.4
		S294.9,194.7,295.5,194.1z M296.1,202.3c0.5,0.5,1.1,0.9,1.8,1.2c0.7,0.3,1.4,0.4,2.1,0.4c0.7,0,1.4-0.1,2.1-0.4
		c0.7-0.3,1.3-0.6,1.8-1.2s0.9-1.1,1.2-1.7c0.3-0.6,0.4-1.3,0.4-2s-0.1-1.4-0.4-2c-0.3-0.6-0.7-1.2-1.2-1.7
		c-0.5-0.5-1.1-0.9-1.8-1.2c-0.7-0.3-1.4-0.4-2.1-0.4c-0.7,0-1.5,0.1-2.1,0.4c-0.7,0.3-1.3,0.7-1.8,1.2c-0.5,0.5-0.9,1.1-1.2,1.7
		c-0.3,0.6-0.4,1.3-0.4,2s0.1,1.4,0.4,2C295.2,201.2,295.6,201.8,296.1,202.3z"/>
	<path class="st1" d="M310.8,193.1c0.8-0.5,1.7-0.8,2.9-0.8c0.6,0,1.3,0.1,2,0.2c0.7,0.1,1.2,0.3,1.7,0.5c0.1,0,0.2,0.1,0.2,0.2
		c0,0.1,0,0.2,0,0.3c-0.1,0.1-0.1,0.2-0.3,0.2s-0.2,0-0.3,0c-0.4-0.2-0.9-0.3-1.5-0.4c-0.6-0.1-1.2-0.2-1.8-0.2
		c-0.5,0-1,0.1-1.4,0.2c-0.4,0.1-0.8,0.3-1.1,0.4c-0.6,0.4-0.9,1-0.9,1.7c0,0.6,0.3,1.1,0.9,1.5c0.6,0.4,1.4,0.6,2.5,0.8
		c1.5,0.2,2.7,0.6,3.5,1.2c0.8,0.6,1.2,1.4,1.2,2.3c0,1.1-0.5,2-1.5,2.6c-0.9,0.6-2,0.9-3.3,0.9c-1.7,0-3.2-0.4-4.4-1.3
		c-0.1-0.1-0.2-0.2-0.2-0.3c0-0.1,0-0.2,0.1-0.3c0.1-0.1,0.2-0.1,0.3-0.2c0.1,0,0.2,0,0.3,0.1c1,0.8,2.3,1.1,3.8,1.1
		c0.6,0,1.1-0.1,1.6-0.2c0.5-0.1,0.9-0.3,1.3-0.5c0.7-0.5,1.1-1.1,1.1-1.9c0-0.7-0.4-1.3-1.1-1.7c-0.3-0.2-0.8-0.4-1.2-0.6
		c-0.5-0.1-1-0.3-1.7-0.4c-1.2-0.2-2.2-0.5-2.8-0.9c-0.4-0.3-0.7-0.6-1-0.9c-0.2-0.4-0.4-0.8-0.4-1.3
		C309.5,194.4,309.9,193.6,310.8,193.1z"/>
</g>
</svg>
