<?xml version="1.0" encoding="utf-8"?>
<!-- Generator: Adobe Illustrator 27.9.0, SVG Export Plug-In . SVG Version: 6.00 Build 0)  -->
<svg version="1.1" id="Layer_1" xmlns="http://www.w3.org/2000/svg" xmlns:xlink="http://www.w3.org/1999/xlink" x="0px" y="0px"
	 viewBox="0 0 290 57" style="enable-background:new 0 0 290 57;" xml:space="preserve">
<style type="text/css">
	.st0{display:none;fill-rule:evenodd;clip-rule:evenodd;}
	.st1{fill-rule:evenodd;clip-rule:evenodd;fill:#FFFFFF;}
	.st2{fill-rule:evenodd;clip-rule:evenodd;fill:#808587;}
	.st3{fill-rule:evenodd;clip-rule:evenodd;fill:#C5CAC7;}
</style>
<rect x="-26.1" y="-51.9" class="st0" width="327.3" height="142.8"/>
<g>
	<path class="st1" d="M110.7,2.6l0,10.9c0,0.1,0,0.2,0.1,0.3c0,0,0.1,0.1,0.3,0.1h5.1c0.5,0,0.9,0,1.3-0.2c0.4-0.2,0.8-0.4,1.1-0.7
		c0.3-0.3,0.5-0.6,0.7-1.1c0.1-0.4,0.2-0.8,0.2-1.3c0-0.6-0.1-1.2-0.5-1.7c-0.3-0.5-0.8-0.9-1.3-1.2c0.4-0.3,0.8-0.6,1-1.1
		c0.2-0.4,0.4-0.9,0.4-1.4c0-0.4-0.1-0.8-0.2-1.1c-0.1-0.4-0.3-0.7-0.6-1c-0.3-0.2-0.6-0.5-1-0.6c-0.4-0.1-0.8-0.2-1.1-0.2H111
		c-0.1,0-0.2,0-0.3,0.1C110.7,2.4,110.7,2.5,110.7,2.6z M111.5,8h4.6c0.3,0,0.7,0,1,0.2c0.3,0.1,0.5,0.3,0.8,0.5
		c0.2,0.2,0.4,0.5,0.5,0.8c0.1,0.3,0.2,0.6,0.2,1s0,0.7-0.2,1c-0.1,0.3-0.3,0.6-0.5,0.8c-0.2,0.2-0.5,0.4-0.8,0.5
		c-0.3,0.1-0.6,0.2-1,0.2h-4.7L111.5,8L111.5,8z M126.8,2.4l-5.6,10.9c0,0.1,0,0.2,0,0.3c0,0.1,0.1,0.2,0.2,0.2c0.1,0,0.2,0.1,0.3,0
		c0.1,0,0.2-0.1,0.2-0.2c0.1-0.2,0.2-0.5,0.4-0.8c0.1-0.2,0.2-0.5,0.4-0.9c0.2-0.3,0.4-0.7,0.6-1.1h7.7c0.2,0.4,0.4,0.8,0.6,1.1
		c0.1,0.3,0.3,0.6,0.4,0.9c0.1,0.3,0.3,0.5,0.4,0.8c0,0.1,0.1,0.1,0.2,0.2c0.1,0,0.2,0,0.3,0c0.1,0,0.1-0.1,0.2-0.2
		c0-0.1,0-0.2,0-0.3l-5.6-10.9c-0.1-0.1-0.2-0.2-0.4-0.2C127,2.1,126.9,2.2,126.8,2.4z M127.2,3.4c0.1,0.2,0.2,0.5,0.5,1
		c0.2,0.5,0.5,1,0.9,1.6c0.3,0.6,0.6,1.2,1,2c0.3,0.7,0.7,1.4,1.1,2.1h-6.8c0.3-0.7,0.7-1.3,1.1-2.1c0.3-0.7,0.7-1.3,1-2
		c0.3-0.6,0.6-1.1,0.9-1.6C126.9,3.9,127.1,3.6,127.2,3.4z M136.2,2.9h4.7c0.4,0,0.8,0.1,1.1,0.2c0.4,0.1,0.7,0.3,1,0.6
		c0.2,0.3,0.5,0.6,0.6,1c0.1,0.4,0.2,0.8,0.2,1.1c0,0.4-0.1,0.8-0.2,1.1c-0.1,0.4-0.3,0.7-0.6,1c-0.3,0.2-0.6,0.5-1,0.6
		c-0.3,0.1-0.7,0.2-1.1,0.2h-4.7V2.9z M135.5,2.6v10.8c0,0.1,0,0.2,0.1,0.3c0,0,0.1,0.1,0.3,0.1c0.1,0,0.2,0,0.3-0.1
		c0,0,0.1-0.1,0.1-0.3V9.6h4.2l3.7,4.1c0.1,0.1,0.2,0.1,0.3,0.1c0.1,0,0.2,0,0.3-0.1c0.1-0.1,0.1-0.2,0.1-0.3c0-0.1,0-0.2-0.1-0.3
		l-3.2-3.6c0.4,0,0.9-0.2,1.2-0.4c0.4-0.2,0.7-0.5,1-0.8c0.3-0.3,0.5-0.7,0.7-1.1c0.1-0.4,0.2-0.9,0.2-1.3c0-0.5-0.1-1-0.3-1.5
		c-0.2-0.4-0.5-0.9-0.8-1.2c-0.3-0.3-0.7-0.6-1.2-0.8c-0.5-0.2-1-0.3-1.5-0.3h-5.1c-0.1,0-0.2,0-0.3,0.1
		C135.6,2.4,135.5,2.5,135.5,2.6z M148.1,2.6v10.8c0,0.1,0,0.2,0.1,0.3c0,0,0.1,0.1,0.3,0.1c0.1,0,0.2,0,0.3-0.1
		c0,0,0.1-0.1,0.1-0.3V9.6h4.2l3.7,4.1c0.1,0.1,0.2,0.1,0.3,0.1c0.1,0,0.2,0,0.3-0.1c0.1-0.1,0.1-0.2,0.1-0.3c0-0.1,0-0.2-0.1-0.3
		l-3.2-3.6c0.4,0,0.9-0.2,1.2-0.4c0.4-0.2,0.7-0.5,1-0.8c0.3-0.3,0.5-0.7,0.7-1.1c0.1-0.4,0.2-0.9,0.2-1.3c0-0.5-0.1-1-0.3-1.5
		c-0.2-0.4-0.5-0.9-0.8-1.2c-0.3-0.3-0.7-0.6-1.2-0.8c-0.5-0.2-1-0.3-1.5-0.3h-5.1c-0.1,0-0.2,0-0.3,0.1
		C148.1,2.4,148.1,2.5,148.1,2.6z M155.5,3.8c0.2,0.3,0.5,0.6,0.6,1s0.2,0.8,0.2,1.1c0,0.4-0.1,0.8-0.2,1.1c-0.1,0.4-0.3,0.7-0.6,1
		c-0.3,0.2-0.6,0.5-1,0.6c-0.3,0.1-0.7,0.2-1.1,0.2h-4.7V2.9h4.7c0.4,0,0.8,0.1,1.1,0.2C155,3.3,155.3,3.5,155.5,3.8z M160.5,2.6
		v10.9c0,0.1,0,0.2,0.1,0.3c0,0,0.1,0.1,0.3,0.1c0.1,0,0.2,0,0.3-0.1c0,0,0.1-0.1,0.1-0.3V2.6c0-0.1,0-0.2-0.1-0.3
		c0-0.1-0.1-0.1-0.3-0.1c-0.1,0-0.2,0-0.3,0.1C160.5,2.4,160.5,2.5,160.5,2.6z M166.1,3.7c-0.6,0.6-1,1.2-1.3,2
		c-0.3,0.7-0.4,1.5-0.4,2.3c0,0.8,0.1,1.6,0.4,2.3c0.3,0.7,0.8,1.4,1.3,2c0.6,0.6,1.2,1.1,2,1.3c0.8,0.3,1.5,0.5,2.3,0.5
		c0.8,0,1.6-0.2,2.3-0.5c0.7-0.3,1.4-0.8,2-1.3c0.5-0.6,1-1.2,1.3-2c0.3-0.7,0.5-1.5,0.5-2.3c0-0.8-0.2-1.6-0.5-2.3
		c-0.3-0.7-0.7-1.4-1.3-2c-0.6-0.5-1.2-1-2-1.3c-0.7-0.3-1.5-0.5-2.3-0.5c-0.8,0-1.6,0.2-2.3,0.5C167.3,2.7,166.6,3.1,166.1,3.7z
		 M170.4,2.7c0.7,0,1.4,0.1,2,0.4c0.6,0.2,1.2,0.6,1.7,1.1c0.5,0.5,0.9,1.1,1.1,1.7c0.2,0.6,0.4,1.3,0.4,2c0,0.7-0.1,1.4-0.4,2
		c-0.2,0.7-0.7,1.2-1.1,1.7c-0.5,0.5-1.1,0.9-1.7,1.1c-0.6,0.2-1.3,0.4-2,0.4c-0.7,0-1.4-0.1-2-0.4c-0.7-0.3-1.2-0.7-1.7-1.1
		c-0.5-0.5-0.9-1.1-1.1-1.7c-0.2-0.6-0.4-1.3-0.4-2c0-0.7,0.1-1.4,0.4-2c0.3-0.6,0.7-1.2,1.1-1.7c0.5-0.5,1.1-0.9,1.7-1.1
		C169,2.9,169.7,2.7,170.4,2.7z M188.5,2.4c-0.7,0.3-1.4,0.7-2,1.3c-0.6,0.6-1,1.2-1.3,2c-0.3,0.7-0.5,1.5-0.5,2.3
		c0,0.8,0.2,1.6,0.5,2.3c0.3,0.7,0.7,1.4,1.3,2c0.6,0.6,1.2,1.1,2,1.3c0.8,0.3,1.5,0.5,2.3,0.5c0.8,0,1.6-0.2,2.3-0.5
		c0.7-0.3,1.4-0.8,2-1.3c0.1-0.1,0.1-0.2,0.1-0.3c0-0.1,0-0.2-0.1-0.3c-0.1-0.1-0.2-0.1-0.3-0.1c-0.1,0-0.2,0-0.3,0.1
		c-0.5,0.5-1.1,0.9-1.7,1.1c-0.6,0.2-1.3,0.4-2,0.4c-0.7,0-1.4-0.1-2-0.4c-0.6-0.3-1.2-0.7-1.7-1.1c-0.5-0.5-0.9-1.1-1.1-1.7
		c-0.2-0.6-0.4-1.3-0.4-2c0-0.7,0.1-1.4,0.4-2c0.2-0.6,0.7-1.2,1.1-1.7c0.5-0.5,1.1-0.9,1.7-1.1c0.6-0.2,1.3-0.4,2-0.4
		c0.7,0,1.4,0.1,2,0.4c0.7,0.2,1.2,0.6,1.7,1.1c0.1,0.1,0.2,0.1,0.3,0.1c0.1,0,0.2,0,0.3-0.1c0.1-0.1,0.1-0.2,0.1-0.3
		c0-0.1,0-0.2-0.1-0.3c-0.6-0.5-1.2-1-2-1.3c-0.8-0.3-1.5-0.5-2.3-0.5C190.1,1.9,189.2,2.1,188.5,2.4z M198.3,2.6v10.8
		c0,0.1,0,0.2,0.1,0.3c0,0,0.1,0.1,0.3,0.1h7.8c0.1,0,0.2,0,0.3-0.1c0,0,0.1-0.1,0.1-0.3c0-0.1,0-0.2-0.1-0.3c0,0-0.1-0.1-0.3-0.1
		v-0.1h-7.4V8.3l6.5,0c0.1,0,0.2,0,0.3-0.1c0.1,0,0.1-0.1,0.1-0.3c0-0.1,0-0.2-0.1-0.3c-0.1,0-0.2-0.1-0.3-0.1h-6.5V2.9h7.4
		c0.1,0,0.2,0,0.3-0.1c0,0,0.1-0.1,0.1-0.3c0-0.1,0-0.2-0.1-0.3c0-0.1-0.1-0.1-0.3-0.1h-7.8c-0.1,0-0.2,0-0.3,0.1
		C198.3,2.4,198.3,2.5,198.3,2.6z M210,2.6v10.8c0,0.1,0,0.2,0.1,0.3c0,0,0.1,0.1,0.3,0.1c0.1,0,0.2,0,0.3-0.1c0,0,0.1-0.1,0.1-0.3
		V9.6h4.2l3.7,4.1c0.1,0.1,0.2,0.1,0.3,0.1c0.1,0,0.2,0,0.3-0.1c0.1-0.1,0.1-0.2,0.1-0.3c0-0.1,0-0.2-0.1-0.3l-3.2-3.6
		c0.4,0,0.9-0.2,1.2-0.4c0.4-0.2,0.7-0.5,1-0.8c0.3-0.3,0.5-0.7,0.7-1.1c0.1-0.4,0.2-0.9,0.2-1.3c0-0.5-0.1-1-0.3-1.5
		c-0.2-0.4-0.5-0.9-0.8-1.2c-0.3-0.3-0.7-0.6-1.2-0.8c-0.5-0.2-1-0.3-1.5-0.3h-5.1c-0.1,0-0.2,0-0.3,0.1C210,2.4,210,2.5,210,2.6z
		 M210.7,2.9h4.7c0.4,0,0.8,0.1,1.1,0.2c0.4,0.1,0.7,0.3,1,0.6c0.2,0.3,0.5,0.6,0.6,1c0.1,0.4,0.2,0.8,0.2,1.1
		c0,0.4-0.1,0.8-0.2,1.1c-0.1,0.4-0.3,0.7-0.6,1c-0.3,0.2-0.6,0.5-1,0.6c-0.3,0.1-0.7,0.2-1.1,0.2h-4.7V2.9z M222.6,2.6v10.8
		c0,0.1,0,0.2,0.1,0.3c0,0,0.1,0.1,0.3,0.1c0.1,0,0.2,0,0.3-0.1c0,0,0.1-0.1,0.1-0.3V9.6h4.2l3.7,4.1c0.1,0.1,0.2,0.1,0.3,0.1
		c0.1,0,0.2,0,0.3-0.1c0.1-0.1,0.1-0.2,0.1-0.3c0-0.1,0-0.2-0.1-0.3l-3.2-3.6c0.4,0,0.9-0.2,1.2-0.4c0.4-0.2,0.7-0.5,1-0.8
		c0.3-0.3,0.5-0.7,0.7-1.1c0.1-0.4,0.2-0.9,0.2-1.3c0-0.5-0.1-1-0.3-1.5c-0.2-0.4-0.5-0.9-0.8-1.2c-0.3-0.3-0.7-0.6-1.2-0.8
		c-0.5-0.2-1-0.3-1.5-0.3h-5.1c-0.1,0-0.2,0-0.3,0.1C222.6,2.4,222.6,2.5,222.6,2.6z M230.6,4.8c0.1,0.4,0.2,0.8,0.2,1.1
		c0,0.4-0.1,0.8-0.2,1.1c-0.1,0.4-0.3,0.7-0.6,1c-0.3,0.2-0.6,0.5-1,0.6c-0.3,0.1-0.7,0.2-1.1,0.2h-4.7V2.9h4.7
		c0.4,0,0.8,0.1,1.1,0.2c0.4,0.1,0.7,0.3,1,0.6C230.3,4.1,230.5,4.4,230.6,4.8z M239.1,2.4l-5.6,10.9c0,0.1,0,0.2,0,0.3
		c0,0.1,0.1,0.2,0.2,0.2c0.1,0,0.2,0.1,0.3,0c0.1,0,0.2-0.1,0.2-0.2c0.1-0.2,0.2-0.5,0.4-0.8c0.1-0.2,0.2-0.5,0.4-0.9
		c0.2-0.3,0.4-0.7,0.6-1.1h7.7c0.2,0.4,0.4,0.8,0.6,1.1c0.1,0.3,0.3,0.6,0.4,0.9c0.1,0.3,0.3,0.5,0.4,0.8c0,0.1,0.1,0.1,0.2,0.2
		c0.1,0,0.2,0,0.3,0c0.1,0,0.1-0.1,0.2-0.2c0-0.1,0-0.2,0-0.3l-5.6-10.9c-0.1-0.1-0.2-0.2-0.4-0.2C239.3,2.1,239.2,2.2,239.1,2.4z
		 M242.9,10h-6.8c0.3-0.7,0.7-1.3,1.1-2.1c0.3-0.7,0.7-1.3,1-2c0.3-0.6,0.6-1.1,0.9-1.6c0.2-0.5,0.4-0.8,0.5-1
		c0.1,0.2,0.2,0.5,0.5,1c0.2,0.5,0.5,1,0.9,1.6c0.3,0.6,0.6,1.2,1,2C242.2,8.7,242.6,9.4,242.9,10z M248.6,13v-10h4.4
		c0.7,0,1.3,0.1,1.9,0.4c0.6,0.3,1.1,0.6,1.6,1.1c0.5,0.5,0.9,1,1.1,1.6c0.2,0.6,0.4,1.2,0.4,1.9c0,0.7-0.1,1.3-0.4,1.9
		c-0.2,0.6-0.6,1.1-1.1,1.6c-0.5,0.5-1,0.9-1.6,1.1c-0.6,0.2-1.2,0.4-1.9,0.4H248.6z M247.8,2.6l0,10.9c0,0.1,0,0.2,0.1,0.3
		c0,0,0.1,0.1,0.3,0.1h4.9c0.8,0,1.5-0.1,2.2-0.4c0.7-0.3,1.3-0.7,1.9-1.3c0.6-0.6,1-1.2,1.3-1.9c0.3-0.7,0.4-1.4,0.4-2.2
		c0-0.8-0.1-1.5-0.4-2.2c-0.3-0.7-0.7-1.3-1.3-1.9s-1.2-1-1.9-1.3c-0.7-0.3-1.4-0.4-2.2-0.4h-4.9c-0.1,0-0.2,0-0.3,0.1
		C247.8,2.4,247.8,2.5,247.8,2.6z M117.6,3.7c0.2,0.2,0.3,0.4,0.4,0.7c0.1,0.2,0.1,0.5,0.1,0.8c0,0.3,0,0.6-0.1,0.8
		c-0.1,0.2-0.2,0.5-0.4,0.7c-0.2,0.2-0.4,0.3-0.7,0.4c-0.2,0.1-0.5,0.1-0.8,0.1h-4.6h0V3h4.7c0.3,0,0.6,0,0.8,0.1
		C117.2,3.3,117.4,3.5,117.6,3.7z M263,3.7c-0.6,0.6-1,1.2-1.3,2c-0.3,0.7-0.4,1.5-0.4,2.3c0,0.8,0.1,1.6,0.4,2.3
		c0.3,0.7,0.8,1.4,1.3,2c0.6,0.6,1.2,1.1,2,1.3c0.8,0.3,1.5,0.5,2.3,0.5c0.8,0,1.6-0.2,2.3-0.5c0.7-0.3,1.4-0.8,2-1.3
		c0.5-0.6,1-1.2,1.3-2c0.3-0.7,0.5-1.5,0.5-2.3c0-0.8-0.2-1.6-0.5-2.3c-0.3-0.7-0.7-1.4-1.3-2c-0.6-0.5-1.2-1-2-1.3
		c-0.7-0.3-1.5-0.5-2.3-0.5c-0.8,0-1.6,0.2-2.3,0.5C264.2,2.7,263.5,3.1,263,3.7z M267.3,2.7c0.7,0,1.4,0.1,2,0.4
		c0.6,0.2,1.2,0.6,1.7,1.1c0.5,0.5,0.9,1.1,1.1,1.7c0.2,0.6,0.4,1.3,0.4,2c0,0.7-0.1,1.4-0.4,2c-0.2,0.7-0.7,1.2-1.1,1.7
		c-0.5,0.5-1.1,0.9-1.7,1.1c-0.6,0.2-1.3,0.4-2,0.4c-0.7,0-1.4-0.1-2-0.4c-0.7-0.3-1.2-0.7-1.7-1.1c-0.5-0.5-0.9-1.1-1.1-1.7
		c-0.2-0.6-0.4-1.3-0.4-2c0-0.7,0.1-1.4,0.4-2c0.3-0.6,0.7-1.2,1.1-1.7c0.5-0.5,1.1-0.9,1.7-1.1C265.9,2.9,266.6,2.7,267.3,2.7z"/>
	<path class="st2" d="M225.9,16v19.3l5.4,17.3c0.1,0.5-0.1,1-0.7,1h10.5c5.4,0,9.8-1.8,13.1-5.3c0.1-0.1,0.1-0.1,0.2-0.2
		c3.3-3.5,4.8-8,4.8-13.5c0-4.9-1.6-9.2-4.7-13c0,0-0.1-0.1-0.1-0.1c-3.2-3.7-7.8-5.5-14.1-5.5H225.9z M9.8,14
		c3.2,0,5.8-2.6,5.8-5.8c0-3.3-2.6-5.8-5.8-5.8C6.6,2.3,4,5,4,8.2C4,11.4,6.6,14,9.8,14z M15,16.4H5.7c-0.6,0-1.1,0.5-1.1,1.1V53
		c0,0.6,0.5,1.1,1.1,1.1H15c0.6,0,1.1-0.5,1.1-1.1v-3.4c-1.5-1.7-2.6-3.8-3.3-6.4l3.3-0.6v-9c-1-1.6-1.4-3.3-1.4-5.3
		c0-2.1,0.5-4,1.4-5.6v-5.1C16.1,16.9,15.6,16.4,15,16.4z M43.1,17.4v3.3c1,1.2,1.9,2.6,2.5,4.3l-2.5,0.8v7.9
		c0.6,0.5,1.1,1.1,1.6,1.8c1.2,1.8,1.9,3.9,1.9,6.3c0,3.3-1.1,6.1-3.5,8.3v2.8c0,0.6,0.5,1.1,1.1,1.1h23c-0.6,0-1-0.5-0.8-1.1
		l2.5-8.1c-0.1-0.1-0.3-0.1-0.5-0.1l-12.7,0c-0.6,0-1.1-0.5-1.1-1.1V17.4c0-0.6-0.5-1.1-1.1-1.1h-9.4C43.5,16.4,43.1,16.9,43.1,17.4
		z M110.3,16v37.6h17.9c5.6,0,9.3-1.1,11-3.3c0.5-0.6,0.9-1.2,1.2-1.8c0.9-1.7,1.4-3.6,1.4-5.6c0-4.2-2-7-6-8.4
		c-0.4-0.1-0.9-0.3-1.3-0.4c0.5-0.1,1-0.3,1.4-0.5c1.4-0.6,2.6-1.5,3.4-2.7c1.1-1.5,1.6-3.2,1.6-5.1c0-1.5-0.3-2.8-0.9-4.1
		c-0.4-1-1.1-1.9-1.8-2.7c-1.8-2-4.7-3-8.7-3L110.3,16L110.3,16z M121,30.4V24h5.2c2.6,0,3.9,1.1,3.9,3.2c0,0.8-0.3,1.5-0.8,2.2
		c-0.6,0.7-1.5,1-2.9,1H121z M121,45.2v-6.8h5.2c1.7,0,2.9,0.4,3.5,1.1c0.6,0.7,1,1.5,1,2.4c0,0.9-0.3,1.6-1,2.3
		c-0.7,0.7-1.7,1.1-3.1,1.1L121,45.2L121,45.2z M169.6,24.7c-1.5,3.1-2.2,6.6-2.2,10.6c0,3.7,0.7,7,2,9.7c0.7,1.5,1.6,2.9,2.7,4.1
		c3.1,3.4,7.1,5.1,12,5.1c4.6,0,8-1.5,10.4-4.5c0.6,1.1,1.1,2.4,1.5,3.9h1.1c-0.5,0-0.8-0.5-0.7-1l5.2-16.7v-3.3h-16.9v8h6.2
		c0,1.5-0.5,2.6-1.5,3.5c-1,0.9-2.2,1.2-3.6,1.2c-1.7,0-3.2-0.7-4.4-2.1c-1.2-1.4-1.8-4.3-1.8-8.6c0-7.2,1.9-10.8,5.6-10.8
		c2.9,0,4.6,2,5.2,5.9l11.2-1.1c-0.8-4.2-2.6-7.4-5.3-9.7c-2.7-2.3-6.4-3.4-10.9-3.4c-6,0-10.5,1.9-13.5,5.7
		C171,22.3,170.3,23.5,169.6,24.7z M237.5,44.9V24.5h3c2.2,0,3.9,1,5.1,3c1.1,2,1.7,4.4,1.7,7.1c0,3.2-0.7,5.7-2,7.6
		c-1.3,1.9-2.9,2.8-4.8,2.8H237.5z"/>
	<path class="st3" d="M40,31.7c-1.9-0.7-5.1-1.6-9.6-2.5c-1.6-0.3-2.8-0.7-3.3-1.1c-0.6-0.4-0.9-0.9-0.9-1.6c0-1.6,1.2-2.3,3.8-2.3
		c3,0,5,1.2,6,3.8l7.1-2.2l2.5-0.8c-0.7-1.6-1.5-3.1-2.5-4.3c-2.8-3.3-7.1-4.9-12.7-4.9c-5,0-8.9,1.1-11.6,3.5c-1.1,1-2,2-2.6,3.2
		c-1,1.7-1.4,3.6-1.4,5.6c0,2,0.5,3.7,1.4,5.3c0.4,0.7,0.9,1.3,1.4,1.9c1.9,2.1,6.1,3.7,12.7,5c1.7,0.3,2.9,0.7,3.6,1.2
		c0.7,0.5,1,1.1,1,1.9c0,1.5-1.4,2.3-4.4,2.3c-3.7,0-6-1.5-6.9-4.5l-7.4,1.3l-3.3,0.6c0.7,2.5,1.8,4.6,3.3,6.4
		c3,3.4,7.6,5.1,13.7,5.1c5,0,9.1-1.2,12.1-3.5c0.4-0.3,0.8-0.6,1.1-1c2.4-2.3,3.5-5.1,3.5-8.4c0-2.4-0.6-4.5-1.9-6.3
		c-0.5-0.7-1.1-1.3-1.6-1.8C42.2,32.8,41.1,32.2,40,31.7 M268.3,15.4c-5.6,0-10.1,1.8-13.2,5.5c-0.1,0.2-0.3,0.4-0.5,0.6
		c0,0,0.1,0.1,0.1,0.1c3.2,3.8,4.7,8.1,4.7,13c0,5.5-1.6,10-4.8,13.5c0.2,0.3,0.5,0.6,0.7,0.8c3.3,3.5,7.6,5.3,12.9,5.3
		c5.3,0,9.6-1.8,12.9-5.4c3.3-3.6,5-8.4,5-14.3c0-5.8-1.6-10.4-4.9-13.8C277.8,17.1,273.5,15.4,268.3,15.4z M262.7,35.1
		c0-7.5,1.9-11.2,5.7-11.2c3.5,0,5.3,3.3,5.3,9.8c0,4.5-0.4,7.6-1.3,9.3c-0.9,1.7-2.3,2.5-4.2,2.5C264.5,45.6,262.7,42.1,262.7,35.1
		z M207.3,17l-5.8,18.8l-5.2,16.7c-0.1,0.5,0.1,1,0.7,1h0.1h7.2c0.6,0,1.2-0.5,1.4-1.1l1.6-5.4c0.2-0.6,0.8-1.1,1.4-1.1h7.9
		c0.6,0,1.2,0.5,1.4,1.1l1.5,5.4c0.1,0.6,0.8,1.1,1.4,1.1h5h4.7h0.1c0.5,0,0.8-0.5,0.7-1L226,35.3L220.2,17
		c-0.2-0.6-0.8-1.1-1.4-1.1h-10C208.1,16,207.5,16.4,207.3,17z M209.9,36.9l2.4-8.8c0.1-0.6,0.4-0.6,0.6,0l2.5,8.8
		c0.1,0.6-0.2,1.1-0.8,1.1h-3.9C210.1,38,209.7,37.5,209.9,36.9z M140,21.7c0.6,1.3,0.9,2.6,0.9,4.1c0,1.9-0.5,3.6-1.6,5.1
		c-0.8,1.1-2,2.1-3.4,2.7c0,0.3,0,0.6,0,0.9c4,1.3,6,4.2,6,8.4c0,2.1-0.5,3.9-1.4,5.6c0.1,0.1,0.3,0.3,0.4,0.4
		c3.3,3.5,7.6,5.3,12.9,5.3c5.3,0,9.6-1.8,12.9-5.4c1.1-1.1,1.9-2.4,2.6-3.7c-1.3-2.7-2-6-2-9.7c0-4,0.8-7.5,2.2-10.6
		c-0.8-1.5-1.7-2.9-2.9-4.2c-3.3-3.4-7.6-5.2-12.8-5.2c-5.6,0-10.1,1.8-13.2,5.5C140.4,21.2,140.1,21.4,140,21.7z M154,23.9
		c3.5,0,5.3,3.3,5.3,9.8c0,4.5-0.4,7.6-1.3,9.3c-0.9,1.7-2.3,2.5-4.2,2.5c-3.6,0-5.4-3.5-5.4-10.5C148.3,27.7,150.2,23.9,154,23.9z
		 M77.3,17.4l-8.5,27.5L66.4,53c-0.2,0.6,0.2,1.1,0.8,1.1l7.2,0c0.6,0,1.2-0.5,1.4-1.1l1.6-5.4c0.2-0.6,0.8-1.1,1.4-1.1h7.9
		c0.6,0,1.2,0.5,1.4,1.1l1.5,5.4c0.1,0.6,0.8,1.1,1.4,1.1h9.6c0.6,0,1-0.5,0.8-1.1L90.2,17.4c-0.2-0.6-0.8-1.1-1.4-1.1h-10
		C78.1,16.4,77.5,16.8,77.3,17.4z M79.9,37.3l2.4-8.8c0.1-0.6,0.4-0.6,0.6,0l2.5,8.8c0.1,0.6-0.2,1.1-0.8,1.1h-3.9
		C80.1,38.4,79.8,37.9,79.9,37.3"/>
</g>
</svg>
