<?xml version="1.0" encoding="utf-8"?>
<!-- Generator: Adobe Illustrator 27.9.0, SVG Export Plug-In . SVG Version: 6.00 Build 0)  -->
<svg version="1.1" id="Layer_1" xmlns="http://www.w3.org/2000/svg" xmlns:xlink="http://www.w3.org/1999/xlink" x="0px" y="0px"
	 viewBox="0 0 750 750" style="enable-background:new 0 0 750 750;" xml:space="preserve">
<style type="text/css">
	.fnd{fill-rule:evenodd;clip-rule:evenodd;fill:transparent;}
	.oveja{fill:#FFF;}
	.brillo{fill-rule:evenodd;clip-rule:evenodd;
		<!-- fill:#FFF000; -->
		fill:transparent;
	}
	.studio{fill:#FFF;}
	.agnus{fill-rule:evenodd;clip-rule:evenodd;fill:#FFF;}
</style>
<defs>

</defs>
<rect x="-1" y="1" class="fnd" width="750" height="750"/>
<path class="oveja" d="M348.2,427.4c-0.8,0.3-1.7-0.2-2-1c-1.3-4-5.2-7.2-9.1-10.5c-6.4-5.3-13.2-11-12.4-21.4
	c0.7,6.8,5.9,14.2,14.5,19C340.5,414.5,353.4,425.7,348.2,427.4 M417.2,462c-0.8,0.4-1.7,0.2-2.2-0.6c-0.4-0.8-0.2-1.7,0.6-2.2
	c5.1-3,7.9-11.2,10.6-18.9c4.6-7,5.6-11,10.9-13.7c-3.3,1.5-5.5,7.9-7.9,14.7C426.4,449.6,423.4,458.5,417.2,462z M390.2,492.3
	c0.8,0.4,1.2,1.3,0.8,2.1c-0.4,0.8-1.3,1.2-2.1,0.8c-11.5-5.1-18.2-15.7-24.5-25.6c-6.9-11-13.2-20.9-24.6-20
	c-0.9,0.1-1.6-0.6-1.7-1.5c-0.1-0.9,0.6-1.7,1.5-1.7c13.3-1.1,20.1,9.7,27.5,21.5C373.2,477.4,379.6,487.6,390.2,492.3z
	 M461.5,487.3c-0.4,0.8-1.4,1-2.2,0.6c-0.8-0.4-1-1.4-0.6-2.2c9-16.1,9.7-23.6,8.6-33.2c-0.8,2.8-1.7,5.8-2.8,8.9
	c-0.3,0.8-1.2,1.3-2,1c-0.8-0.3-1.3-1.2-1-2c11.7-35.8,13.8-47.6-3.9-77.7c-0.3,2.5-0.8,5-1.3,7.6c-0.6,2.7,2.7-37.2-18.9-69.6
	c-4.1-6.2-7.5-11.3-8.2-16c3.3,8.3,12.7,18.6,19.8,28.9c7,10,10.3,24.4,9.2,42.1c3.7,23.8,24.1,15.8,11.1,68.7l0.3,1.8
	C471.7,459.9,472.7,467.2,461.5,487.3z M425.1,496.3c0.9-0.1,1.7,0.5,1.8,1.4c0.1,0.9-0.5,1.7-1.4,1.8c-4.4,0.6-8.1-1.3-12.2-3.5
	c-4.7-2.5-10-5.4-17.4-4.1c-0.9,0.1-1.7-0.4-1.8-1.3c-0.1-0.9,0.4-1.7,1.3-1.8c8.5-1.5,14.3,1.6,19.5,4.4
	C418.5,495.1,421.7,496.8,425.1,496.3z M422.4,518.7c-4.1,0.5-7.1-1.3-10.3-3.2c-4.3-2.6-8.9-5.4-17.9-1.4
	c0.4,12.2,2.2,23.4,3.9,34.2c2.3,14.1,4.4,27.5,3.1,41.2c-0.1,0.9-0.9,1.5-1.7,1.4c-0.9-0.1-1.5-0.9-1.4-1.7
	c1.2-13.4-0.9-26.5-3.1-40.5c-1.8-11.2-3.7-22.9-4-35.6l0-0.2c-0.1-3.3-0.1-6.6,0.1-10c0-0.9,0.8-1.6,1.7-1.5c0.9,0,1.6,0.8,1.5,1.7
	c-0.1,2.5-0.2,5-0.1,7.5c9.7-3.9,14.9-0.8,19.6,2.1c2.7,1.6,5.2,3.1,8.4,2.8c-0.2-2-0.5-4-0.8-6.1c-0.1-0.9,0.4-1.7,1.3-1.8
	c0.9-0.1,1.7,0.4,1.8,1.3c2.9,16.7,0.5,29.9-1.8,42.6c-1.6,9-3.2,17.7-2.7,27.3c0,0.9-0.6,1.6-1.5,1.7c-0.9,0-1.6-0.6-1.7-1.5
	c-0.4-9.9,1.2-18.8,2.8-28C421.4,540.9,423.2,530.7,422.4,518.7z M481.9,542.8c-0.1,0.9-0.8,1.5-1.7,1.5c-0.9-0.1-1.5-0.8-1.5-1.7
	c1.1-15-6.7-25.6-10.6-30.9c-0.8-1.1-1.5-2-2-2.8c-4.3-0.9-7.3-2.6-9.1-3.9c-4.4,20.9-4.9,38.6-5.5,57.9
	c-0.5,17.6-1.1,36.4-4.6,60.3c-0.1,0.9-0.9,1.5-1.8,1.4c-0.9-0.1-1.5-0.9-1.3-1.8c3.5-23.7,4-42.5,4.6-59.9
	c0.6-20.1,1.1-38.5,6-60.7c0.2-1.1,0.9-1.5,2-1.3c0.1,0,0.2,0.1,0.4,0.1c0.3,0.1,0.6,0.4,1,0.7c1.3,1,4.2,3.1,8.7,4.1
	c0.2-0.1,0.5-0.2,0.7-0.2c0.5,0,0.9,0.2,1.2,0.5c4.2,0.7,9.2,0.8,13.9,0.4c4.8-0.4,9.2-1.4,11.7-2.9c15.4-9.3,27.5-22.9,37-33.7
	c4.8-5.4,8.9-10.1,12.6-13.3c1.3-1.1,2.6-0.8,3.8,0.7c1.6,1.8,3.4,6.4,6,12.5c3.6,8.6,8.6,20.6,15.6,32.4c2.6,4.3,1.4,6.8,0,9.8
	c-1.3,2.8-2.9,6.3-0.1,13.6c4.2,10.8,7.1,23.5,8.3,36c1.2,12.4,0.8,24.5-1.4,34.2c-0.2,0.9-1.1,1.4-1.9,1.2
	c-0.9-0.2-1.4-1.1-1.2-1.9c2.2-9.4,2.6-21.1,1.4-33.2c-1.2-12.2-4-24.7-8.1-35.2c-3.4-8.5-1.4-12.7,0.1-16.1c1-2.2,1.8-3.9,0.1-6.8
	c-7.2-12-12.2-24.1-15.8-32.8c-2.4-5.7-4.1-9.9-5.4-11.5c-3.4,3-7.3,7.5-11.7,12.5c-8.8,10-19.8,22.4-33.7,31.7
	c0.4,2.1,2.6,3.9,4.7,5.6c2.9,2.4,5.9,4.9,5.9,8.9c0,4.6,0.8,8.2,1.5,11.4c1.5,6.8,2.5,11.9-3.7,20.6c-4.2,5.9-7.6,13.8-8.8,23.2
	c-1,8.1-0.4,17.1,2.5,26.9c2,6.5,0.7,12.9-0.4,18.6c-0.6,3.1-1.2,6-1.1,8.5c0,0.9-0.7,1.6-1.6,1.6c-0.9,0-1.6-0.7-1.6-1.6
	c0-2.8,0.6-5.9,1.2-9.1c1-5.4,2.2-11.4,0.5-17.1c-3.1-10.2-3.7-19.7-2.7-28.2c1.2-10,4.8-18.4,9.3-24.7c5.4-7.5,4.5-12,3.2-18.1
	c-0.7-3.3-1.5-7.1-1.5-12c0-2.5-2.4-4.5-4.7-6.4c-2.2-1.9-4.5-3.7-5.4-6.3c-0.4,0.3-0.9,0.5-1.3,0.8c-2.9,1.8-7.8,2.9-13.1,3.3
	c-3.9,0.3-8.2,0.3-12-0.1l0.2,0.3C474.9,515.4,483.2,526.7,481.9,542.8z M578.5,490.3c0-14.2-8.3-22.3-17.3-31.7
	c-1.4-1.5,0.9-3.7,2.3-2.2C574.6,468,579,473.2,578.5,490.3z M551.1,451.7c-0.1,0.9-0.9,1.5-1.8,1.4c-0.9-0.1-1.5-0.9-1.4-1.8
	c1.6-14.5-2.7-26,2-34.1c5.1-8.8,7.6-7.7,7.1-20.5c4.4,6.9,0.7,13.4-4.4,22.2C548.1,426.7,552.6,437.8,551.1,451.7z M460.8,181.7
	c-3.4,3.1-9.6,8.2-14.2,8.3c-1.9,0-4.8-0.5-8.1-1.1c-7-1.2-15.8-2.8-17.6-0.3c-0.5,1.5-0.2,2.7,0.1,4c0.4,1.8,0.8,3.7-0.3,6.3
	c-2.8,6.7-4.3,17.3-5.7,27.1c-1.5,10.5-2.8,20.1-5.8,23.7c0.9,10,2.1,20,5.2,27.8c3.1,7.6,8.1,13.1,16.7,14.2
	c9.8,1.3,18.3,1.9,27.8,1.6c9.5-0.3,20-1.5,33.6-3.8c2.8-0.5,5.2-1,7.2-1.5c4.1-1,6.9-1.6,10.2-0.9c2.5-37.7-15.2-59.2-30.5-77.8
	C471.7,200,464.6,191.3,460.8,181.7z M289.7,168.5c-2.7,0-5.4,0.3-8.1,1c-1.6,0.6-2.4,1.1-2.4,1.3c0,0.3,0.9,0.9,2.5,1.6
	c2.1,0.7,3,2.2,4,3.7c0.5,0.8,1.1,1.6,1.7,2.2c0.2,0.2,2.7,0.8,5.6,1.4c4.8,1.1,10.6,2.2,11.5,2.3c4.1,0.3,8.4,0.2,11.8-0.2
	c1.9-0.2,3.5-0.5,4.7-0.7l-1.1-0.4c-1.7-0.6-3.7-1.3-5.8-2.2c-4.5-2-8.6-4.4-11.7-6.3c-2.2-1.3-3.9-2.3-4.8-2.6
	C295,168.9,292.4,168.5,289.7,168.5z M280.8,166.4c3-0.7,6-1.1,8.9-1.1c3,0,5.9,0.4,8.8,1.1l0.2,0.1c1.2,0.4,3,1.5,5.4,2.9
	c3.1,1.8,7.1,4.2,11.4,6.1c2,0.9,3.9,1.6,5.5,2.1c1.8,0.7,3.3,1.2,4,1.7l0.1,0.1c1,0.8,1.2,1.8,0.4,2.8c-0.9,1.1-4.3,2.2-8.8,2.7
	c-3.7,0.4-8.1,0.6-12.4,0.2c-0.9-0.1-7-1.2-11.9-2.3c-3.3-0.7-6.2-1.5-6.9-2c-1.1-0.9-1.8-1.9-2.5-3c-0.7-1.1-1.3-2.1-2.4-2.4
	l-0.2-0.1c-2.8-1.3-4.3-2.8-4.4-4.5c-0.1-1.7,1.4-3.2,4.5-4.5L280.8,166.4z M468.6,164.3c-6.4,6.3-36.7,29.4-42.8,11.9
	c-3-8.7,5.7-14.1,12-17.6c20.4-11.6-5.6,3.4-7.7,9c-5.7,9.5,3,12.5,10.9,11.3C455.6,176.5,472.9,159.7,468.6,164.3z M341.1,160.9
	c-0.1,0.1-0.1,0.1-0.2,0.2c-3.5,3.2-6.8,5.2-9.8,4.4c-4.6-1.3-14.9-2.2-25.6-2.8c-11.3-0.5-22.9-0.6-28.7,0.1
	c-1.5,0.4-2.8,0.9-3.7,1.4l-0.1,0.1c-0.8,0.5-1.3,1-1.5,1.6c-0.2,0.4-0.3,0.9-0.2,1.3c0.1,0.2,0.2,0.5,0.3,0.7
	c1.8,2.7,5.1,6.2,8.6,9.6c5.8,5.5,11.9,10.5,12.6,10.7c4.5,1.5,14.4,1.2,22.7,0.9c6.5-0.2,11.9-0.4,13.6,0.5
	c1.2,0.6,6.3,7.7,8.9,11.2l1.3,1.7c0.1,0.2,0.3,0.4,0.3,0.7l3.1,18.3c7.6,13.5,13.9,19.3,20,25c1.6,1.5,3.2,2.9,4.8,4.6l0.2,0.2
	c4.3,4.2,10.8,6.6,17.8,6.4c7-0.2,14.4-3,20.5-9.2l0.2-0.2c0.1-0.1,0.2-0.2,0.2-0.2c2.5-2.3,3.8-11.9,5.3-22.4
	c1.4-10,2.9-20.9,5.9-27.9c0.7-1.7,0.4-3,0.1-4.3c-0.4-2-0.7-4.2,0.2-6.1c2.7-4.7,12.9-2.9,21-1.4c3.2,0.6,6,1.1,7.5,1.1
	c2.7,0,6.7-2.7,10.8-6.3c1-0.9,2-1.8,3-2.7v0l0,0l0,0l0,0c5-4.8,9.5-10.2,11.4-13.2c0.6-1.3,1-2.7,1.1-4.1c0.1-1.6-0.2-3.2-1.1-4.7
	c-0.9-1.5-2.4-2.9-4.7-4.1c-2.8-1.4-6.7-2.4-12.1-2.7c-2-0.1-3.7-0.4-5.4-0.6c-4.5-0.6-7.9-1.1-12.1,2.3c-1,0.8-1.9,1.5-2.9,2.3l0,0
	l0,0l0,0l0,0c-2.6,2-5.1,3.8-7.4,5.4c-3.1,2.1-5.9,3.8-8.3,5l-0.2,0.1c-0.8,0.3-1.7,0-2.1-0.8c-3.7-8.7-11.6-14.2-20.8-17.2
	c-11.8-3.9-25.7-3.7-36-1.2c-3.9,1-8.6,6-13.1,10.8C344.9,157.1,343,159.1,341.1,160.9z M344.3,153.1l0.2-0.2
	c4.9-5.2,9.9-10.5,14.7-11.7c10.8-2.7,25.4-2.8,37.7,1.2c9.5,3.1,17.7,8.7,22,17.4c2-1.1,4.2-2.4,6.6-4.1c1.7-1.2,3.6-2.5,5.5-4
	c-22.8-15.9-29.7-33.4-36.5-50.4c-4.1-10.4-8.2-20.6-15.8-30.1c-9.3-11.7-23.5-22.1-41.3-28.2c-14.5-5-31.4-7.1-50-4.7
	c11.5,10.4,22,22.9,30.5,37.7c8.1,14,14.4,30,17.9,48.2c1.1,5.5,2.4,10.6,4,15.7C341.2,144.3,342.7,148.5,344.3,153.1z M345.4,174.1
	c-1.8-1.4-4.8-1.4-6.6,0c-1.6,1.3-1.6,3.2,0,4.5c1.8,1.4,4.8,1.4,6.6,0C347,177.3,347,175.4,345.4,174.1z M347.4,171.6
	c3.2,2.6,3.2,6.9,0,9.5c-3,2.4-7.6,2.4-10.6,0c-3.2-2.6-3.2-6.9,0-9.5C339.8,169.2,344.5,169.2,347.4,171.6z M355.9,171.1
	c1.4,1.1,1.4,3.1,0,4.2c-1.2,1-3,1-4.2,0c-1.4-1.1-1.4-3.1,0-4.2C352.9,170.1,354.7,170.1,355.9,171.1z M406.3,170.6
	c1.5-3.5,5.7-5.7,9.4-4.9c4,0.8,6,4.7,4.3,8.4c-1.5,3.5-5.7,5.6-9.4,4.9C406.6,178.2,404.6,174.4,406.3,170.6z M409.2,171.9
	c-0.8,1.9,0,3.6,2,4c2.3,0.5,4.9-0.9,5.9-3c0.8-1.9,0-3.6-2-4C412.8,168.4,410.1,169.8,409.2,171.9z M399.7,170.8
	c1.1-0.9,2.7-0.9,3.8,0c1.3,1,1.3,2.9,0,4c-1.1,0.9-2.7,0.9-3.8,0C398.4,173.7,398.4,171.8,399.7,170.8z M385.2,217.5
	c-0.7-0.6-1.6-1-2.7-1.1l0,0c-1.1-0.1-2.2,0.1-2.9,0.5c-0.6,0.3-0.9,0.7-1,1.2c0,0.5,0.2,0.9,0.7,1.4c0.7,0.6,1.6,1,2.7,1.1l0,0
	c1.1,0.1,2.2-0.1,2.9-0.5c0.6-0.3,0.9-0.7,1-1.2C386,218.4,385.7,217.9,385.2,217.5z M392.2,216.3c-0.9,0.2-1.6,0.5-2,1
	c-0.3,0.3-0.5,0.6-0.4,0.9c0,0.3,0.3,0.5,0.7,0.7c0.6,0.3,1.4,0.4,2.3,0.2l0,0c0.9-0.2,1.6-0.5,2-1c0.3-0.3,0.5-0.6,0.4-0.9
	c0-0.3-0.3-0.5-0.7-0.7C393.9,216.3,393.1,216.2,392.2,216.3L392.2,216.3z M394.3,225.9c-0.2-0.3-0.6-0.6-1.1-0.8
	c-0.7-0.4-1.5-0.7-2.2-0.8l-0.4-0.1l0.7,9.1c1,0.7,2,1.7,3,2.7c1.1,1.1,2.2,2.2,3.1,2.7c0.1,0,0.4,0,1,0.1c1.2,0.2,2.5,0.6,2.5,0.6
	c0.5-0.3-1.1-0.4-1.2-1.4c-0.3-2.1-0.8-4.6-0.9-5c-0.4-1.1-1.2-2.2-2-3.3C395.7,228.5,394.8,227.3,394.3,225.9z M403,241
	c0,0.1,0,0.1,0,0.2v0l0,0l0,0l0,0l0,0l0,0l0,0l0,0l0,0l0,0c0,0.1,0,0.1-0.1,0.2c-1.7,4.7-4.8,7.1-9.2,7.3c-3.9,0.2-8.7-1.5-14.5-5
	c-2,0.3-5.1,0.5-5.1,0.5c-0.8-0.4-1.2-1.3-0.8-2.1c-0.1-1,0-2.3,0.2-3.6c0.4-2.9,1.1-6.5,1.3-7.1c0.7-1.9,1.9-3.5,3.1-5.1
	c0.7-1,1.5-2,2.1-3.1c-1.1-0.3-2.1-0.9-2.9-1.5c-1.2-1.1-1.9-2.5-1.8-4l0-0.3c0.2-1.5,1.2-2.7,2.6-3.5c1.3-0.7,2.9-1,4.7-0.9l0.2,0
	c1.7,0.2,3.3,0.9,4.4,1.8c0.1,0.1,0.2,0.2,0.4,0.3c0.1-0.1,0.2-0.2,0.3-0.3c0.9-0.9,2.2-1.6,3.7-1.8l0.2,0c1.5-0.2,2.9-0.1,4.1,0.5
	c1.3,0.6,2.3,1.6,2.5,3l0,0.2c0.2,1.3-0.3,2.6-1.4,3.7c-0.7,0.7-1.6,1.3-2.7,1.6c0.2,0.1,0.3,0.2,0.5,0.2c0.9,0.5,1.7,1.1,2.2,1.8
	c0.1,0.1,0.2,0.3,0.2,0.4c0.4,1.1,1.2,2.2,2,3.3c0.9,1.3,1.9,2.6,2.5,4.1c0.2,0.5,0.7,3.3,1.1,5.6c0.1,1,0.2,2,0.2,2.8l0,0l0,0l0,0
	l0,0l0,0l0,0l0,0l0,0l0,0l0,0l0,0l0,0l0,0l0,0l0,0l0,0l0,0l0,0l0,0l0,0l0,0l0,0L403,241L403,241L403,241L403,241z M383.1,242.3
	c4.2,2.3,7.8,3.5,10.5,3.3c2.4-0.1,4.2-1.2,5.5-3.4c-0.5-0.1-0.9-0.1-1.3-0.2c-0.9-0.2-1.7-0.3-2.1-0.5c-1.2-0.7-2.5-2-3.7-3.2
	c-0.8-0.8-1.6-1.6-2.3-2.2c-1,0.8-2.1,1.9-3.2,3C385.4,240.3,384.2,241.4,383.1,242.3z M379.2,240.6c0.1,0,0.1,0,0.2,0l0.8-0.1
	c1.1-0.7,2.6-2.1,4-3.6c1.3-1.3,2.6-2.6,3.8-3.5l-0.8-10.1l0,0c-0.3-0.1-0.8-0.1-1.4,0c-0.9,0.1-1.8,0.4-2.6,0.6
	c-0.7,1.6-1.7,3-2.8,4.4c-1.1,1.4-2.1,2.9-2.7,4.3c-0.2,0.5-0.8,3.7-1.2,6.5c-0.2,1.4-1.8,2-1.3,2.3c0.1,0,1.8-0.5,3.4-0.8
	L379.2,240.6z M373.5,568.4c0,0.9-0.7,1.6-1.5,1.6c-0.9,0-1.6-0.7-1.6-1.6c-0.3-12.3-1.2-24.7-3.9-36c-2.7-11.1-7.1-21.1-14.7-28.6
	c-0.3-0.3-0.5-0.7-0.5-1.1l-0.9-14.9c-9-8.1-13-19.7-16.4-29.5c-1-2.8-1.9-5.4-2.8-7.7c-2.2-5.4-4.4-10-6.4-14.2
	c-4.9-10.4-8.9-18.6-9.5-31c-0.4-8.4,3.4-19.8,6.7-29.9c1.5-4.5,2.9-9,4.1-13.6c3-11.8,5.5-21.9,12.1-34.4c-1-5.1-1.8-10.4-2.4-15.9
	c-2.9-26.8-1.2-57.1,3.9-89.8l-3.1-17.9l-1.1-1.4c-2.5-3.4-7.4-10-7.9-10.3c-0.9-0.5-6-0.3-12-0.1c-8.5,0.3-18.8,0.7-23.8-1
	c-0.8-0.3-7.7-5.6-13.7-11.4c-3.7-3.5-7.2-7.2-9.1-10.2c-0.4-0.6-0.6-1.2-0.8-1.8c-0.3-1.2-0.1-2.3,0.5-3.5c0.5-1,1.4-2,2.6-2.8
	l0.1-0.1c1.2-0.8,2.8-1.4,4.8-1.9l0.2,0c6-0.7,17.8-0.7,29.3-0.1c10.9,0.5,21.4,1.5,26.3,2.9c1.5,0.4,3.6-0.9,6-2.9L269.5,22.8
	c-3.2,1.8-5.8,4.4-8.1,7.4c1.8,3.3-3.9,8.4-6.7,5.5c-2.3-2.4,0.9-6.4,3.7-6.9c2.6-3.7,5.7-6.7,9.6-8.9L262.6,9
	c-4,0.5-6.8-4.1-3.6-6.9c3.8-3.3,9.8,1.5,6.4,5.4l5.5,11c3.8-1.6,8.1-2.4,13.3-2.4c2-2.7,8.3-1.8,8.2,1.7c-0.1,3.6-6.3,4.1-8.2,1.5
	c-4.6,0-8.5,0.7-11.8,2.1l68,135.8c0.5-0.5,1-1,1.5-1.5c-1.9-5.2-3.6-10-5.1-14.8c-1.6-5.2-3-10.4-4.1-16
	c-3.5-17.9-9.6-33.5-17.5-47.2c-9-15.5-20.3-28.5-32.5-39.2c-0.7-0.6-0.7-1.6-0.1-2.3c0.3-0.3,0.6-0.5,1-0.5
	c20.5-3.2,39.1-1.1,54.8,4.3c18.4,6.3,33.1,17.1,42.8,29.2c7.9,9.9,12.1,20.3,16.3,30.9c6.7,16.8,13.5,34.1,36.2,49.6
	c0.6-0.5,1.3-1,2-1.6c5.3-4.2,9.2-3.7,14.5-3c1.6,0.2,3.2,0.4,5.1,0.6c5.8,0.3,10.1,1.5,13.3,3.1c2.8,1.4,4.8,3.3,6,5.3
	c1.2,2.1,1.7,4.3,1.5,6.5c-0.1,1.9-0.7,3.7-1.5,5.4l-0.1,0.1c-1.9,3-6.3,8.3-11.3,13.2c3.5,9.7,10.7,18.5,18.6,28
	c15.8,19.2,34,41.3,31.1,80.8l0,0.1c1.8,0.8,3.8,2,6.2,3.7c8.2,5.8,16.9,14.3,25.6,22.9c3.3,3.3,6.6,6.5,10,9.7
	c9.2,8.7,9.7,10.4,12.5,19.7c0.5,1.6,1,3.4,1.7,5.7c6.8,21.7,12.1,43.8,15.3,66.3c3.2,22.5,4.2,45.5,2.4,69.1
	c-1,14.2,2.2,28.4,5.5,42.6c1.7,7.2,3.3,14.3,4.4,21.6c0.1,0.9-0.5,1.7-1.3,1.8c-0.9,0.1-1.7-0.5-1.8-1.3
	c-1.1-7.1-2.7-14.2-4.4-21.4c-3.3-14.4-6.7-28.8-5.6-43.6c1.7-23.4,0.7-46.1-2.4-68.5c-3.1-22.3-8.4-44.2-15.2-65.8
	c-0.7-2.1-1.2-4.1-1.7-5.7c-2.5-8.5-3-10.1-11.6-18.2c-3.3-3.1-6.6-6.4-10-9.7c-8.6-8.5-17.2-16.9-25.2-22.6
	c-7.9-5.6-10.7-4.9-17-3.4c-2,0.5-4.4,1-7.4,1.6c-13.7,2.3-24.3,3.5-34,3.8c-9.7,0.3-18.4-0.3-28.3-1.6c-10-1.3-15.8-7.5-19.3-16.2
	c-3-7.5-4.3-16.7-5.2-26.1c-6.3,5.5-13.7,8-20.6,8.2c-7.8,0.2-15.1-2.5-20.1-7.3l-0.2-0.2c-1.5-1.5-3.1-3-4.7-4.5
	c-5.7-5.3-11.6-10.7-18.5-22.1c-4.5,30.9-6,59.5-3.2,84.8c2.9,26.4,10.4,49.4,23.9,67.7c3.7,5.1-8.4-5.1-14.6-18.8
	c-3.9-8.6-6.9-17.9-9.1-27.7c-5.1,10.6-7.4,19.7-10,30.2c-1.2,4.7-2.7,9.2-4.2,13.8c-3.2,9.8-6.9,20.9-6.5,28.7
	c0.6,11.7,4.4,19.7,9.2,29.7c2,4.3,4.3,8.9,6.5,14.4c1,2.4,1.9,5,2.9,7.9c2.9,8.5,6.3,18.4,13.1,25.8l-1.1-19.1
	c0-0.9,0.6-1.6,1.5-1.7c0.9,0,1.6,0.6,1.7,1.5l1.3,23.1v0l0,0l0,0l0.9,15c7.8,7.9,12.4,18.2,15.2,29.7
	C372.2,543.3,373.1,556,373.5,568.4z"/>
<path class="brillo" d="M374,607c207.1,0,375,32.2,375,72c0,39.7-167.9,72-375,72S-1,718.8-1,679C-1,639.3,166.9,607,374,607"/>
<path class="studio" d="M269.3,518.2c0,4.4,1,8,3.1,10.7c2.1,2.7,4.8,4,8.3,4c3.5,0,6.2-1.4,8.3-4.1c2-2.7,3.1-6.6,3.1-11.5
	c0-4.4-1-8-3.1-10.7c-2.1-2.7-4.8-4.1-8.3-4.1c-3.4,0-6.1,1.3-8.2,4C270.4,509.3,269.3,513.1,269.3,518.2 M262.5,517.4
	c0-3.9,0.8-7.5,2.3-10.6c1.5-3.2,3.7-5.6,6.4-7.3c2.7-1.7,5.9-2.6,9.4-2.6c5.4,0,9.9,1.9,13.2,5.7c3.4,3.8,5,8.8,5,15.1v0.5
	c0,3.9-0.7,7.4-2.2,10.5c-1.5,3.1-3.6,5.5-6.4,7.3c-2.8,1.7-6,2.6-9.5,2.6c-5.4,0-9.8-1.9-13.2-5.7c-3.4-3.8-5-8.8-5-15V517.4z
	 M246,487c0-1.1,0.3-2.1,1-2.8c0.7-0.8,1.7-1.2,3-1.2c1.3,0,2.3,0.4,3,1.2c0.7,0.8,1,1.7,1,2.8c0,1.1-0.3,2.1-1,2.8
	c-0.7,0.7-1.7,1.1-3,1.1c-1.3,0-2.3-0.4-3-1.1C246.3,489,246,488.1,246,487z M253.3,537.8h-6.8v-40.1h6.8V537.8z M208.4,518.2
	c0,4.5,0.9,8.1,2.8,10.7c1.9,2.6,4.5,3.8,7.8,3.8c4.3,0,7.5-2,9.5-5.9v-18.4c-2-3.8-5.2-5.7-9.4-5.7c-3.3,0-6,1.3-7.8,3.9
	C209.3,509.2,208.4,513.1,208.4,518.2z M201.6,517.4c0-6.2,1.5-11.1,4.4-14.9c2.9-3.7,6.7-5.6,11.4-5.6c4.7,0,8.4,1.6,11.1,4.8
	v-20.9h6.8v57H229l-0.3-4.3c-2.7,3.4-6.5,5.1-11.4,5.1c-4.6,0-8.4-1.9-11.3-5.7c-2.9-3.8-4.4-8.8-4.4-14.9V517.4z M186.2,533.8
	c-2.6,3.1-6.6,4.7-11.7,4.7c-4.3,0-7.5-1.2-9.7-3.7c-2.2-2.5-3.4-6.2-3.4-11v-26.1h6.8v25.9c0,6.1,2.5,9.1,7.4,9.1
	c5.2,0,8.7-2,10.4-5.9v-29.2h6.8v40.1h-6.5L186.2,533.8z M146.1,487.9v9.7h7.5v5.3h-7.5v24.9c0,1.6,0.3,2.8,1,3.6
	c0.7,0.8,1.8,1.2,3.4,1.2c0.8,0,1.9-0.2,3.3-0.4v5.6c-1.8,0.5-3.5,0.7-5.2,0.7c-3.1,0-5.4-0.9-6.9-2.8c-1.6-1.8-2.3-4.5-2.3-7.9V503
	h-7.3v-5.3h7.3v-9.7H146.1z M121,527.1c0-1.8-0.7-3.3-2.1-4.3c-1.4-1-3.8-1.9-7.3-2.7c-3.5-0.7-6.2-1.6-8.2-2.7
	c-2-1-3.5-2.3-4.5-3.7c-1-1.4-1.5-3.1-1.5-5.1c0-3.3,1.4-6.1,4.1-8.3c2.8-2.3,6.3-3.4,10.6-3.4c4.5,0,8.2,1.2,11,3.5
	c2.8,2.4,4.2,5.4,4.2,9h-6.9c0-1.9-0.8-3.5-2.4-4.9c-1.6-1.4-3.6-2-6-2c-2.5,0-4.4,0.5-5.8,1.6c-1.4,1.1-2.1,2.5-2.1,4.3
	c0,1.7,0.7,2.9,2,3.7c1.3,0.8,3.7,1.6,7.1,2.4c3.4,0.8,6.2,1.7,8.3,2.7c2.1,1.1,3.7,2.4,4.7,3.8c1,1.5,1.5,3.3,1.5,5.5
	c0,3.6-1.4,6.5-4.3,8.6c-2.9,2.2-6.6,3.3-11.1,3.3c-3.2,0-6-0.6-8.5-1.7c-2.5-1.1-4.4-2.7-5.8-4.8c-1.4-2-2.1-4.3-2.1-6.6h6.8
	c0.1,2.3,1,4.1,2.8,5.5c1.7,1.3,4,2,6.8,2c2.6,0,4.7-0.5,6.2-1.6C120.3,530.3,121,528.9,121,527.1z"/>
<path class="agnus" d="M151.8,571.4l20.2,45l-39.8-0.5L151.8,571.4z M299.7,615.5H314v46.7c-9.3,6-24.7,8.8-46.7,8.1
	c-43-1.2-58.5-24.9-60.6-59.8c1.2,0.1-4-58.9,58.7-62c30-1.5,49.1,10.7,49.1,10.7l-3.6,14c-12.5-15.1-27.6-16-40.7-16
	c-8.9,0-47.5-1.7-46.7,54.9c0.5,38.9,23.5,57.5,76.2,47.5V615.5z M335.9,548.4l90.3,91.8l-1.2-87.7h11.1l-2.2,114.3
	c-0.4,2.9-2.7,4.6-5.1,2.7l-82.2-91.1c-1.1,24.2-0.1,53.8,2.7,88.4h-13.4C339,623.9,339.2,584.2,335.9,548.4z M465.9,551.2h16.2
	l-1.9,68.8c-0.6,22.6,7.4,41.7,33.3,42.9c26.3-0.9,40.2-13,40.2-40.2l-0.1-71.5h11.6l-2.4,76c-0.5,17.3-10,38.3-36.9,41.7
	c-5.6,0.7-18.4,1.5-26.8,0.2c-21.3-3.4-32-17.6-33.2-37.9V551.2z M645.5,557c-7.4-5.5-16.2-9-27.9-8.6
	c-17.9,2.6-31.4,10.8-34.1,32.4c1.1,41.8,58,28.3,54.4,60.4c-1.5,13.5-12.3,23.1-25.7,23.7c-9.7,0.4-18.7-5.4-26.6-19l-3.3,16.8
	c18.9,11.3,50.4,11.4,63.4-8.8c11.9-18.6,6.2-38.2-12.7-48.7c-16.7-9.3-38.2-14.3-35.5-28c2-19.2,30.4-31.3,40.1-8.3
	c0.3,0.7,3.4,2.4,4.1,2.3L645.5,557z M153.9,548.4l53.1,118.4h-16.3l-17.1-43.7l-43-0.4l-17.1,44h-11.8L153.9,548.4z"/>
</svg>
