<?xml version="1.0" encoding="UTF-8"?>
<svg xmlns="http://www.w3.org/2000/svg" id="Layer_1" data-name="Layer 1" viewBox="0 0 24 24">
  <path fill="#eee" d="M15.991,6.182c.404,.424,1.168,.418,1.569,0l3.233-3.182H12.741l3.25,3.182Zm.865-.709c-.04,.038-.124,.036-.16,0l-1.504-1.472h3.16l-1.496,1.473ZM7,17h15v1H7v-1Zm-5,2h3v-3H2v3Zm1-2h1v1h-1v-1Zm4-5h15v1H7v-1Zm-5,2h3v-3H2v3Zm1-2h1v1h-1v-1Zm4,10h15v1H7v-1Zm-5,2h3v-3H2v3Zm1-2h1v1h-1v-1ZM21.5,0H2.5C1.122,0,0,1.122,0,2.5v6.5H24V2.5c0-1.378-1.121-2.5-2.5-2.5Zm1.5,8H1V2.5c0-.827,.673-1.5,1.5-1.5H21.5c.827,0,1.5,.673,1.5,1.5v5.5Z"/>
</svg>
