<?xml version="1.0" encoding="utf-8"?>
<!-- Generator: Adobe Illustrator 27.9.0, SVG Export Plug-In . SVG Version: 6.00 Build 0)  -->
<svg version="1.1" id="Layer_1" xmlns="http://www.w3.org/2000/svg" xmlns:xlink="http://www.w3.org/1999/xlink" x="0px" y="0px"
	 viewBox="0 0 290 100.4" style="enable-background:new 0 0 290 100.4;" xml:space="preserve">
<style type="text/css">
	.st0{fill-rule:evenodd;clip-rule:evenodd;fill:#818688;}
	.st1{fill-rule:evenodd;clip-rule:evenodd;fill:#C6CBC8;}
</style>
<g>
	<path class="st0" d="M237.9,66.9V46.4h3c2.2,0,3.9,1,5.1,3c1.2,2,1.7,4.4,1.7,7.1c0,3.2-0.7,5.8-2,7.6c-1.3,1.9-2.9,2.8-4.8,2.8
		C240.9,66.9,237.9,66.9,237.9,66.9z M169.7,46.7c-1.5,3.1-2.3,6.6-2.3,10.6c0,3.7,0.7,7,2,9.7c0.7,1.5,1.6,2.9,2.7,4.1
		c3.1,3.4,7.2,5.1,12,5.1c4.6,0,8.1-1.5,10.4-4.5c0.6,1.1,1.1,2.4,1.5,3.9h1.2c-0.5,0-0.8-0.5-0.7-1l5.2-16.8v-3.4h-17v8h6.2
		c0,1.5-0.5,2.6-1.5,3.5c-1,0.9-2.2,1.2-3.6,1.2c-1.7,0-3.2-0.7-4.4-2.1c-1.2-1.4-1.8-4.3-1.8-8.6c0-7.2,1.9-10.8,5.7-10.8
		c2.9,0,4.6,2,5.2,5.9l11.2-1.1c-0.8-4.2-2.6-7.4-5.3-9.7s-6.4-3.4-10.9-3.4c-6,0-10.5,1.9-13.5,5.8
		C171.1,44.2,170.4,45.4,169.7,46.7z M120.9,67.2v-6.9h5.2c1.7,0,2.9,0.4,3.5,1.1s1,1.5,1,2.4c0,0.9-0.3,1.6-1,2.4
		c-0.7,0.7-1.7,1.1-3.1,1.1L120.9,67.2L120.9,67.2z M120.9,52.3V46h5.2c2.6,0,3.9,1.1,3.9,3.2c0,0.8-0.3,1.5-0.8,2.2
		c-0.6,0.7-1.5,1-2.9,1H120.9z M110.2,37.9v37.8h18c5.6,0,9.3-1.1,11-3.3c0.5-0.6,0.9-1.2,1.2-1.8c0.9-1.7,1.4-3.6,1.4-5.7
		c0-4.2-2-7.1-6-8.4c-0.4-0.1-0.9-0.3-1.3-0.4c0.5-0.1,1-0.3,1.4-0.5c1.4-0.6,2.6-1.5,3.4-2.7c1.1-1.5,1.6-3.2,1.6-5.1
		c0-1.5-0.3-2.8-0.9-4.1c-0.4-1-1.1-1.9-1.8-2.7c-1.8-2-4.8-3-8.7-3L110.2,37.9L110.2,37.9z M42.6,39.3v3.4c1,1.2,1.9,2.6,2.5,4.3
		l-2.5,0.8v7.9c0.6,0.5,1.2,1.2,1.6,1.8c1.2,1.8,1.9,3.9,1.9,6.3c0,3.3-1.2,6.1-3.6,8.3v2.8c0,0.6,0.5,1.1,1.1,1.1h23.1
		c-0.6,0-1-0.5-0.8-1.1l2.5-8.1c-0.1-0.1-0.3-0.1-0.5-0.1H55.3c-0.6,0-1.1-0.5-1.1-1.1V39.3c0-0.6-0.5-1.1-1.1-1.1h-9.4
		C43.1,38.3,42.6,38.8,42.6,39.3z M14.5,38.3H5.1c-0.6,0-1.1,0.5-1.1,1.1V75c0,0.6,0.5,1.1,1.1,1.1h9.4c0.6,0,1.1-0.5,1.1-1.1v-3.5
		c-1.5-1.7-2.6-3.8-3.3-6.4l3.3-0.6v-9.1c-1-1.6-1.4-3.4-1.4-5.3c0-2.1,0.5-4,1.4-5.7v-5.1C15.6,38.8,15.1,38.3,14.5,38.3z
		 M9.3,35.9c3.2,0,5.9-2.6,5.9-5.9c0-3.3-2.6-5.9-5.9-5.9c-3.2,0-5.9,2.6-5.9,5.9C3.4,33.3,6.1,35.9,9.3,35.9z M264.1,33.5
		c0.5,0.5,1.1,0.9,1.7,1.2c0.6,0.2,1.3,0.4,2,0.4s1.4-0.1,2-0.4c0.6-0.2,1.2-0.6,1.7-1.2c0.5-0.5,0.9-1.1,1.2-1.7
		c0.2-0.6,0.4-1.3,0.4-2s-0.1-1.4-0.4-2c-0.2-0.6-0.6-1.2-1.2-1.7c-0.5-0.5-1.1-0.9-1.7-1.2s-1.3-0.4-2-0.4s-1.4,0.1-2,0.4
		c-0.6,0.2-1.2,0.6-1.7,1.2c-0.5,0.5-0.9,1.1-1.2,1.7c-0.2,0.6-0.4,1.3-0.4,2c0,0.7,0.1,1.4,0.4,2C263.2,32.5,263.6,33,264.1,33.5z
		 M263.5,25.5c0.6-0.6,1.2-1,2-1.3c0.7-0.3,1.5-0.5,2.4-0.5s1.6,0.1,2.3,0.5c0.7,0.3,1.4,0.8,2,1.3c0.6,0.6,1,1.2,1.3,2
		c0.3,0.7,0.5,1.5,0.5,2.3c0,0.8-0.1,1.6-0.5,2.3c-0.3,0.7-0.8,1.4-1.3,2c-0.6,0.6-1.2,1-2,1.3c-0.7,0.3-1.5,0.5-2.3,0.5
		c-0.8,0-1.6-0.1-2.4-0.5c-0.7-0.3-1.4-0.7-2-1.3c-0.6-0.6-1-1.2-1.3-2c-0.3-0.7-0.4-1.5-0.4-2.3s0.1-1.6,0.4-2.3
		C262.4,26.8,262.9,26.1,263.5,25.5z M249,24.8v10.1h4.5c0.7,0,1.3-0.1,1.9-0.4c0.6-0.2,1.2-0.6,1.6-1.1c0.5-0.5,0.9-1,1.1-1.6
		c0.2-0.6,0.4-1.2,0.4-1.9s-0.1-1.3-0.4-1.9c-0.2-0.6-0.6-1.2-1.1-1.6c-0.5-0.5-1-0.8-1.6-1.1c-0.6-0.2-1.2-0.4-1.9-0.4
		C253.5,24.8,249,24.8,249,24.8z M253.5,24c0.8,0,1.5,0.1,2.3,0.4c0.7,0.3,1.3,0.7,1.9,1.3c0.6,0.6,1,1.2,1.3,1.9
		c0.3,0.7,0.4,1.4,0.4,2.3c0,0.8-0.1,1.5-0.4,2.3c-0.3,0.7-0.7,1.3-1.3,1.9s-1.2,1-1.9,1.3c-0.7,0.3-1.4,0.4-2.3,0.4h-4.9
		c-0.1,0-0.2,0-0.3-0.1c-0.1-0.1-0.1-0.2-0.1-0.3v-11c0-0.1,0-0.2,0.1-0.3c0.1-0.1,0.2-0.1,0.3-0.1H253.5z M243.3,31.9
		c-0.3-0.7-0.7-1.3-1.1-2.1c-0.4-0.7-0.7-1.3-1-2c-0.3-0.6-0.6-1.2-0.9-1.6c-0.2-0.5-0.4-0.8-0.5-1c-0.1,0.2-0.3,0.5-0.5,1
		c-0.2,0.5-0.5,1-0.9,1.6c-0.3,0.6-0.7,1.3-1,2c-0.4,0.7-0.7,1.4-1.1,2.1C236.5,31.9,243.3,31.9,243.3,31.9z M246,35.1
		c0,0.1,0,0.2,0,0.3c0,0.1-0.1,0.2-0.2,0.2c-0.1,0-0.2,0-0.3,0c-0.1,0-0.2-0.1-0.2-0.2c-0.1-0.2-0.3-0.5-0.4-0.8
		c-0.1-0.2-0.3-0.5-0.4-0.9c-0.2-0.3-0.4-0.7-0.6-1.1H236c-0.2,0.4-0.4,0.8-0.6,1.1c-0.2,0.3-0.3,0.6-0.4,0.9
		c-0.1,0.3-0.3,0.6-0.4,0.8c0,0.1-0.1,0.1-0.2,0.2c-0.1,0-0.2,0-0.3,0c-0.1,0-0.2-0.1-0.2-0.2c0-0.1,0-0.2,0-0.3l5.7-10.9
		c0.1-0.1,0.2-0.2,0.4-0.2c0.1,0,0.3,0.1,0.4,0.2L246,35.1z M223.6,30.7h4.7c0.4,0,0.8-0.1,1.2-0.2c0.3-0.1,0.7-0.4,1-0.6
		c0.3-0.3,0.5-0.6,0.6-1c0.1-0.4,0.2-0.8,0.2-1.2c0-0.4-0.1-0.8-0.2-1.2c-0.1-0.4-0.4-0.7-0.6-1c-0.3-0.3-0.6-0.5-1-0.6
		c-0.3-0.1-0.8-0.2-1.2-0.2h-4.7V30.7z M232.2,35.1c0.1,0.1,0.1,0.2,0.1,0.3s0,0.2-0.1,0.3c-0.1,0.1-0.2,0.1-0.3,0.1
		c-0.1,0-0.2,0-0.3-0.1l-3.7-4.1h-4.2v3.7c0,0.1,0,0.2-0.1,0.3c-0.1,0.1-0.2,0.1-0.3,0.1c-0.1,0-0.2,0-0.3-0.1
		c-0.1-0.1-0.1-0.2-0.1-0.3V24.4c0-0.1,0-0.2,0.1-0.3c0.1-0.1,0.2-0.1,0.3-0.1h5.1c0.5,0,1,0.1,1.5,0.3c0.5,0.2,0.9,0.5,1.2,0.8
		c0.3,0.3,0.6,0.8,0.8,1.2c0.2,0.5,0.3,1,0.3,1.5c0,0.5-0.1,0.9-0.2,1.3c-0.1,0.4-0.4,0.8-0.7,1.1c-0.3,0.3-0.6,0.6-1,0.8
		c-0.4,0.2-0.8,0.4-1.2,0.4L232.2,35.1z M211,30.7h4.7c0.4,0,0.8-0.1,1.2-0.2c0.3-0.1,0.7-0.4,1-0.6c0.3-0.3,0.5-0.6,0.6-1
		c0.1-0.4,0.2-0.8,0.2-1.2c0-0.4-0.1-0.8-0.2-1.2c-0.1-0.4-0.4-0.7-0.6-1c-0.3-0.3-0.6-0.5-1-0.6c-0.3-0.1-0.8-0.2-1.2-0.2H211V30.7
		z M219.6,35.1c0.1,0.1,0.1,0.2,0.1,0.3s0,0.2-0.1,0.3c-0.1,0.1-0.2,0.1-0.3,0.1s-0.2,0-0.3-0.1l-3.7-4.1H211v3.7
		c0,0.1,0,0.2-0.1,0.3c-0.1,0.1-0.2,0.1-0.3,0.1c-0.1,0-0.2,0-0.3-0.1c-0.1-0.1-0.1-0.2-0.1-0.3V24.4c0-0.1,0-0.2,0.1-0.3
		c0.1-0.1,0.2-0.1,0.3-0.1h5.1c0.5,0,1,0.1,1.5,0.3c0.5,0.2,0.9,0.5,1.2,0.8c0.3,0.3,0.6,0.8,0.8,1.2c0.2,0.5,0.3,1,0.3,1.5
		c0,0.5-0.1,0.9-0.2,1.3c-0.1,0.4-0.4,0.8-0.7,1.1c-0.3,0.3-0.6,0.6-1,0.8c-0.4,0.2-0.8,0.4-1.2,0.4L219.6,35.1z M206.7,34.9
		c0.1,0,0.2,0,0.3,0.1c0.1,0.1,0.1,0.2,0.1,0.3c0,0.1,0,0.2-0.1,0.3c-0.1,0.1-0.2,0.1-0.3,0.1h-7.8c-0.1,0-0.2,0-0.3-0.1
		c-0.1-0.1-0.1-0.2-0.1-0.3V24.4c0-0.1,0-0.2,0.1-0.3c0.1-0.1,0.2-0.1,0.3-0.1h7.8c0.1,0,0.2,0,0.3,0.1c0.1,0.1,0.1,0.2,0.1,0.3
		c0,0.1,0,0.2-0.1,0.3c-0.1,0.1-0.2,0.1-0.3,0.1h-7.4v4.6h6.5c0.1,0,0.2,0,0.3,0.1c0.1,0.1,0.1,0.2,0.1,0.3c0,0.1,0,0.2-0.1,0.3
		c-0.1,0.1-0.2,0.1-0.3,0.1h-6.5v4.6L206.7,34.9L206.7,34.9z M186.7,25.5c0.6-0.6,1.2-1,2-1.3c0.7-0.3,1.5-0.5,2.4-0.5
		c0.8,0,1.6,0.1,2.4,0.5c0.7,0.3,1.4,0.8,2,1.3c0.1,0.1,0.1,0.2,0.1,0.3s0,0.2-0.1,0.3c-0.1,0.1-0.2,0.1-0.3,0.1s-0.2,0-0.3-0.1
		c-0.5-0.5-1.1-0.9-1.7-1.2c-0.6-0.2-1.3-0.4-2-0.4s-1.4,0.1-2,0.4c-0.6,0.2-1.2,0.6-1.7,1.2c-0.5,0.5-0.9,1.1-1.2,1.7
		c-0.2,0.6-0.4,1.3-0.4,2c0,0.7,0.1,1.4,0.4,2c0.2,0.6,0.6,1.2,1.2,1.7c0.5,0.5,1.1,0.9,1.7,1.2c0.6,0.2,1.3,0.4,2,0.4
		s1.4-0.1,2-0.4c0.6-0.2,1.2-0.6,1.7-1.2c0.1-0.1,0.2-0.1,0.3-0.1s0.2,0,0.3,0.1c0.1,0.1,0.1,0.2,0.1,0.3s0,0.2-0.1,0.3
		c-0.6,0.6-1.2,1-2,1.3c-0.8,0.3-1.5,0.5-2.4,0.5s-1.6-0.1-2.4-0.5c-0.7-0.3-1.4-0.7-2-1.3c-0.6-0.6-1-1.2-1.3-2
		c-0.3-0.7-0.5-1.5-0.5-2.3c0-0.8,0.1-1.6,0.5-2.3C185.7,26.8,186.2,26.1,186.7,25.5z M166.8,33.5c0.5,0.5,1.1,0.9,1.7,1.2
		c0.6,0.2,1.3,0.4,2,0.4c0.7,0,1.4-0.1,2-0.4c0.6-0.2,1.2-0.6,1.7-1.2c0.5-0.5,0.9-1.1,1.2-1.7c0.2-0.6,0.4-1.3,0.4-2
		s-0.1-1.4-0.4-2c-0.2-0.6-0.6-1.2-1.2-1.7c-0.5-0.5-1.1-0.9-1.7-1.2c-0.6-0.2-1.3-0.4-2-0.4c-0.7,0-1.4,0.1-2,0.4
		c-0.6,0.2-1.2,0.6-1.7,1.2c-0.5,0.5-0.9,1.1-1.2,1.7c-0.2,0.6-0.4,1.3-0.4,2c0,0.7,0.1,1.4,0.4,2C165.9,32.5,166.2,33,166.8,33.5z
		 M166.1,25.5c0.6-0.6,1.2-1,2-1.3c0.7-0.3,1.5-0.5,2.4-0.5c0.8,0,1.6,0.1,2.3,0.5c0.7,0.3,1.4,0.8,2,1.3c0.6,0.6,1,1.2,1.3,2
		c0.3,0.7,0.5,1.5,0.5,2.3c0,0.8-0.1,1.6-0.5,2.3c-0.3,0.7-0.8,1.4-1.3,2c-0.6,0.6-1.2,1-2,1.3c-0.7,0.3-1.5,0.5-2.3,0.5
		c-0.8,0-1.6-0.1-2.4-0.5c-0.7-0.3-1.4-0.7-2-1.3c-0.6-0.6-1-1.2-1.3-2c-0.3-0.7-0.4-1.5-0.4-2.3s0.1-1.6,0.4-2.3
		C165.1,26.8,165.6,26.1,166.1,25.5z M160.5,24.4c0-0.1,0-0.2,0.1-0.3c0.1-0.1,0.2-0.1,0.3-0.1c0.1,0,0.2,0,0.3,0.1
		c0.1,0.1,0.1,0.2,0.1,0.3v10.9c0,0.1,0,0.2-0.1,0.3c-0.1,0.1-0.2,0.1-0.3,0.1c-0.1,0-0.2,0-0.3-0.1c-0.1-0.1-0.1-0.2-0.1-0.3V24.4z
		 M148.8,30.7h4.7c0.4,0,0.8-0.1,1.2-0.2c0.3-0.1,0.7-0.4,1-0.6c0.3-0.3,0.5-0.6,0.6-1c0.1-0.4,0.2-0.8,0.2-1.2
		c0-0.4-0.1-0.8-0.2-1.2c-0.1-0.4-0.4-0.7-0.6-1c-0.3-0.3-0.6-0.5-1-0.6c-0.3-0.1-0.8-0.2-1.2-0.2h-4.7V30.7z M157.4,35.1
		c0.1,0.1,0.1,0.2,0.1,0.3s0,0.2-0.1,0.3c-0.1,0.1-0.2,0.1-0.3,0.1s-0.2,0-0.3-0.1l-3.7-4.1h-4.2v3.7c0,0.1,0,0.2-0.1,0.3
		c-0.1,0.1-0.2,0.1-0.3,0.1c-0.1,0-0.2,0-0.3-0.1c-0.1-0.1-0.1-0.2-0.1-0.3V24.4c0-0.1,0-0.2,0.1-0.3c0.1-0.1,0.2-0.1,0.3-0.1h5.1
		c0.5,0,1,0.1,1.5,0.3c0.5,0.2,0.9,0.5,1.2,0.8c0.3,0.3,0.6,0.8,0.8,1.2c0.2,0.5,0.3,1,0.3,1.5c0,0.5-0.1,0.9-0.2,1.3
		c-0.1,0.4-0.4,0.8-0.7,1.1c-0.3,0.3-0.6,0.6-1,0.8c-0.4,0.2-0.8,0.4-1.2,0.4L157.4,35.1z M136.2,30.7h4.7c0.4,0,0.8-0.1,1.2-0.2
		c0.3-0.1,0.7-0.4,1-0.6c0.3-0.3,0.5-0.6,0.6-1c0.1-0.4,0.2-0.8,0.2-1.2c0-0.4-0.1-0.8-0.2-1.2c-0.1-0.4-0.4-0.7-0.6-1
		c-0.3-0.3-0.6-0.5-1-0.6c-0.3-0.1-0.8-0.2-1.2-0.2h-4.7V30.7z M144.8,35.1c0.1,0.1,0.1,0.2,0.1,0.3s0,0.2-0.1,0.3
		c-0.1,0.1-0.2,0.1-0.3,0.1s-0.2,0-0.3-0.1l-3.7-4.1h-4.2v3.7c0,0.1,0,0.2-0.1,0.3c-0.1,0.1-0.2,0.1-0.3,0.1c-0.1,0-0.2,0-0.3-0.1
		c-0.1-0.1-0.1-0.2-0.1-0.3V24.4c0-0.1,0-0.2,0.1-0.3c0.1-0.1,0.2-0.1,0.3-0.1h5.1c0.5,0,1,0.1,1.5,0.3c0.5,0.2,0.9,0.5,1.2,0.8
		c0.3,0.3,0.6,0.8,0.8,1.2c0.2,0.5,0.3,1,0.3,1.5c0,0.5-0.1,0.9-0.2,1.3c-0.1,0.4-0.4,0.8-0.7,1.1c-0.3,0.3-0.6,0.6-1,0.8
		c-0.4,0.2-0.8,0.4-1.2,0.4L144.8,35.1z M130.5,31.9c-0.3-0.7-0.7-1.3-1.1-2.1c-0.4-0.7-0.7-1.3-1-2c-0.3-0.6-0.6-1.2-0.9-1.6
		c-0.2-0.5-0.4-0.8-0.5-1c-0.1,0.2-0.3,0.5-0.5,1c-0.2,0.5-0.5,1-0.9,1.6c-0.3,0.6-0.7,1.3-1,2c-0.4,0.7-0.7,1.4-1.1,2.1
		C123.7,31.9,130.5,31.9,130.5,31.9z M133.1,35.1c0,0.1,0,0.2,0,0.3c0,0.1-0.1,0.2-0.2,0.2c-0.1,0-0.2,0-0.3,0
		c-0.1,0-0.2-0.1-0.2-0.2c-0.1-0.2-0.3-0.5-0.4-0.8c-0.1-0.2-0.3-0.5-0.4-0.9c-0.2-0.3-0.4-0.7-0.6-1.1h-7.8
		c-0.2,0.4-0.4,0.8-0.6,1.1c-0.2,0.3-0.3,0.6-0.4,0.9c-0.1,0.3-0.3,0.6-0.4,0.8c0,0.1-0.1,0.1-0.2,0.2c-0.1,0-0.2,0-0.3,0
		c-0.1,0-0.2-0.1-0.2-0.2c0-0.1,0-0.2,0-0.3l5.7-10.9c0.1-0.1,0.2-0.2,0.4-0.2c0.1,0,0.3,0.1,0.4,0.2L133.1,35.1z M111.3,34.9h4.7
		c0.3,0,0.7,0,1-0.2s0.6-0.3,0.8-0.5c0.2-0.2,0.4-0.5,0.5-0.8c0.1-0.3,0.2-0.6,0.2-1s0-0.7-0.2-1c-0.1-0.3-0.3-0.6-0.5-0.8
		c-0.2-0.2-0.5-0.4-0.8-0.5c-0.3-0.1-0.6-0.2-1-0.2h-4.7h0V34.9z M111.3,24.8v4.3h0h4.7c0.3,0,0.6,0,0.8-0.1
		c0.2-0.1,0.5-0.2,0.7-0.4c0.2-0.2,0.3-0.4,0.4-0.7c0.1-0.2,0.1-0.5,0.1-0.8s0-0.6-0.1-0.8c-0.1-0.2-0.2-0.5-0.4-0.7
		c-0.2-0.2-0.4-0.3-0.7-0.5c-0.2-0.1-0.5-0.1-0.8-0.1L111.3,24.8L111.3,24.8z M116,24c0.4,0,0.8,0.1,1.2,0.2c0.3,0.1,0.7,0.4,1,0.6
		c0.3,0.3,0.5,0.6,0.6,1c0.1,0.3,0.2,0.8,0.2,1.2c0,0.5-0.1,1-0.4,1.4c-0.2,0.4-0.6,0.8-1,1.1c0.5,0.3,1,0.7,1.3,1.2
		s0.5,1.1,0.5,1.7c0,0.5-0.1,0.9-0.2,1.3c-0.2,0.4-0.4,0.8-0.7,1.1s-0.7,0.5-1.1,0.7s-0.8,0.2-1.3,0.2h-5.1c-0.1,0-0.2,0-0.3-0.1
		c-0.1-0.1-0.1-0.2-0.1-0.3V24.4c0-0.1,0-0.2,0.1-0.3c0.1-0.1,0.2-0.1,0.3-0.1H116z M226.2,37.9v19.4l5.4,17.4c0.1,0.5-0.1,1-0.7,1
		h10.6c5.4,0,9.8-1.8,13.2-5.3c0.1-0.1,0.1-0.1,0.2-0.2c3.3-3.5,4.8-8,4.8-13.5c0-4.9-1.6-9.3-4.7-13.1c0,0-0.1-0.1-0.1-0.1
		c-3.2-3.7-7.9-5.5-14.2-5.5C240.9,37.9,226.2,37.9,226.2,37.9z"/>
	<path class="st1" d="M79.6,59.3l2.4-8.9c0.1-0.6,0.4-0.6,0.6,0l2.5,8.9c0.1,0.6-0.2,1.1-0.8,1.1h-3.9
		C79.8,60.4,79.5,59.9,79.6,59.3 M77.1,39.3l-8.5,27.6L66.1,75c-0.2,0.6,0.2,1.1,0.8,1.1h7.2c0.6,0,1.2-0.5,1.4-1.1l1.6-5.4
		c0.2-0.6,0.8-1.1,1.4-1.1h8c0.6,0,1.2,0.5,1.4,1.1l1.5,5.4c0.1,0.6,0.8,1.1,1.4,1.1h9.6c0.6,0,1-0.5,0.8-1.1L90,39.3
		c-0.2-0.6-0.8-1.1-1.4-1.1H78.5C77.9,38.3,77.2,38.7,77.1,39.3z M154,45.9c3.5,0,5.3,3.3,5.3,9.8c0,4.6-0.4,7.7-1.3,9.4
		c-0.9,1.7-2.3,2.5-4.2,2.5c-3.6,0-5.5-3.5-5.5-10.6C148.3,49.6,150.2,45.9,154,45.9z M139.9,43.6c0.6,1.3,0.9,2.6,0.9,4.1
		c0,1.9-0.5,3.6-1.6,5.1c-0.8,1.2-2,2.1-3.4,2.7c0,0.3,0,0.6,0,0.9c4,1.3,6,4.2,6,8.4c0,2.1-0.5,3.9-1.4,5.7
		c0.1,0.1,0.3,0.3,0.4,0.4c3.4,3.5,7.7,5.3,13,5.3c5.3,0,9.6-1.8,12.9-5.4c1.1-1.2,1.9-2.4,2.6-3.7c-1.3-2.7-2-6-2-9.7
		c0-4,0.8-7.5,2.3-10.6c-0.8-1.5-1.7-2.9-2.9-4.2c-3.3-3.5-7.6-5.2-12.9-5.2c-5.7,0-10.1,1.8-13.3,5.5
		C140.4,43.1,140.1,43.4,139.9,43.6z M210.2,58.9l2.4-8.9c0.1-0.6,0.4-0.6,0.6,0l2.5,8.9c0.1,0.6-0.2,1.1-0.8,1.1H211
		C210.4,60,210,59.5,210.2,58.9z M207.6,38.9l-5.9,18.9l-5.2,16.8c-0.1,0.5,0.1,1,0.7,1h0.1h7.2c0.6,0,1.2-0.5,1.4-1.1l1.6-5.4
		c0.2-0.6,0.8-1.1,1.4-1.1h8c0.6,0,1.2,0.5,1.4,1.1l1.5,5.4c0.1,0.6,0.8,1.1,1.4,1.1h5h4.7h0.1c0.5,0,0.8-0.5,0.7-1l-5.4-17.4
		l-5.8-18.3c-0.2-0.6-0.8-1.1-1.4-1.1h-10.1C208.4,37.9,207.8,38.3,207.6,38.9z M263.2,57.1c0-7.5,1.9-11.2,5.7-11.2
		c3.5,0,5.3,3.3,5.3,9.8c0,4.6-0.4,7.7-1.3,9.4c-0.9,1.7-2.3,2.5-4.2,2.5C265,67.6,263.2,64.1,263.2,57.1z M268.8,37.3
		c-5.7,0-10.1,1.8-13.3,5.5c-0.1,0.2-0.3,0.4-0.5,0.6c0,0,0.1,0.1,0.1,0.1c3.2,3.8,4.7,8.1,4.7,13.1c0,5.5-1.6,10-4.8,13.5
		c0.2,0.3,0.5,0.6,0.7,0.8c3.4,3.5,7.7,5.3,13,5.3c5.3,0,9.6-1.8,12.9-5.4s5-8.4,5-14.4c0-5.8-1.6-10.4-4.9-13.9
		C278.4,39,274.1,37.3,268.8,37.3z M39.5,53.7c-1.9-0.7-5.1-1.6-9.6-2.5c-1.6-0.3-2.8-0.7-3.3-1.1c-0.6-0.4-0.9-0.9-0.9-1.6
		c0-1.6,1.2-2.4,3.8-2.4c3,0,5,1.2,6,3.8l7.1-2.2l2.5-0.8c-0.7-1.6-1.5-3.1-2.5-4.3c-2.8-3.3-7.1-4.9-12.8-4.9
		c-5,0-8.9,1.2-11.7,3.6c-1.1,1-2,2-2.6,3.2c-1,1.7-1.4,3.6-1.4,5.7c0,2,0.5,3.7,1.4,5.3c0.4,0.7,0.9,1.3,1.4,1.9
		c1.9,2.1,6.1,3.7,12.8,5c1.7,0.3,2.9,0.7,3.6,1.2c0.7,0.5,1,1.1,1,1.9c0,1.5-1.4,2.3-4.4,2.3c-3.7,0-6-1.5-7-4.6l-7.4,1.3l-3.3,0.6
		c0.7,2.5,1.8,4.7,3.3,6.4c3,3.4,7.6,5.1,13.7,5.1c5,0,9.1-1.2,12.2-3.6c0.4-0.3,0.8-0.6,1.1-1c2.4-2.3,3.6-5.1,3.6-8.4
		c0-2.4-0.6-4.5-1.9-6.3c-0.5-0.7-1.1-1.3-1.6-1.8C41.7,54.8,40.7,54.2,39.5,53.7z"/>
</g>
</svg>
