<?xml version="1.0" encoding="utf-8"?>
<!-- Generator: Adobe Illustrator 27.9.0, SVG Export Plug-In . SVG Version: 6.00 Build 0)  -->
<svg version="1.1" id="Layer_1" xmlns="http://www.w3.org/2000/svg" xmlns:xlink="http://www.w3.org/1999/xlink" x="0px" y="0px"
	 viewBox="0 0 290 100.4" style="enable-background:new 0 0 290 100.4;" xml:space="preserve">
<style type="text/css">
	.fnd{fill-rule:evenodd;clip-rule:evenodd;
	<!-- cursor:pointer; -->
	<!-- fill:rgba(255,255,255,.0); -->
	fill:transparent;
	}
	.studio{fill:#FFF;}
	.agnus{fill-rule:evenodd;clip-rule:evenodd;fill:#FFF;}
</style>
<rect y="2" class="fnd" width="288" height="98.4"/>
<path class="studio" d="M102.3,28.2c0,1.8,0.4,3.2,1.2,4.3c0.8,1.1,1.9,1.6,3.3,1.6c1.4,0,2.5-0.5,3.3-1.6c0.8-1.1,1.2-2.6,1.2-4.6
	c0-1.7-0.4-3.2-1.2-4.2c-0.8-1.1-1.9-1.6-3.3-1.6c-1.3,0-2.4,0.5-3.3,1.6C102.7,24.6,102.3,26.2,102.3,28.2 M99.6,27.8
	c0-1.6,0.3-3,0.9-4.2c0.6-1.3,1.5-2.2,2.6-2.9c1.1-0.7,2.3-1,3.7-1c2.2,0,3.9,0.7,5.3,2.3c1.3,1.5,2,3.5,2,6v0.2
	c0,1.6-0.3,2.9-0.9,4.2c-0.6,1.2-1.4,2.2-2.5,2.9c-1.1,0.7-2.4,1-3.8,1c-2.2,0-3.9-0.7-5.2-2.3c-1.3-1.5-2-3.5-2-6V27.8z M93,15.8
	c0-0.4,0.1-0.8,0.4-1.1c0.3-0.3,0.7-0.5,1.2-0.5c0.5,0,0.9,0.2,1.2,0.5c0.3,0.3,0.4,0.7,0.4,1.1c0,0.4-0.1,0.8-0.4,1.1
	c-0.3,0.3-0.7,0.4-1.2,0.4c-0.5,0-0.9-0.1-1.2-0.4C93.1,16.6,93,16.2,93,15.8z M95.9,36h-2.7V20h2.7V36z M78,28.2
	c0,1.8,0.4,3.2,1.1,4.2c0.7,1,1.8,1.5,3.1,1.5c1.7,0,3-0.8,3.8-2.3v-7.3c-0.8-1.5-2.1-2.3-3.8-2.3c-1.3,0-2.4,0.5-3.1,1.5
	C78.4,24.6,78,26.1,78,28.2z M75.3,27.9c0-2.4,0.6-4.4,1.7-5.9c1.2-1.5,2.7-2.2,4.5-2.2c1.9,0,3.3,0.6,4.4,1.9v-8.3h2.7V36h-2.5
	l-0.1-1.7c-1.1,1.3-2.6,2-4.5,2c-1.8,0-3.4-0.8-4.5-2.3c-1.2-1.5-1.7-3.5-1.7-5.9V27.9z M69.2,34.4c-1.1,1.2-2.6,1.9-4.7,1.9
	c-1.7,0-3-0.5-3.9-1.5c-0.9-1-1.3-2.4-1.3-4.4V20H62v10.3c0,2.4,1,3.6,2.9,3.6c2.1,0,3.5-0.8,4.2-2.3V20h2.7V36h-2.6L69.2,34.4z
	 M53.2,16.2V20h3v2.1h-3V32c0,0.6,0.1,1.1,0.4,1.4c0.3,0.3,0.7,0.5,1.4,0.5c0.3,0,0.7-0.1,1.3-0.2V36c-0.7,0.2-1.4,0.3-2.1,0.3
	c-1.2,0-2.1-0.4-2.8-1.1c-0.6-0.7-0.9-1.8-0.9-3.1v-9.9h-2.9V20h2.9v-3.9H53.2z M43.2,31.7c0-0.7-0.3-1.3-0.8-1.7
	c-0.6-0.4-1.5-0.8-2.9-1.1c-1.4-0.3-2.5-0.6-3.3-1.1c-0.8-0.4-1.4-0.9-1.8-1.5c-0.4-0.6-0.6-1.2-0.6-2c0-1.3,0.6-2.4,1.7-3.3
	c1.1-0.9,2.5-1.4,4.2-1.4c1.8,0,3.3,0.5,4.4,1.4c1.1,0.9,1.7,2.1,1.7,3.6H43c0-0.7-0.3-1.4-0.9-1.9c-0.6-0.5-1.4-0.8-2.4-0.8
	c-1,0-1.8,0.2-2.3,0.6c-0.6,0.4-0.8,1-0.8,1.7c0,0.7,0.3,1.2,0.8,1.5c0.5,0.3,1.5,0.7,2.8,1c1.4,0.3,2.5,0.7,3.3,1.1
	c0.8,0.4,1.5,0.9,1.9,1.5c0.4,0.6,0.6,1.3,0.6,2.2c0,1.4-0.6,2.6-1.7,3.4c-1.1,0.9-2.6,1.3-4.4,1.3c-1.3,0-2.4-0.2-3.4-0.7
	c-1-0.5-1.7-1.1-2.3-1.9c-0.6-0.8-0.8-1.7-0.8-2.6H36c0.1,0.9,0.4,1.6,1.1,2.2c0.7,0.5,1.6,0.8,2.7,0.8c1,0,1.9-0.2,2.5-0.6
	C42.9,33,43.2,32.4,43.2,31.7z"/>

<path class="agnus" d="M55.4,49.5l8,17.9l-15.9-0.2L55.4,49.5z M114.4,67h5.7v18.5c-3.7,2.4-9.8,3.5-18.6,3.2
	C84.4,88.2,78.2,78.8,77.3,65c0.5,0-1.6-23.4,23.4-24.6c12-0.6,19.6,4.3,19.6,4.3l-1.4,5.6c-5-6-11-6.4-16.2-6.3
	c-3.5,0-18.9-0.7-18.6,21.8c0.2,15.4,9.4,22.8,30.4,18.8V67z M128.8,40.4l36,36.4L164.3,42h4.4l-0.9,45.4c-0.1,1.1-1.1,1.8-2,1.1
	l-32.7-36.2c-0.4,9.6-0.1,21.4,1.1,35.1h-5.3C130.1,70.3,130.1,54.6,128.8,40.4z M180.6,41.5h6.5l-0.8,27.3c-0.3,9,2.9,16.5,13.3,17
	c10.5-0.4,16-5.1,16-16l0-28.4h4.6l-1,30.1c-0.2,6.9-4,15.2-14.7,16.5c-2.2,0.3-7.3,0.6-10.7,0.1c-8.5-1.4-12.7-7-13.2-15.1V41.5z
	 M252.2,43.8c-2.9-2.2-6.4-3.6-11.1-3.4c-7.1,1-12.5,4.3-13.6,12.9c0.4,16.6,23.1,11.2,21.7,24c-0.6,5.3-4.9,9.2-10.3,9.4
	c-3.9,0.2-7.4-2.1-10.6-7.5l-1.3,6.7c7.5,4.5,20.1,4.5,25.3-3.5c4.8-7.4,2.5-15.1-5.1-19.3c-6.7-3.7-15.2-5.7-14.1-11.1
	c0.8-7.6,12.1-12.4,16-3.3c0.1,0.3,1.3,1,1.6,0.9L252.2,43.8z M56.3,40.4l21.1,47h-6.5l-6.8-17.3L47,69.9l-6.8,17.5h-4.7L56.3,40.4z
	"/>
<rect y="2" class="fnd" width="288" height="98.4"/>

</svg>
